<?xml version="1.0" encoding="utf-8"?>
<!-- Generator: Adobe Illustrator 16.0.0, SVG Export Plug-In . SVG Version: 6.00 Build 0)  -->
<!DOCTYPE svg PUBLIC "-//W3C//DTD SVG 1.1//EN" "http://www.w3.org/Graphics/SVG/1.1/DTD/svg11.dtd">
<svg version="1.1" id="圖層_1" xmlns="http://www.w3.org/2000/svg" xmlns:xlink="http://www.w3.org/1999/xlink" x="0px" y="0px"
	 width="512px" height="512px" viewBox="0 0 512 512" enable-background="new 0 0 512 512" xml:space="preserve">
<path fill="#8EC555" d="M512,256c0,141.387-114.613,256-256,256S0,397.387,0,256S114.613,0,256,0S512,114.613,512,256z"/>
<path fill="#577C2C" d="M507.57,303.57L291,87l-70,26l32.215,32.215L86.742,292.324l42.602,42.602L77,344l167.738,167.738
	C248.477,511.902,252.227,512,256,512C381.129,512,485.27,422.223,507.57,303.57z"/>
<path fill="#FFA300" d="M241,105h30v225h-30V105z"/>
<path fill="#FE8205" d="M255.809,105H271v225h-15.191V105z"/>
<path fill="#FFE000" d="M77,316h358v28H77V316z"/>
<path fill="#FFC200" d="M255.809,316H435v28H255.809V316z"/>
<path fill="#FFE000" d="M86.742,292.324c0-93.477,75.781-169.258,169.258-169.258s169.258,75.781,169.258,169.258H86.742z"/>
<path fill="#FFC200" d="M256,123.066c-0.063,0-0.129,0.004-0.191,0.004v169.254h169.449
	C425.258,198.848,349.477,123.066,256,123.066z"/>
<path fill="#FDBA12" d="M221,87h70v26h-70V87z"/>
<path fill="#FFA300" d="M255.809,87H291v26h-35.191V87z"/>
</svg>
