<?xml version="1.0" encoding="utf-8"?>
<!-- Generator: Adobe Illustrator 16.0.0, SVG Export Plug-In . SVG Version: 6.00 Build 0)  -->
<!DOCTYPE svg PUBLIC "-//W3C//DTD SVG 1.1//EN" "http://www.w3.org/Graphics/SVG/1.1/DTD/svg11.dtd">
<svg version="1.1" id="圖層_1" xmlns="http://www.w3.org/2000/svg" xmlns:xlink="http://www.w3.org/1999/xlink" x="0px" y="0px"
	 width="89.597px" height="26.32px" viewBox="0 0 89.597 26.32" enable-background="new 0 0 89.597 26.32" xml:space="preserve">
<g>
	<g>
		<g>
			<path fill="#FFFFFF" d="M17.726,2.593c-1.571-0.96-3.642-1.426-6.33-1.426H8.962H8.606c-0.161,0-0.328,0.003-0.498,0.008
				c-1.609,0.095-2.023,0.947-2.13,1.421L5.942,2.906l0,0L5.797,4.185L5.695,5.096L5.401,7.691L4.004,20.022
				c-0.107,0.952-0.033,1.585,0.223,1.897c0.257,0.313,0.86,0.472,1.813,0.472h3.473c1.968,0,3.545-0.357,4.729-1.071
				c1.438-0.864,2.266-2.238,2.479-4.121c0.091-0.8-0.004-1.541-0.283-2.223c-0.279-0.683-0.733-1.206-1.362-1.574
				c0.608-0.41,1.069-0.902,1.384-1.477c0.313-0.573,0.513-1.228,0.596-1.964c0.208-1.838-0.346-3.157-1.661-3.958
				c-0.788-0.48-1.886-0.771-3.291-0.87c-0.005-0.001-0.01-0.002-0.016-0.002c-0.028-0.002-0.068-0.005-0.114-0.007
				c-0.003-0.001-0.006-0.001-0.009-0.001c-0.214-0.012-0.568-0.026-0.761-0.035c-0.041-0.004-0.083-0.006-0.124-0.006
				c-0.002,0-0.004,0-0.008,0c-0.002,0-0.004,0-0.004,0l0,0C10.277,5.09,9.67,5.671,9.709,6.388c0.037,0.678,0.638,1.233,1.37,1.298
				l-0.001,0.006h0.682c0.845,0,1.507,0.211,1.989,0.633c0.481,0.422,0.677,1.044,0.584,1.866s-0.429,1.438-1.004,1.85
				c-0.577,0.411-1.287,0.616-2.131,0.616h-0.784v0.001c-0.001-0.001-0.001-0.001-0.001-0.001H10.18
				c-0.556,0.059-1.036,0.523-1.101,1.088c-0.063,0.563,0.31,1.026,0.85,1.086h0.243h1.04c0.821,0,1.479,0.217,1.971,0.649
				c0.491,0.434,0.692,1.05,0.603,1.85c-0.092,0.801-0.433,1.417-1.021,1.851c-0.591,0.433-1.296,0.648-2.118,0.648H6.849
				l0.432-3.811l0.136-1.188l0.246-2.174l0.563-4.965l0.294-2.596l0.154-1.362h2.434c2.229,0,3.896,0.354,5.098,1.089
				c1.71,1.041,2.476,2.818,2.212,5.141c-0.104,0.92-0.362,1.764-0.77,2.505c-0.028,0.055-0.06,0.106-0.091,0.159l-0.387,0.653
				l0.328,0.604c0.079,0.146,0.151,0.301,0.218,0.459c0.359,0.875,0.483,1.837,0.367,2.854c-0.269,2.366-1.354,4.138-3.233,5.267
				c-1.437,0.866-3.231,1.288-5.49,1.288H5.886c-0.941,0-2.105-0.104-2.763-0.905c-0.631-0.771-0.577-1.981-0.481-2.825L4.039,7.691
				l0.016-0.236c0.017-0.091,0.023-0.185,0.02-0.281c0-0.002,0-0.004,0-0.006C4.035,6.474,3.442,5.911,2.748,5.911
				c-0.446,0-0.825,0.234-1.028,0.585C1.639,6.634,1.586,6.79,1.567,6.958C1.564,6.972,1.561,6.982,1.56,6.988
				C1.536,7.153,1.515,7.313,1.498,7.465L1.471,7.691L0.076,20.022c-0.146,1.276-0.201,3.142,0.972,4.574
				c1.408,1.724,3.771,1.724,4.548,1.724h3.473c2.768,0,5.034-0.556,6.93-1.698c1.865-1.121,4.188-3.318,4.65-7.423
				c0.163-1.438-0.014-2.8-0.524-4.046c-0.011-0.023-0.021-0.047-0.029-0.07c0.464-0.959,0.762-2.006,0.888-3.12
				C21.349,6.712,20.193,4.094,17.726,2.593z"/>
		</g>
		<g>
			<g>
				<path fill="#FFFFFF" d="M0.755,2.898C0.836,3.063,0.907,3.216,1.037,3.35c0.182,0.188,0.407,0.337,0.63,0.472
					c0.271,0.167,0.546,0.331,0.817,0.497C2.687,4.441,2.889,4.563,3.09,4.688c0.805,0.49,1.465,0.104,1.468-0.855
					C4.559,3.44,4.56,3.048,4.561,2.657C4.562,2.376,4.577,2.09,4.548,1.811C4.52,1.536,4.447,1.268,4.306,1.03
					c-0.08-0.135-0.166-0.265-0.27-0.384C3.893,0.486,3.718,0.36,3.531,0.258c-0.384-0.21-0.817-0.301-1.254-0.238
					c-0.24,0.034-0.49,0.119-0.703,0.237c-0.384,0.216-0.705,0.563-0.87,0.97c-0.158,0.39-0.212,0.853-0.105,1.263
					C0.634,2.63,0.691,2.767,0.755,2.898z M2.586,1.24c0.438,0,0.792,0.354,0.792,0.792S3.024,2.824,2.586,2.824
					c-0.438,0-0.792-0.354-0.792-0.792S2.149,1.24,2.586,1.24z"/>
			</g>
		</g>
	</g>
</g>
<g>
	<g>
		<path fill="#FFFFFF" d="M27.557,21.543c0.165,0.223,0.247,0.493,0.247,0.813c0,0.442-0.158,0.791-0.477,1.042
			c-0.317,0.252-0.756,0.377-1.313,0.377h-1.907c-0.143,0-0.255-0.039-0.336-0.118c-0.082-0.079-0.122-0.189-0.122-0.333v-4.31
			c0-0.145,0.04-0.255,0.122-0.333c0.081-0.079,0.193-0.118,0.336-0.118h1.834c0.542,0,0.968,0.119,1.275,0.357
			c0.308,0.239,0.462,0.573,0.462,1.002c0,0.276-0.073,0.516-0.219,0.718c-0.146,0.201-0.347,0.351-0.604,0.443
			C27.159,21.168,27.392,21.321,27.557,21.543z M24.582,20.759h1.205c0.654,0,0.982-0.242,0.982-0.73
			c0-0.246-0.082-0.429-0.244-0.547c-0.163-0.118-0.408-0.178-0.738-0.178h-1.205V20.759z M26.667,22.852
			c0.157-0.123,0.235-0.315,0.235-0.577c0-0.261-0.079-0.455-0.239-0.584c-0.16-0.128-0.41-0.192-0.751-0.192h-1.33v1.538h1.33
			C26.257,23.036,26.508,22.975,26.667,22.852z"/>
		<path fill="#FFFFFF" d="M29.294,23.605c-0.278-0.152-0.494-0.372-0.647-0.658c-0.151-0.285-0.229-0.618-0.229-0.998
			c0-0.379,0.076-0.711,0.229-0.994c0.153-0.283,0.369-0.501,0.647-0.654c0.277-0.151,0.603-0.229,0.972-0.229
			c0.37,0,0.694,0.077,0.973,0.229c0.278,0.153,0.493,0.371,0.644,0.654s0.227,0.615,0.227,0.994c0,0.38-0.075,0.713-0.227,0.998
			c-0.149,0.286-0.364,0.506-0.644,0.658c-0.277,0.152-0.603,0.229-0.973,0.229C29.897,23.835,29.573,23.759,29.294,23.605z
			 M30.947,22.821c0.157-0.196,0.236-0.487,0.236-0.872c0-0.379-0.079-0.669-0.236-0.868c-0.157-0.2-0.385-0.3-0.681-0.3
			c-0.295,0-0.522,0.1-0.684,0.3c-0.16,0.199-0.24,0.489-0.24,0.868c0,0.385,0.079,0.676,0.236,0.872
			c0.157,0.198,0.385,0.296,0.681,0.296C30.56,23.117,30.789,23.02,30.947,22.821z"/>
		<path fill="#FFFFFF" d="M36.063,20.205c0.083,0.078,0.125,0.186,0.125,0.317v2.869c0,0.128-0.043,0.23-0.129,0.31
			s-0.198,0.119-0.336,0.119c-0.134,0-0.239-0.037-0.318-0.111c-0.078-0.074-0.117-0.175-0.117-0.303V23.22
			c-0.113,0.196-0.268,0.35-0.459,0.454c-0.191,0.106-0.409,0.159-0.65,0.159c-0.887,0-1.33-0.498-1.33-1.494v-1.817
			c0-0.133,0.042-0.239,0.125-0.317c0.084-0.079,0.195-0.118,0.333-0.118c0.144,0,0.256,0.039,0.34,0.118
			c0.084,0.078,0.126,0.186,0.126,0.317v1.826c0,0.257,0.053,0.445,0.155,0.568s0.266,0.186,0.487,0.186
			c0.257,0,0.463-0.085,0.618-0.255c0.154-0.171,0.231-0.396,0.231-0.678v-1.647c0-0.133,0.042-0.239,0.126-0.317
			c0.084-0.079,0.194-0.118,0.333-0.118C35.866,20.087,35.979,20.126,36.063,20.205z"/>
		<path fill="#FFFFFF" d="M40.217,20.441c0.212,0.246,0.318,0.618,0.318,1.116v1.817c0,0.14-0.041,0.247-0.122,0.325
			c-0.081,0.079-0.193,0.119-0.336,0.119c-0.145,0-0.258-0.04-0.342-0.119c-0.084-0.078-0.125-0.187-0.125-0.325v-1.767
			c0-0.281-0.054-0.485-0.158-0.613c-0.106-0.128-0.272-0.191-0.499-0.191c-0.268,0-0.479,0.084-0.641,0.251
			c-0.16,0.168-0.239,0.393-0.239,0.673v1.647c0,0.14-0.043,0.247-0.127,0.325c-0.084,0.079-0.196,0.119-0.34,0.119
			s-0.255-0.04-0.336-0.119c-0.082-0.078-0.122-0.187-0.122-0.325v-2.859c0-0.13,0.042-0.232,0.125-0.312
			c0.084-0.079,0.197-0.118,0.342-0.118c0.128,0,0.231,0.038,0.313,0.114c0.082,0.076,0.122,0.176,0.122,0.299v0.2
			c0.123-0.202,0.289-0.357,0.495-0.466c0.207-0.108,0.44-0.163,0.703-0.163C39.683,20.071,40.005,20.195,40.217,20.441z"/>
		<path fill="#FFFFFF" d="M45.463,21.543c0.165,0.223,0.247,0.493,0.247,0.813c0,0.442-0.158,0.791-0.478,1.042
			c-0.317,0.252-0.755,0.377-1.313,0.377h-1.907c-0.143,0-0.255-0.039-0.336-0.118c-0.082-0.079-0.122-0.189-0.122-0.333v-4.31
			c0-0.145,0.04-0.255,0.122-0.333c0.081-0.079,0.193-0.118,0.336-0.118h1.834c0.542,0,0.967,0.119,1.275,0.357
			c0.308,0.239,0.462,0.573,0.462,1.002c0,0.276-0.073,0.516-0.219,0.718c-0.146,0.201-0.347,0.351-0.604,0.443
			C45.065,21.168,45.298,21.321,45.463,21.543z M42.488,20.759h1.205c0.655,0,0.982-0.242,0.982-0.73
			c0-0.246-0.081-0.429-0.243-0.547c-0.163-0.118-0.409-0.178-0.739-0.178h-1.205V20.759z M44.573,22.852
			c0.156-0.123,0.235-0.315,0.235-0.577c0-0.261-0.08-0.455-0.24-0.584c-0.159-0.128-0.41-0.192-0.751-0.192h-1.33v1.538h1.33
			C44.163,23.036,44.415,22.975,44.573,22.852z"/>
		<path fill="#FFFFFF" d="M49.211,20.445c0.244,0.249,0.366,0.627,0.366,1.135v1.804c0,0.134-0.04,0.237-0.118,0.314
			c-0.079,0.076-0.188,0.114-0.326,0.114c-0.128,0-0.232-0.039-0.313-0.118c-0.082-0.079-0.121-0.184-0.121-0.312V23.22
			c-0.085,0.191-0.217,0.343-0.396,0.45c-0.18,0.108-0.389,0.163-0.625,0.163c-0.241,0-0.461-0.05-0.658-0.147
			c-0.197-0.099-0.353-0.233-0.466-0.406s-0.17-0.365-0.17-0.577c0-0.266,0.068-0.476,0.203-0.628
			c0.136-0.152,0.355-0.264,0.662-0.333c0.306-0.068,0.727-0.104,1.265-0.104h0.186v-0.171c0-0.24-0.053-0.418-0.155-0.527
			c-0.104-0.111-0.271-0.166-0.503-0.166c-0.144,0-0.288,0.021-0.438,0.063c-0.146,0.042-0.321,0.104-0.523,0.182
			c-0.128,0.063-0.223,0.097-0.281,0.097c-0.089,0-0.161-0.032-0.218-0.097c-0.058-0.063-0.085-0.147-0.085-0.251
			c0-0.084,0.021-0.156,0.063-0.219c0.042-0.062,0.112-0.119,0.211-0.174c0.173-0.094,0.378-0.168,0.617-0.222
			c0.239-0.055,0.475-0.082,0.706-0.082C48.594,20.071,48.967,20.196,49.211,20.445z M48.464,22.922
			c0.155-0.165,0.232-0.379,0.232-0.64v-0.155h-0.133c-0.331,0-0.587,0.016-0.77,0.044c-0.184,0.03-0.313,0.082-0.393,0.155
			c-0.078,0.074-0.117,0.176-0.117,0.304c0,0.157,0.056,0.287,0.166,0.389s0.248,0.15,0.409,0.15
			C48.109,23.169,48.309,23.087,48.464,22.922z"/>
		<path fill="#FFFFFF" d="M53.584,20.441c0.212,0.246,0.316,0.618,0.316,1.116v1.817c0,0.14-0.04,0.247-0.121,0.325
			c-0.081,0.079-0.193,0.119-0.337,0.119c-0.143,0-0.256-0.04-0.34-0.119c-0.084-0.078-0.126-0.187-0.126-0.325v-1.767
			c0-0.281-0.053-0.485-0.159-0.613c-0.104-0.128-0.271-0.191-0.499-0.191c-0.266,0-0.479,0.084-0.64,0.251
			c-0.16,0.168-0.24,0.393-0.24,0.673v1.647c0,0.14-0.041,0.247-0.125,0.325c-0.084,0.079-0.196,0.119-0.34,0.119
			s-0.256-0.04-0.337-0.119c-0.081-0.078-0.122-0.187-0.122-0.325v-2.859c0-0.13,0.042-0.232,0.126-0.312s0.197-0.118,0.34-0.118
			c0.128,0,0.233,0.038,0.314,0.114s0.122,0.176,0.122,0.299v0.2c0.123-0.202,0.288-0.357,0.495-0.466
			c0.207-0.109,0.44-0.163,0.701-0.163C53.049,20.071,53.373,20.195,53.584,20.441z"/>
		<path fill="#FFFFFF" d="M58.235,20.205c0.083,0.078,0.125,0.186,0.125,0.317v2.92c0,0.566-0.156,0.996-0.473,1.287
			c-0.315,0.29-0.781,0.436-1.396,0.436c-0.537,0-0.985-0.101-1.347-0.303c-0.182-0.108-0.272-0.239-0.272-0.392
			c0-0.108,0.025-0.195,0.078-0.26c0.052-0.063,0.118-0.097,0.202-0.097c0.044,0,0.1,0.012,0.162,0.034
			c0.064,0.021,0.131,0.048,0.2,0.077c0.178,0.073,0.336,0.131,0.478,0.17c0.141,0.039,0.302,0.06,0.483,0.06
			c0.646,0,0.969-0.314,0.969-0.946v-0.474c-0.107,0.202-0.267,0.358-0.474,0.47c-0.207,0.11-0.443,0.166-0.71,0.166
			c-0.315,0-0.595-0.074-0.839-0.226s-0.436-0.36-0.573-0.632s-0.207-0.584-0.207-0.938s0.068-0.67,0.204-0.942
			c0.135-0.273,0.326-0.485,0.572-0.637c0.247-0.149,0.526-0.226,0.843-0.226c0.267,0,0.503,0.056,0.71,0.167
			c0.207,0.11,0.365,0.268,0.474,0.469v-0.19c0-0.13,0.041-0.232,0.125-0.312s0.195-0.118,0.333-0.118
			C58.04,20.086,58.151,20.126,58.235,20.205z M57.196,22.667c0.165-0.191,0.248-0.456,0.248-0.791c0-0.341-0.083-0.605-0.248-0.799
			s-0.396-0.288-0.69-0.288c-0.291,0-0.521,0.096-0.688,0.288c-0.167,0.192-0.251,0.458-0.251,0.799c0,0.335,0.084,0.6,0.251,0.791
			c0.168,0.192,0.396,0.288,0.688,0.288C56.8,22.955,57.031,22.859,57.196,22.667z"/>
	</g>
</g>
<g>
	<g>
		<path fill="#FFFFFF" d="M36.314,12.989c0.389,0,0.72,0.137,0.993,0.412c0.275,0.272,0.411,0.605,0.411,0.994v0.692
			c0,0.42-0.059,0.738-0.176,0.954c-0.119,0.216-0.335,0.389-0.646,0.519c-0.389,0.129-0.971,0.197-1.746,0.21h-0.016
			c-0.216,0-0.42-0.07-0.614-0.21c-0.183-0.142-0.323-0.324-0.42-0.551c-0.075-0.161-0.064-0.316,0.032-0.469
			c0.098-0.149,0.23-0.227,0.403-0.227c0.172,0,0.323,0,0.453,0c0.227,0,0.389,0,0.484,0c0.118,0,0.198-0.017,0.242-0.049
			c0.042-0.031,0.063-0.098,0.063-0.193v-0.55c0-0.107-0.054-0.161-0.159-0.161h-3.427c-0.107,0-0.162,0.054-0.162,0.161v1.471
			c0,0.259-0.091,0.481-0.273,0.671c-0.185,0.188-0.409,0.283-0.679,0.283s-0.496-0.095-0.68-0.283s-0.273-0.412-0.273-0.671v-1.471
			c0-0.107-0.056-0.161-0.162-0.161h-3.086c-0.107,0-0.161,0.054-0.161,0.161v1.213c0,0.258-0.095,0.48-0.283,0.67
			c-0.188,0.188-0.415,0.283-0.678,0.283c-0.266,0-0.488-0.096-0.671-0.283c-0.185-0.188-0.275-0.412-0.275-0.67v-1.341
			c0-0.389,0.138-0.722,0.413-0.994c0.274-0.275,0.605-0.412,0.993-0.412h3.748c0.106,0,0.162-0.054,0.162-0.161v-0.163
			c0-0.105-0.056-0.16-0.162-0.16h-2.827c-0.388,0-0.72-0.138-0.993-0.413c-0.274-0.273-0.413-0.604-0.413-0.992V9.838
			c0-0.387,0.139-0.719,0.413-0.994c0.273-0.273,0.605-0.41,0.993-0.41h2.973c0.107,0,0.18-0.055,0.211-0.161
			c0.097-0.216,0.161-0.367,0.193-0.453c0.011-0.032,0.006-0.064-0.016-0.097c-0.022-0.032-0.055-0.05-0.099-0.05
			c-0.345,0.033-0.858,0.075-1.543,0.129c-0.684,0.056-1.225,0.096-1.623,0.121c-0.398,0.028-0.86,0.062-1.383,0.099
			c-0.521,0.038-0.981,0.066-1.381,0.089c-0.162,0.011-0.307-0.037-0.437-0.146c-0.141-0.117-0.21-0.269-0.21-0.451
			c0-0.141,0.049-0.265,0.146-0.372c0.108-0.118,0.242-0.184,0.403-0.193c0.688-0.032,1.396-0.069,2.116-0.113
			c0.098-0.011,0.146-0.07,0.146-0.177V6.413c0-0.106-0.055-0.163-0.162-0.163h-1.728c-0.142,0-0.261-0.048-0.356-0.145
			c-0.096-0.098-0.146-0.215-0.146-0.354c0-0.141,0.049-0.26,0.146-0.355c0.097-0.097,0.216-0.146,0.356-0.146h1.728
			c0.107,0,0.162-0.054,0.162-0.161V4.926c0-0.105-0.055-0.159-0.162-0.159h-2.116c-0.14,0-0.259-0.046-0.354-0.139
			c-0.097-0.092-0.146-0.204-0.146-0.34c0-0.134,0.049-0.25,0.146-0.348c0.097-0.098,0.216-0.146,0.354-0.146h2.116
			c0.107,0,0.162-0.053,0.162-0.161V3.456c0-0.107-0.055-0.161-0.162-0.161h-1.518c-0.13,0-0.243-0.047-0.341-0.138
			c-0.098-0.092-0.146-0.204-0.146-0.339c0-0.136,0.048-0.248,0.146-0.34c0.098-0.093,0.211-0.139,0.341-0.139h1.598
			c0.056,0,0.082-0.031,0.082-0.097c0-0.204,0.076-0.383,0.227-0.533c0.151-0.149,0.333-0.226,0.55-0.226h0.273
			c0.217,0,0.399,0.075,0.55,0.226c0.151,0.151,0.228,0.329,0.228,0.533c0,0.064,0.033,0.097,0.097,0.097h1.648
			c0.13,0,0.238,0.046,0.33,0.139c0.093,0.092,0.138,0.204,0.138,0.34c0,0.135-0.045,0.247-0.138,0.339
			c-0.092,0.091-0.2,0.138-0.33,0.138h-1.583c-0.108,0-0.162,0.054-0.162,0.161v0.178c0,0.108,0.054,0.161,0.162,0.161h2.065
			c0.13,0,0.243,0.049,0.34,0.146c0.1,0.098,0.146,0.214,0.146,0.348c0,0.136-0.047,0.248-0.146,0.34
			c-0.097,0.093-0.21,0.139-0.34,0.139h-2.065c-0.108,0-0.162,0.054-0.162,0.159v0.162c0,0.107,0.054,0.161,0.162,0.161H30.4
			c0.14,0,0.26,0.05,0.356,0.146c0.096,0.097,0.146,0.216,0.146,0.355c0,0.141-0.05,0.258-0.146,0.354
			C30.659,6.202,30.539,6.25,30.4,6.25h-1.775c-0.108,0-0.162,0.057-0.162,0.163v0.128c0,0.044,0.017,0.082,0.048,0.115
			c0.033,0.031,0.069,0.048,0.114,0.048l1.874-0.113c0.021,0,0.038,0,0.048,0c0.204,0,0.382,0.075,0.533,0.228
			c0.162,0.149,0.241,0.334,0.241,0.549c0,0.075,0.033,0.124,0.099,0.146l0.339,0.08c0.173,0.032,0.294,0.133,0.363,0.3
			s0.057,0.319-0.04,0.461c-0.012,0.021-0.012,0.04,0,0.055c0.011,0.018,0.021,0.025,0.031,0.025h3.28
			c0.387,0,0.718,0.137,0.993,0.411c0.274,0.274,0.412,0.606,0.412,0.993V11.1c0,0.388-0.138,0.719-0.412,0.992
			c-0.275,0.275-0.606,0.413-0.993,0.413h-3.199c-0.107,0-0.161,0.055-0.161,0.16v0.163c0,0.107,0.054,0.161,0.161,0.161
			L36.314,12.989L36.314,12.989z M27.637,9.466c-0.108,0-0.162,0.057-0.162,0.162v0.194c0,0.108,0.054,0.161,0.162,0.161h7.189
			c0.106,0,0.162-0.053,0.162-0.161V9.628c0-0.105-0.056-0.162-0.162-0.162H27.637z M27.637,10.921
			c-0.108,0-0.162,0.055-0.162,0.161v0.21c0,0.107,0.054,0.162,0.162,0.162h7.189c0.106,0,0.162-0.055,0.162-0.162v-0.21
			c0-0.106-0.056-0.161-0.162-0.161H27.637z M37.089,2.664c0,0.099,0.043,0.146,0.129,0.146h0.694c0.205,0,0.378,0.069,0.518,0.209
			c0.14,0.142,0.211,0.311,0.211,0.511c0,0.199-0.071,0.368-0.211,0.509s-0.313,0.209-0.518,0.209H37.25
			c-0.107,0-0.161,0.057-0.161,0.162v2.182c0,0.398-0.052,0.697-0.153,0.896c-0.103,0.199-0.283,0.358-0.542,0.477
			c-0.344,0.129-0.835,0.204-1.47,0.228c-0.012,0-0.022,0-0.032,0c-0.204,0-0.397-0.064-0.582-0.194
			c-0.192-0.129-0.333-0.307-0.42-0.533c-0.076-0.149-0.066-0.302,0.023-0.451c0.093-0.151,0.229-0.227,0.412-0.227
			c0.204,0,0.431,0,0.68,0c0.097,0,0.163-0.017,0.202-0.049c0.037-0.032,0.056-0.098,0.056-0.195V4.409
			c0-0.105-0.054-0.162-0.161-0.162h-1.794c-0.032,0-0.054,0.016-0.063,0.041C33.233,4.315,33.239,4.34,33.26,4.36
			c0.291,0.345,0.549,0.674,0.774,0.986c0.075,0.13,0.113,0.258,0.113,0.388c0,0.063-0.006,0.13-0.017,0.192
			c-0.064,0.205-0.188,0.361-0.371,0.469c-0.119,0.065-0.238,0.098-0.356,0.098c-0.073,0-0.145-0.005-0.209-0.017
			c-0.204-0.063-0.36-0.183-0.47-0.354c-0.086-0.129-0.178-0.265-0.273-0.404c-0.118-0.172-0.178-0.359-0.178-0.563
			c0-0.075,0.005-0.146,0.018-0.211c0.053-0.29,0.209-0.501,0.468-0.63c0.01-0.01,0.013-0.024,0.008-0.041
			c-0.006-0.017-0.014-0.024-0.022-0.024h-0.762c-0.204,0-0.376-0.068-0.517-0.209c-0.14-0.141-0.21-0.31-0.21-0.509
			c0-0.2,0.07-0.369,0.21-0.511c0.141-0.14,0.313-0.209,0.517-0.209h3.151c0.086,0,0.129-0.048,0.129-0.146V2.406
			c0-0.248,0.089-0.461,0.269-0.638c0.177-0.18,0.393-0.269,0.646-0.269c0.252,0,0.467,0.089,0.646,0.269
			c0.177,0.177,0.266,0.39,0.266,0.638V2.664z"/>
		<path fill="#FFFFFF" d="M47.467,8.9c0.139,0.205,0.208,0.432,0.208,0.679c0,0.259-0.074,0.497-0.225,0.712
			c-0.118,0.161-0.271,0.231-0.453,0.21c-0.184-0.021-0.317-0.118-0.403-0.291c-0.119-0.236-0.259-0.507-0.42-0.808
			c-0.012-0.021-0.024-0.03-0.04-0.024c-0.017,0.005-0.025,0.02-0.025,0.04v6.593c0,0.248-0.088,0.458-0.267,0.631
			c-0.177,0.172-0.391,0.259-0.638,0.259c-0.248,0-0.458-0.087-0.63-0.259c-0.174-0.173-0.26-0.383-0.26-0.631v-5.009
			c0-0.011-0.008-0.019-0.023-0.023c-0.017-0.006-0.023,0.002-0.023,0.023c-0.303,0.852-0.607,1.578-0.923,2.182
			c-0.095,0.173-0.236,0.259-0.419,0.259c-0.011,0-0.021,0-0.032,0c-0.205-0.011-0.354-0.107-0.453-0.291
			c-0.148-0.28-0.226-0.554-0.226-0.823c0-0.292,0.076-0.577,0.226-0.856c0.732-1.336,1.298-2.87,1.697-4.604
			c0-0.043-0.011-0.08-0.033-0.113c-0.021-0.032-0.053-0.048-0.096-0.048h-0.776c-0.247,0-0.46-0.089-0.638-0.267
			C42.417,6.26,42.33,6.046,42.33,5.799c0-0.248,0.088-0.461,0.266-0.638c0.178-0.179,0.391-0.268,0.638-0.268h0.923
			c0.106,0,0.16-0.054,0.16-0.162V2.373c0-0.247,0.086-0.457,0.26-0.63c0.172-0.172,0.382-0.258,0.63-0.258
			c0.247,0,0.461,0.086,0.638,0.258c0.179,0.173,0.267,0.383,0.267,0.63v2.358c0,0.108,0.055,0.162,0.162,0.162h0.613
			c0.248,0,0.461,0.089,0.639,0.268c0.18,0.177,0.268,0.39,0.268,0.638c0,0.247-0.088,0.461-0.268,0.64
			c-0.178,0.178-0.391,0.267-0.639,0.267H46.24c-0.087,0-0.13,0.046-0.13,0.138s0.027,0.17,0.081,0.233
			C46.492,7.474,46.917,8.083,47.467,8.9z M55.432,11.535c0,0.215-0.075,0.398-0.227,0.549c-0.151,0.151-0.339,0.228-0.565,0.228
			h-1.001c-0.106,0-0.162,0.054-0.162,0.161v0.55c0,0.106,0.056,0.161,0.162,0.161h2.229c0.226,0,0.418,0.079,0.573,0.233
			c0.155,0.157,0.233,0.348,0.233,0.573s-0.078,0.418-0.233,0.574s-0.349,0.233-0.573,0.233h-2.229
			c-0.106,0-0.162,0.055-0.162,0.162v1.131c0,0.247-0.086,0.457-0.258,0.631c-0.173,0.172-0.381,0.258-0.622,0.258
			c-0.243,0-0.451-0.086-0.623-0.258c-0.172-0.174-0.259-0.384-0.259-0.631V14.96c0-0.107-0.053-0.162-0.161-0.162h-2.262
			c-0.227,0-0.417-0.077-0.574-0.233c-0.155-0.156-0.233-0.349-0.233-0.574s0.078-0.416,0.233-0.573
			c0.157-0.154,0.349-0.233,0.574-0.233h2.262c0.108,0,0.161-0.055,0.161-0.161v-0.55c0-0.107-0.053-0.161-0.161-0.161h-0.711
			c-0.28,0-0.522-0.101-0.727-0.301c-0.205-0.197-0.309-0.442-0.309-0.733c0-0.01-0.01-0.021-0.032-0.032
			c-0.021-0.011-0.038-0.011-0.048,0c-0.291,0.334-0.604,0.646-0.938,0.938c-0.173,0.14-0.366,0.21-0.582,0.21
			c-0.032,0-0.069,0-0.112,0c-0.259-0.033-0.479-0.146-0.663-0.34c-0.173-0.161-0.258-0.355-0.258-0.582
			c0-0.247,0.098-0.452,0.291-0.613c0.549-0.464,1.034-0.977,1.454-1.536c0.01-0.021,0.01-0.044,0-0.071
			c-0.012-0.025-0.027-0.04-0.049-0.04h-0.355c-0.227,0-0.418-0.078-0.573-0.234c-0.156-0.156-0.234-0.349-0.234-0.573
			c0-0.228,0.078-0.417,0.234-0.574c0.155-0.155,0.348-0.232,0.573-0.232h1.243c0.107,0,0.184-0.05,0.228-0.146
			c0.075-0.16,0.146-0.328,0.21-0.5c0.011-0.032,0.006-0.065-0.017-0.098c-0.021-0.031-0.049-0.048-0.081-0.048h-0.533
			c-0.204,0-0.38-0.073-0.524-0.219c-0.146-0.146-0.217-0.32-0.217-0.524s0.07-0.382,0.217-0.534
			c0.146-0.149,0.32-0.226,0.524-0.226h0.921c0.107,0,0.174-0.053,0.194-0.153c0.021-0.104,0.043-0.24,0.064-0.413
			c0.011-0.042,0-0.079-0.032-0.112c-0.032-0.032-0.07-0.049-0.113-0.049h-1.422c-0.227,0-0.418-0.077-0.573-0.234
			c-0.155-0.154-0.232-0.344-0.232-0.563s0.077-0.409,0.232-0.566c0.155-0.154,0.348-0.232,0.573-0.232h1.583
			c0.098,0,0.146-0.049,0.146-0.146v-0.34c0-0.236,0.083-0.441,0.25-0.614c0.167-0.171,0.37-0.258,0.612-0.258
			s0.45,0.087,0.622,0.258c0.172,0.173,0.26,0.378,0.26,0.614v0.34c0,0.098,0.048,0.146,0.146,0.146h3.555
			c0.227,0,0.416,0.078,0.573,0.232c0.155,0.157,0.233,0.347,0.233,0.566s-0.078,0.409-0.233,0.563
			c-0.156,0.153-0.346,0.23-0.572,0.23h-3.652c-0.106,0-0.166,0.055-0.178,0.161c-0.012,0.142-0.026,0.281-0.049,0.422
			c-0.011,0.031-0.003,0.063,0.024,0.096c0.025,0.032,0.062,0.05,0.104,0.05h3.441c0.204,0,0.38,0.075,0.523,0.226
			c0.146,0.151,0.22,0.33,0.22,0.534s-0.073,0.38-0.22,0.524c-0.145,0.146-0.319,0.218-0.523,0.218h-1.067
			c-0.031,0-0.062,0.018-0.089,0.049c-0.026,0.031-0.034,0.069-0.022,0.113c0.043,0.098,0.107,0.252,0.192,0.469
			c0.044,0.107,0.119,0.161,0.228,0.161h1.422c0.226,0,0.418,0.078,0.574,0.233c0.154,0.157,0.233,0.348,0.233,0.574
			c0,0.226-0.079,0.417-0.233,0.573c-0.156,0.156-0.35,0.234-0.574,0.234H56.16c-0.032,0-0.058,0.015-0.073,0.04
			c-0.017,0.027-0.02,0.058-0.008,0.088c0.334,0.485,0.684,0.9,1.051,1.245c0.193,0.184,0.29,0.409,0.29,0.679
			c0,0.227-0.075,0.426-0.227,0.599c-0.184,0.192-0.397,0.307-0.646,0.339c-0.031,0-0.064,0-0.096,0
			c-0.205,0-0.389-0.074-0.551-0.226c-0.141-0.151-0.274-0.309-0.402-0.47c-0.013,0-0.025,0.002-0.041,0.008
			C55.439,11.517,55.432,11.524,55.432,11.535z M50.198,10.679c-0.022,0.031-0.027,0.062-0.018,0.088
			c0.01,0.027,0.031,0.041,0.064,0.041h1.341c0.087,0,0.129-0.037,0.129-0.113v-0.146c0-0.236,0.087-0.439,0.259-0.613
			c0.172-0.171,0.38-0.259,0.623-0.259c0.241,0,0.449,0.088,0.622,0.259c0.172,0.174,0.258,0.377,0.258,0.613v0.146
			c0,0.076,0.043,0.113,0.129,0.113h1.229c0.032,0,0.056-0.014,0.072-0.041c0.017-0.026,0.015-0.057-0.009-0.088
			c-0.279-0.409-0.532-0.852-0.76-1.325c-0.042-0.098-0.117-0.146-0.226-0.146h-2.603c-0.106,0-0.188,0.048-0.242,0.146
			C50.833,9.796,50.542,10.237,50.198,10.679z M53.219,6.963c-0.033-0.107-0.104-0.162-0.211-0.162h-0.743
			c-0.106,0-0.172,0.055-0.193,0.162c-0.043,0.15-0.098,0.308-0.16,0.469c-0.012,0.043-0.007,0.081,0.015,0.112
			c0.022,0.032,0.055,0.049,0.099,0.049h1.229c0.043,0,0.075-0.017,0.097-0.049c0.022-0.031,0.026-0.069,0.018-0.112
			C53.321,7.313,53.272,7.156,53.219,6.963z"/>
	</g>
</g>
<g>
	<g>
		<path fill="#FFFFFF" d="M66.734,17.824h0.416c0.012-0.251,0.018-0.526,0.018-0.827c0-0.164,0.071-0.246,0.215-0.246
			c0.139,0,0.208,0.082,0.208,0.246c0,0.301-0.006,0.576-0.018,0.827h0.832c0.222,0,0.333,0.152,0.333,0.458
			c0,0.538-0.048,1.039-0.143,1.504c-0.1,0.583-0.26,1.119-0.481,1.606c-0.008,0.014-0.017,0.027-0.024,0.041
			c0.096,0.096,0.177,0.183,0.244,0.26c0.254,0.232,0.381,0.419,0.381,0.561c-0.004,0.073-0.022,0.132-0.054,0.178
			c-0.036,0.041-0.083,0.063-0.143,0.068c-0.092,0-0.183-0.046-0.273-0.137c-0.147-0.159-0.288-0.313-0.423-0.458
			c-0.245,0.388-0.543,0.738-0.892,1.053c-0.067,0.041-0.125,0.062-0.173,0.062c-0.158,0-0.237-0.091-0.237-0.273
			c0-0.055,0.023-0.109,0.071-0.164c0.376-0.342,0.678-0.686,0.903-1.032c-0.241-0.269-0.464-0.504-0.666-0.704
			c-0.106-0.118-0.16-0.278-0.16-0.479c0-0.032,0.014-0.094,0.041-0.185c0.167-0.438,0.278-0.846,0.334-1.224
			c0.031-0.187,0.059-0.401,0.083-0.643h-0.393c-0.143,0-0.214-0.082-0.214-0.246S66.591,17.824,66.734,17.824z M67.536,18.316
			c-0.02,0.224-0.046,0.424-0.077,0.602c-0.06,0.347-0.169,0.768-0.327,1.265c-0.028,0.077-0.042,0.139-0.042,0.185
			c0,0.036,0.048,0.107,0.143,0.212c0.19,0.187,0.363,0.357,0.518,0.513c0.198-0.41,0.347-0.887,0.446-1.429
			c0.071-0.446,0.107-0.843,0.107-1.189c0-0.104-0.03-0.157-0.09-0.157H67.536z M71.782,19.731c0.143,0,0.214,0.082,0.214,0.246
			c0,0.169-0.071,0.253-0.214,0.253h-0.624c0.114,0.424,0.172,0.853,0.172,1.285c0,0.273-0.062,0.542-0.184,0.807
			c-0.104,0.237-0.242,0.408-0.417,0.513c-0.154,0.104-0.343,0.157-0.564,0.157c-0.294,0-0.627-0.111-0.999-0.335
			c-0.135-0.05-0.207-0.139-0.215-0.267c0.008-0.191,0.08-0.294,0.215-0.308c0.523,0.241,0.846,0.362,0.969,0.362
			c0.111,0,0.219-0.034,0.321-0.103c0.115-0.063,0.21-0.176,0.285-0.335c0.072-0.15,0.107-0.314,0.107-0.492
			c0-0.451-0.044-0.839-0.131-1.162c-0.012-0.046-0.023-0.087-0.035-0.123h-1.642c-0.143,0-0.214-0.084-0.214-0.253
			c0-0.164,0.071-0.246,0.214-0.246h1.415c-0.044-0.068-0.089-0.137-0.137-0.205c-0.154-0.214-0.327-0.388-0.518-0.52
			c-0.06-0.05-0.089-0.101-0.089-0.15c0.008-0.169,0.095-0.26,0.262-0.273c0.035,0,0.079,0.019,0.131,0.055
			c0.016-0.019,0.035-0.036,0.06-0.055c0.206-0.123,0.358-0.232,0.458-0.328c0.15-0.123,0.279-0.26,0.387-0.41
			c0.083-0.109,0.124-0.183,0.124-0.219c0-0.032-0.021-0.048-0.065-0.048h-1.927c-0.127,0-0.19-0.075-0.19-0.226
			c0-0.142,0.063-0.212,0.19-0.212h2.284c0.206,0,0.31,0.089,0.31,0.267c0,0.101-0.038,0.214-0.113,0.342
			c-0.111,0.205-0.279,0.424-0.506,0.656c-0.21,0.214-0.428,0.396-0.654,0.547c0.079,0.091,0.155,0.187,0.227,0.287
			c0.11,0.155,0.208,0.319,0.291,0.492H71.782z"/>
		<path fill="#FFFFFF" d="M75.764,16.997c0.1,0,0.148,0.057,0.148,0.171c0,0.123-0.049,0.185-0.148,0.185h-0.951v0.328h1.028
			c0.096,0,0.143,0.057,0.143,0.171c0,0.128-0.047,0.191-0.143,0.191h-1.047c0.013,0.032,0.019,0.068,0.019,0.109v0.219h0.928
			c0.099,0,0.148,0.053,0.148,0.157c0,0.132-0.05,0.198-0.148,0.198h-0.928v0.301c0.393-0.027,0.759-0.063,1.1-0.109
			c0.092,0,0.137,0.053,0.137,0.157c0,0.118-0.039,0.185-0.118,0.198c0.004,0.019,0.006,0.036,0.006,0.055
			c0,0.046-0.017,0.089-0.048,0.13c-0.027,0.077-0.06,0.15-0.095,0.219h2.235c0.202,0,0.304,0.091,0.304,0.273v0.991
			c0,0.178-0.102,0.267-0.304,0.267h-1.902v0.39h2.141c0.234,0,0.351,0.118,0.351,0.355v0.52c0,0.323-0.212,0.485-0.636,0.485
			c-0.227,0-0.496-0.025-0.81-0.075c-0.083-0.041-0.124-0.104-0.124-0.191c0-0.164,0.049-0.246,0.148-0.246
			c0.048,0,0.106,0.007,0.179,0.021c0.237,0.041,0.424,0.062,0.559,0.062c0.175,0,0.262-0.082,0.262-0.246v-0.082
			c0-0.132-0.042-0.198-0.125-0.198h-1.944v0.882c0,0.164-0.071,0.246-0.215,0.246c-0.143,0-0.214-0.082-0.214-0.246v-0.882h-1.855
			c-0.083,0-0.125,0.066-0.125,0.198v0.52c0,0.159-0.071,0.239-0.214,0.239s-0.214-0.08-0.214-0.239v-0.766
			c0-0.237,0.129-0.355,0.387-0.355h2.021v-0.39h-1.832c-0.206,0-0.309-0.089-0.309-0.267V19.95c0-0.183,0.103-0.273,0.309-0.273
			h1.47c0.023-0.036,0.045-0.073,0.065-0.109c0.043-0.087,0.083-0.171,0.118-0.253c-0.729,0.077-1.431,0.137-2.104,0.178
			c-0.115,0-0.173-0.073-0.173-0.219c0-0.128,0.058-0.193,0.173-0.198c0.349-0.005,0.682-0.014,0.999-0.027v-0.321h-0.91
			c-0.092,0-0.137-0.066-0.137-0.198c0-0.104,0.045-0.157,0.137-0.157h0.91v-0.219c0-0.046,0.006-0.082,0.018-0.109h-0.999
			c-0.096,0-0.143-0.063-0.143-0.191c0-0.114,0.047-0.171,0.143-0.171h0.981v-0.328h-0.887c-0.091,0-0.137-0.062-0.137-0.185
			c0-0.114,0.046-0.171,0.137-0.171h0.887v-0.13c0-0.146,0.063-0.219,0.19-0.219c0.139,0,0.208,0.073,0.208,0.219v0.13H75.764z
			 M73.98,20.278h3.932v-0.13c0-0.096-0.019-0.144-0.054-0.144h-3.83c-0.032,0-0.048,0.048-0.048,0.144V20.278z M77.858,20.88
			c0.035,0,0.054-0.043,0.054-0.13v-0.171H73.98v0.171c0,0.087,0.016,0.13,0.048,0.13H77.858z M78.595,17.298
			c0.115,0,0.173,0.066,0.173,0.198c0,0.142-0.058,0.212-0.173,0.212h-0.327v1.148c0,0.424-0.167,0.636-0.5,0.636
			c-0.237,0-0.515-0.048-0.832-0.144c-0.115-0.027-0.173-0.091-0.173-0.191c0.008-0.15,0.073-0.23,0.196-0.239
			c0.417,0.087,0.662,0.13,0.737,0.13c0.107,0,0.161-0.091,0.161-0.273v-1.066h-1.469c-0.111,0-0.167-0.07-0.167-0.212
			c0-0.132,0.056-0.198,0.167-0.198h1.469v-0.376c0-0.132,0.063-0.198,0.19-0.198c0.146,0,0.22,0.066,0.22,0.198v0.376H78.595z
			 M76.763,17.824c0.036,0,0.077,0.025,0.125,0.075c0.1,0.169,0.194,0.36,0.285,0.574c0.017,0.055,0.024,0.103,0.024,0.144
			c0,0.123-0.063,0.185-0.19,0.185c-0.04,0-0.079-0.009-0.119-0.027c-0.091-0.205-0.187-0.405-0.285-0.602
			c-0.036-0.06-0.054-0.103-0.054-0.13C76.549,17.897,76.62,17.824,76.763,17.824z"/>
		<path fill="#FFFFFF" d="M84.794,16.696c0.144,0,0.215,0.101,0.215,0.301c0,0.137-0.094,0.221-0.28,0.253
			c-0.52,0.087-1.215,0.169-2.087,0.246c0.11,0.205,0.206,0.436,0.285,0.69c0.04,0.114,0.075,0.228,0.107,0.342h2.052
			c0.139,0,0.208,0.082,0.208,0.246c0,0.169-0.069,0.253-0.208,0.253h-1.939c0.021,0.114,0.04,0.23,0.06,0.349
			c0.036,0.296,0.063,0.588,0.084,0.875h2.004c0.143,0,0.214,0.084,0.214,0.253c0,0.183-0.071,0.273-0.214,0.273H83.32
			c0.004,0.137,0.006,0.271,0.006,0.403c0,0.36-0.06,0.718-0.179,1.073c-0.103,0.31-0.241,0.531-0.416,0.663
			c-0.15,0.142-0.335,0.212-0.553,0.212c-0.277,0-0.595-0.109-0.952-0.328c-0.118-0.055-0.18-0.146-0.184-0.273
			c0.004-0.173,0.065-0.265,0.184-0.273c0.5,0.232,0.812,0.349,0.935,0.349c0.106,0,0.21-0.046,0.309-0.137
			c0.119-0.109,0.214-0.285,0.286-0.526c0.079-0.219,0.118-0.472,0.118-0.759c0-0.137-0.002-0.271-0.006-0.403H80.09
			c-0.146,0-0.22-0.091-0.22-0.273c0-0.169,0.073-0.253,0.22-0.253h2.76c-0.012-0.228-0.027-0.439-0.048-0.636
			c-0.027-0.205-0.06-0.401-0.095-0.588h-2.355c-0.146,0-0.22-0.084-0.22-0.253c0-0.164,0.073-0.246,0.22-0.246h2.242
			c-0.004-0.009-0.008-0.021-0.012-0.034c-0.083-0.287-0.175-0.52-0.273-0.697c-0.04-0.068-0.06-0.135-0.06-0.198
			c0-0.027,0.004-0.053,0.012-0.075c-0.872,0.068-1.486,0.103-1.844,0.103c-0.175,0-0.262-0.091-0.262-0.273
			c0-0.164,0.073-0.246,0.221-0.246c0.772-0.009,1.484-0.041,2.135-0.096C83.331,16.951,84.093,16.846,84.794,16.696z"/>
	</g>
	<path fill="none" stroke="#FFFFFF" stroke-width="0.5" stroke-miterlimit="10" d="M89.347,19.888c0,2.612-2.117,4.729-4.729,4.729
		h-17.21c-2.611,0-4.729-2.116-4.729-4.729l0,0c0-2.611,2.117-4.729,4.729-4.729h17.21C87.23,15.16,89.347,17.277,89.347,19.888
		L89.347,19.888z"/>
</g>
</svg>
