<?xml version="1.0" encoding="utf-8"?>
<!-- Generator: Adobe Illustrator 16.0.0, SVG Export Plug-In . SVG Version: 6.00 Build 0)  -->
<!DOCTYPE svg PUBLIC "-//W3C//DTD SVG 1.1//EN" "http://www.w3.org/Graphics/SVG/1.1/DTD/svg11.dtd">
<svg version="1.1" id="圖層_1" xmlns="http://www.w3.org/2000/svg" xmlns:xlink="http://www.w3.org/1999/xlink" x="0px" y="0px"
	 width="40.083px" height="41.454px" viewBox="0 0 40.083 41.454" enable-background="new 0 0 40.083 41.454" xml:space="preserve">
<g>
	<g>
		<g>
			<path fill="#F2F2F2" d="M28.358,2.995c-1.814-1.108-4.205-1.646-7.31-1.646h-2.811h-0.412c-0.186,0-0.378,0.003-0.574,0.01
				c-1.86,0.107-2.339,1.093-2.46,1.639l-0.041,0.36l0,0l-0.167,1.477l-0.119,1.052l-0.34,2.997l-1.612,14.24
				c-0.124,1.1-0.038,1.83,0.258,2.191c0.296,0.363,0.993,0.544,2.093,0.544h4.01c2.272,0,4.094-0.413,5.461-1.236
				c1.662-1,2.616-2.586,2.862-4.76c0.104-0.924-0.005-1.78-0.328-2.566c-0.322-0.787-0.848-1.393-1.573-1.817
				c0.702-0.475,1.235-1.043,1.598-1.705c0.361-0.662,0.592-1.418,0.688-2.268c0.24-2.122-0.398-3.646-1.918-4.571
				c-0.91-0.556-2.178-0.89-3.801-1.004c-0.006-0.001-0.011-0.002-0.018-0.003c-0.033-0.002-0.079-0.005-0.132-0.008
				c-0.003-0.001-0.007-0.001-0.011-0.001c-0.247-0.014-0.656-0.031-0.879-0.041c-0.047-0.004-0.095-0.007-0.144-0.007
				c-0.002,0-0.004,0.001-0.006,0.001c-0.004,0-0.006,0-0.006,0h0.001c-0.911,0.006-1.611,0.678-1.566,1.505
				c0.042,0.783,0.735,1.426,1.581,1.499l-0.001,0.007h0.788c0.975,0,1.739,0.244,2.297,0.731c0.557,0.486,0.781,1.205,0.674,2.154
				s-0.494,1.661-1.159,2.136c-0.667,0.475-1.486,0.712-2.461,0.712h-0.905l0,0c-0.001,0-0.001,0-0.001,0h-0.27
				c-0.642,0.067-1.196,0.604-1.271,1.256c-0.073,0.65,0.357,1.186,0.981,1.255h0.28h1.2c0.949,0,1.708,0.25,2.275,0.75
				c0.568,0.5,0.8,1.211,0.695,2.136c-0.104,0.924-0.498,1.636-1.179,2.136c-0.682,0.5-1.496,0.749-2.445,0.749h-4.385l0.499-4.399
				l0.155-1.371l0.284-2.511l0.648-5.733l0.34-2.997l0.179-1.573h2.81c2.575,0,4.499,0.411,5.886,1.257
				c1.976,1.202,2.858,3.255,2.555,5.937c-0.12,1.063-0.419,2.035-0.888,2.893c-0.034,0.062-0.069,0.123-0.105,0.185l-0.445,0.753
				l0.379,0.699c0.092,0.169,0.176,0.347,0.251,0.53c0.415,1.011,0.558,2.12,0.425,3.297c-0.31,2.732-1.565,4.778-3.734,6.082
				c-1.659,1-3.733,1.487-6.34,1.487h-4.01c-1.087,0-2.432-0.12-3.189-1.047c-0.729-0.891-0.667-2.288-0.557-3.262l1.612-14.24
				l0.019-0.273c0.019-0.104,0.026-0.212,0.021-0.324c0-0.002,0-0.005,0-0.007c-0.044-0.801-0.729-1.451-1.53-1.451
				c-0.516,0-0.952,0.27-1.188,0.675c-0.093,0.16-0.153,0.34-0.176,0.534C9.694,8.05,9.691,8.063,9.69,8.071
				C9.662,8.26,9.638,8.446,9.618,8.621l-0.03,0.262l-1.612,14.24c-0.166,1.475-0.232,3.627,1.123,5.281
				c1.626,1.99,4.354,1.99,5.251,1.99h4.01c3.196,0,5.814-0.642,8.002-1.961c2.155-1.294,4.835-3.833,5.371-8.571
				c0.188-1.661-0.016-3.233-0.606-4.673c-0.011-0.026-0.022-0.054-0.034-0.08c0.535-1.107,0.88-2.317,1.025-3.604
				C32.542,7.751,31.207,4.728,28.358,2.995z"/>
		</g>
		<g>
			<g>
				<path fill="#F2F2F2" d="M8.761,3.347c0.094,0.19,0.176,0.367,0.325,0.521c0.21,0.216,0.471,0.389,0.727,0.545
					c0.314,0.192,0.631,0.383,0.946,0.574c0.233,0.142,0.466,0.283,0.698,0.425c0.929,0.567,1.691,0.123,1.695-0.987
					c0.001-0.452,0.003-0.904,0.004-1.356c0-0.324,0.018-0.654-0.016-0.978c-0.032-0.316-0.116-0.627-0.279-0.901
					c-0.092-0.156-0.192-0.307-0.313-0.442c-0.165-0.185-0.367-0.331-0.583-0.449c-0.443-0.242-0.945-0.348-1.447-0.276
					C10.239,0.061,9.951,0.16,9.705,0.297C9.263,0.545,8.891,0.947,8.7,1.416c-0.183,0.45-0.245,0.985-0.122,1.458
					C8.621,3.038,8.687,3.196,8.761,3.347z M10.875,1.432c0.506,0,0.915,0.41,0.915,0.915c0,0.506-0.409,0.915-0.915,0.915
					c-0.505,0-0.915-0.409-0.915-0.915C9.96,1.842,10.37,1.432,10.875,1.432z"/>
			</g>
		</g>
	</g>
</g>
<g>
	<g>
		<path fill="#F2F2F2" d="M4.512,37.27c0.19,0.256,0.286,0.569,0.286,0.938c0,0.513-0.184,0.914-0.551,1.204
			s-0.873,0.436-1.515,0.436H0.529c-0.165,0-0.294-0.046-0.388-0.137C0.047,39.621,0,39.493,0,39.328V34.35
			c0-0.165,0.047-0.293,0.141-0.384c0.094-0.092,0.223-0.137,0.388-0.137h2.117c0.626,0,1.117,0.138,1.473,0.414
			c0.355,0.275,0.533,0.661,0.533,1.156c0,0.319-0.084,0.595-0.252,0.828c-0.167,0.233-0.4,0.404-0.695,0.513
			C4.052,36.837,4.321,37.013,4.512,37.27z M1.076,36.365h1.392c0.757,0,1.136-0.281,1.136-0.845c0-0.285-0.094-0.495-0.282-0.632
			c-0.188-0.137-0.473-0.205-0.854-0.205H1.076V36.365z M3.483,38.781c0.182-0.143,0.273-0.364,0.273-0.666
			c0-0.301-0.093-0.526-0.278-0.674c-0.185-0.148-0.474-0.223-0.867-0.223H1.076v1.776h1.537
			C3.011,38.995,3.301,38.923,3.483,38.781z"/>
		<path fill="#F2F2F2" d="M6.519,39.652c-0.322-0.177-0.571-0.43-0.747-0.76c-0.177-0.33-0.265-0.714-0.265-1.152
			s0.088-0.821,0.265-1.148c0.176-0.327,0.425-0.579,0.747-0.756c0.321-0.177,0.695-0.265,1.122-0.265
			c0.428,0,0.802,0.088,1.123,0.265s0.569,0.429,0.743,0.756c0.173,0.327,0.26,0.71,0.26,1.148s-0.087,0.822-0.26,1.152
			c-0.174,0.33-0.422,0.583-0.743,0.76c-0.321,0.176-0.695,0.265-1.123,0.265C7.214,39.917,6.84,39.828,6.519,39.652z M8.427,38.747
			C8.608,38.519,8.7,38.183,8.7,37.74c0-0.438-0.092-0.773-0.273-1.004c-0.183-0.23-0.444-0.346-0.786-0.346
			c-0.341,0-0.604,0.115-0.789,0.346c-0.186,0.23-0.277,0.565-0.277,1.004c0,0.443,0.091,0.779,0.272,1.007
			c0.183,0.228,0.444,0.342,0.786,0.342C7.979,39.088,8.244,38.974,8.427,38.747z"/>
		<path fill="#F2F2F2" d="M14.334,35.724c0.097,0.092,0.146,0.214,0.146,0.367v3.313c0,0.148-0.05,0.268-0.149,0.359
			c-0.1,0.091-0.229,0.136-0.389,0.136c-0.153,0-0.275-0.042-0.367-0.128c-0.091-0.085-0.137-0.201-0.137-0.35v-0.214
			c-0.131,0.229-0.307,0.403-0.529,0.525c-0.222,0.122-0.472,0.184-0.751,0.184c-1.024,0-1.536-0.575-1.536-1.725v-2.101
			c0-0.153,0.048-0.275,0.145-0.367c0.097-0.091,0.225-0.136,0.385-0.136c0.164,0,0.296,0.045,0.393,0.136
			c0.097,0.092,0.145,0.214,0.145,0.367v2.109c0,0.296,0.061,0.515,0.18,0.657c0.119,0.142,0.308,0.213,0.563,0.213
			c0.296,0,0.533-0.098,0.713-0.294c0.179-0.196,0.269-0.457,0.269-0.781v-1.904c0-0.153,0.049-0.275,0.146-0.367
			c0.097-0.091,0.225-0.136,0.384-0.136C14.106,35.588,14.237,35.633,14.334,35.724z"/>
		<path fill="#F2F2F2" d="M19.133,35.998c0.244,0.285,0.366,0.715,0.366,1.289v2.101c0,0.159-0.047,0.284-0.141,0.376
			c-0.094,0.091-0.224,0.136-0.389,0.136s-0.296-0.045-0.393-0.136c-0.097-0.092-0.145-0.217-0.145-0.376v-2.04
			c0-0.325-0.062-0.562-0.184-0.709c-0.123-0.148-0.314-0.222-0.576-0.222c-0.308,0-0.554,0.097-0.739,0.29
			c-0.185,0.193-0.277,0.452-0.277,0.776v1.904c0,0.159-0.048,0.284-0.145,0.376c-0.097,0.091-0.228,0.136-0.394,0.136
			c-0.165,0-0.294-0.045-0.388-0.136c-0.094-0.092-0.142-0.217-0.142-0.376v-3.304c0-0.148,0.049-0.268,0.146-0.359
			c0.097-0.091,0.228-0.136,0.393-0.136c0.148,0,0.27,0.044,0.363,0.132c0.094,0.089,0.141,0.204,0.141,0.346v0.23
			c0.143-0.233,0.333-0.412,0.572-0.538c0.239-0.125,0.509-0.188,0.811-0.188C18.515,35.571,18.888,35.713,19.133,35.998z"/>
		<path fill="#F2F2F2" d="M25.189,37.27c0.19,0.256,0.286,0.569,0.286,0.938c0,0.513-0.184,0.914-0.551,1.204
			s-0.872,0.436-1.516,0.436h-2.202c-0.165,0-0.295-0.046-0.389-0.137s-0.141-0.219-0.141-0.384V34.35
			c0-0.165,0.047-0.293,0.141-0.384c0.094-0.092,0.224-0.137,0.389-0.137h2.117c0.626,0,1.117,0.138,1.473,0.414
			c0.355,0.275,0.533,0.661,0.533,1.156c0,0.319-0.084,0.595-0.251,0.828c-0.168,0.233-0.4,0.404-0.696,0.513
			C24.729,36.837,24.999,37.013,25.189,37.27z M21.753,36.365h1.392c0.757,0,1.136-0.281,1.136-0.845
			c0-0.285-0.094-0.495-0.281-0.632c-0.188-0.137-0.473-0.205-0.854-0.205h-1.392V36.365z M24.161,38.781
			c0.182-0.143,0.272-0.364,0.272-0.666c0-0.301-0.092-0.526-0.277-0.674c-0.185-0.148-0.474-0.223-0.866-0.223h-1.537v1.776h1.537
			C23.688,38.995,23.979,38.923,24.161,38.781z"/>
		<path fill="#F2F2F2" d="M29.518,36.002c0.282,0.287,0.423,0.724,0.423,1.311v2.083c0,0.153-0.046,0.274-0.137,0.362
			c-0.091,0.089-0.216,0.133-0.375,0.133c-0.148,0-0.27-0.046-0.363-0.137s-0.141-0.211-0.141-0.358v-0.188
			c-0.097,0.223-0.249,0.396-0.457,0.521c-0.208,0.126-0.448,0.188-0.722,0.188c-0.278,0-0.532-0.057-0.76-0.171
			c-0.228-0.113-0.406-0.271-0.537-0.47c-0.132-0.199-0.196-0.421-0.196-0.666c0-0.307,0.078-0.549,0.234-0.726
			c0.156-0.176,0.411-0.304,0.764-0.384c0.354-0.08,0.84-0.12,1.46-0.12h0.214v-0.196c0-0.278-0.06-0.481-0.18-0.61
			c-0.119-0.128-0.313-0.191-0.58-0.191c-0.165,0-0.333,0.023-0.504,0.072s-0.373,0.118-0.606,0.209
			c-0.147,0.074-0.256,0.111-0.324,0.111c-0.103,0-0.187-0.037-0.252-0.111s-0.098-0.171-0.098-0.29
			c0-0.097,0.023-0.181,0.072-0.252c0.048-0.071,0.13-0.138,0.243-0.201c0.199-0.107,0.437-0.193,0.713-0.256
			s0.548-0.094,0.815-0.094C28.805,35.571,29.236,35.714,29.518,36.002z M28.656,38.862c0.179-0.19,0.269-0.437,0.269-0.738v-0.179
			h-0.153c-0.382,0-0.678,0.017-0.889,0.051c-0.21,0.034-0.361,0.094-0.452,0.179c-0.091,0.086-0.137,0.202-0.137,0.351
			c0,0.183,0.064,0.331,0.192,0.448c0.128,0.116,0.286,0.175,0.474,0.175C28.244,39.148,28.477,39.053,28.656,38.862z"/>
		<path fill="#F2F2F2" d="M34.567,35.998c0.245,0.285,0.367,0.715,0.367,1.289v2.101c0,0.159-0.047,0.284-0.141,0.376
			c-0.094,0.091-0.224,0.136-0.388,0.136c-0.166,0-0.297-0.045-0.394-0.136c-0.097-0.092-0.145-0.217-0.145-0.376v-2.04
			c0-0.325-0.062-0.562-0.184-0.709c-0.123-0.148-0.314-0.222-0.576-0.222c-0.308,0-0.554,0.097-0.739,0.29
			c-0.185,0.193-0.277,0.452-0.277,0.776v1.904c0,0.159-0.048,0.284-0.145,0.376c-0.098,0.091-0.229,0.136-0.394,0.136
			s-0.294-0.045-0.388-0.136c-0.094-0.092-0.142-0.217-0.142-0.376v-3.304c0-0.148,0.049-0.268,0.146-0.359
			c0.097-0.091,0.228-0.136,0.393-0.136c0.148,0,0.27,0.044,0.363,0.132c0.094,0.089,0.141,0.204,0.141,0.346v0.23
			c0.143-0.233,0.333-0.412,0.572-0.538c0.238-0.125,0.509-0.188,0.811-0.188C33.95,35.571,34.323,35.713,34.567,35.998z"/>
		<path fill="#F2F2F2" d="M39.938,35.724c0.097,0.092,0.146,0.214,0.146,0.367v3.373c0,0.654-0.183,1.149-0.546,1.485
			c-0.365,0.336-0.902,0.504-1.614,0.504c-0.62,0-1.138-0.117-1.554-0.351c-0.211-0.125-0.315-0.276-0.315-0.452
			c0-0.126,0.029-0.226,0.089-0.299c0.06-0.074,0.139-0.111,0.235-0.111c0.051,0,0.113,0.013,0.188,0.038
			c0.074,0.026,0.15,0.056,0.23,0.09c0.205,0.086,0.389,0.151,0.551,0.196c0.162,0.046,0.349,0.068,0.56,0.068
			c0.745,0,1.118-0.364,1.118-1.093v-0.546c-0.125,0.233-0.308,0.414-0.547,0.542c-0.238,0.128-0.512,0.191-0.819,0.191
			c-0.364,0-0.688-0.086-0.969-0.26c-0.282-0.174-0.502-0.417-0.661-0.73c-0.16-0.313-0.24-0.674-0.24-1.084
			c0-0.409,0.079-0.772,0.235-1.088c0.156-0.316,0.377-0.561,0.662-0.734c0.284-0.174,0.608-0.261,0.973-0.261
			c0.308,0,0.581,0.064,0.819,0.192c0.239,0.128,0.422,0.309,0.547,0.542v-0.222c0-0.148,0.048-0.268,0.146-0.359
			c0.097-0.091,0.225-0.136,0.384-0.136S39.841,35.633,39.938,35.724z M38.738,38.568c0.19-0.223,0.286-0.526,0.286-0.914
			c0-0.393-0.096-0.7-0.286-0.922s-0.457-0.333-0.798-0.333c-0.336,0-0.601,0.111-0.794,0.333c-0.194,0.222-0.291,0.529-0.291,0.922
			c0,0.388,0.097,0.691,0.291,0.914c0.193,0.222,0.458,0.333,0.794,0.333C38.281,38.901,38.548,38.79,38.738,38.568z"/>
	</g>
</g>
<g>
	<g>
		<path fill="#F2F2F2" d="M34.723,31.744c0.098,0,0.182,0.035,0.251,0.104s0.104,0.153,0.104,0.251v0.176
			c0,0.106-0.015,0.187-0.044,0.241c-0.03,0.054-0.085,0.098-0.164,0.131c-0.098,0.032-0.245,0.05-0.441,0.053h-0.004
			c-0.054,0-0.106-0.018-0.155-0.053c-0.046-0.036-0.082-0.082-0.105-0.14c-0.02-0.041-0.017-0.08,0.008-0.118
			s0.059-0.057,0.102-0.057c0.044,0,0.082,0,0.115,0c0.057,0,0.098,0,0.122,0c0.03,0,0.051-0.005,0.062-0.013
			s0.016-0.024,0.016-0.049v-0.14c0-0.026-0.014-0.04-0.04-0.04h-0.866c-0.027,0-0.041,0.014-0.041,0.04v0.372
			c0,0.065-0.023,0.122-0.069,0.17c-0.047,0.048-0.104,0.071-0.172,0.071s-0.125-0.023-0.171-0.071
			c-0.047-0.048-0.07-0.104-0.07-0.17v-0.372c0-0.026-0.014-0.04-0.041-0.04h-0.779c-0.027,0-0.041,0.014-0.041,0.04v0.307
			c0,0.065-0.024,0.122-0.071,0.17c-0.048,0.047-0.105,0.071-0.172,0.071s-0.123-0.024-0.17-0.071
			c-0.046-0.048-0.069-0.104-0.069-0.17v-0.339c0-0.098,0.035-0.182,0.104-0.251s0.153-0.104,0.251-0.104h0.947
			c0.027,0,0.041-0.014,0.041-0.04v-0.042c0-0.026-0.014-0.04-0.041-0.04h-0.714c-0.099,0-0.183-0.035-0.252-0.104
			s-0.104-0.153-0.104-0.251v-0.319c0-0.098,0.034-0.182,0.104-0.251s0.153-0.104,0.252-0.104h0.751c0.027,0,0.045-0.014,0.054-0.04
			c0.024-0.055,0.04-0.093,0.049-0.114c0.003-0.009,0.001-0.017-0.004-0.025c-0.006-0.008-0.014-0.012-0.024-0.012
			c-0.088,0.008-0.218,0.019-0.391,0.032s-0.31,0.024-0.41,0.031c-0.102,0.007-0.218,0.015-0.35,0.024s-0.248,0.017-0.35,0.022
			c-0.041,0.003-0.077-0.01-0.11-0.037c-0.035-0.03-0.053-0.067-0.053-0.114c0-0.035,0.012-0.066,0.037-0.094
			c0.027-0.03,0.061-0.046,0.102-0.049c0.174-0.009,0.353-0.018,0.535-0.029c0.024-0.002,0.037-0.018,0.037-0.044v-0.062
			c0-0.027-0.014-0.041-0.041-0.041h-0.437c-0.036,0-0.066-0.013-0.091-0.037s-0.036-0.055-0.036-0.09s0.012-0.065,0.036-0.09
			s0.055-0.037,0.091-0.037h0.437c0.027,0,0.041-0.014,0.041-0.041v-0.04c0-0.027-0.014-0.041-0.041-0.041h-0.535
			c-0.035,0-0.065-0.012-0.09-0.035c-0.024-0.022-0.037-0.051-0.037-0.086c0-0.033,0.013-0.063,0.037-0.087s0.055-0.037,0.09-0.037
			h0.535c0.027,0,0.041-0.014,0.041-0.041v-0.045c0-0.027-0.014-0.041-0.041-0.041h-0.384c-0.033,0-0.062-0.012-0.086-0.034
			c-0.024-0.023-0.037-0.052-0.037-0.086s0.013-0.063,0.037-0.086s0.053-0.035,0.086-0.035h0.404c0.014,0,0.021-0.008,0.021-0.024
			c0-0.052,0.019-0.097,0.057-0.135s0.085-0.057,0.14-0.057h0.069c0.055,0,0.101,0.019,0.139,0.057s0.058,0.083,0.058,0.135
			c0,0.017,0.008,0.024,0.024,0.024h0.417c0.032,0,0.06,0.012,0.083,0.035s0.034,0.052,0.034,0.086s-0.011,0.063-0.034,0.086
			c-0.023,0.022-0.051,0.034-0.083,0.034h-0.4c-0.028,0-0.041,0.014-0.041,0.041v0.045c0,0.027,0.013,0.041,0.041,0.041h0.522
			c0.032,0,0.062,0.013,0.085,0.037c0.025,0.024,0.037,0.054,0.037,0.087c0,0.035-0.012,0.063-0.037,0.086
			c-0.023,0.023-0.053,0.035-0.085,0.035h-0.522c-0.028,0-0.041,0.014-0.041,0.041v0.04c0,0.027,0.013,0.041,0.041,0.041h0.449
			c0.034,0,0.064,0.013,0.09,0.037c0.024,0.024,0.036,0.055,0.036,0.09s-0.012,0.065-0.036,0.09
			c-0.025,0.024-0.056,0.037-0.09,0.037h-0.449c-0.028,0-0.041,0.014-0.041,0.041v0.032c0,0.011,0.004,0.021,0.012,0.029
			c0.008,0.008,0.018,0.012,0.029,0.012l0.474-0.028c0.005,0,0.01,0,0.012,0c0.052,0,0.097,0.019,0.135,0.057
			c0.041,0.038,0.062,0.085,0.062,0.14c0,0.019,0.008,0.031,0.024,0.036l0.086,0.021c0.044,0.008,0.074,0.033,0.092,0.075
			c0.018,0.043,0.015,0.081-0.011,0.117c-0.002,0.005-0.002,0.01,0,0.014c0.003,0.004,0.006,0.006,0.009,0.006h0.829
			c0.098,0,0.182,0.035,0.251,0.104c0.07,0.069,0.104,0.153,0.104,0.251v0.319c0,0.098-0.034,0.182-0.104,0.251
			c-0.069,0.069-0.153,0.104-0.251,0.104h-0.809c-0.027,0-0.041,0.014-0.041,0.04v0.042c0,0.026,0.014,0.04,0.041,0.04H34.723z
			 M32.528,30.853c-0.027,0-0.041,0.014-0.041,0.041v0.049c0,0.027,0.014,0.041,0.041,0.041h1.818c0.027,0,0.041-0.014,0.041-0.041
			v-0.049c0-0.027-0.014-0.041-0.041-0.041H32.528z M32.528,31.221c-0.027,0-0.041,0.014-0.041,0.04v0.054
			c0,0.027,0.014,0.041,0.041,0.041h1.818c0.027,0,0.041-0.014,0.041-0.041v-0.054c0-0.026-0.014-0.04-0.041-0.04H32.528z
			 M34.918,29.133c0,0.024,0.012,0.037,0.033,0.037h0.176c0.052,0,0.095,0.018,0.131,0.053c0.035,0.035,0.053,0.078,0.053,0.129
			c0,0.05-0.018,0.093-0.053,0.129c-0.036,0.035-0.079,0.053-0.131,0.053h-0.168c-0.027,0-0.041,0.014-0.041,0.041v0.552
			c0,0.101-0.013,0.176-0.038,0.227c-0.026,0.05-0.072,0.09-0.138,0.12c-0.086,0.033-0.211,0.052-0.371,0.058
			c-0.003,0-0.006,0-0.008,0c-0.053,0-0.102-0.017-0.147-0.049c-0.049-0.033-0.085-0.078-0.106-0.136
			c-0.02-0.037-0.017-0.076,0.006-0.114c0.023-0.038,0.059-0.057,0.104-0.057c0.052,0,0.108,0,0.172,0
			c0.024,0,0.041-0.004,0.051-0.013c0.01-0.008,0.015-0.024,0.015-0.049v-0.539c0-0.027-0.015-0.041-0.041-0.041h-0.454
			c-0.008,0-0.013,0.004-0.016,0.01c-0.003,0.008-0.002,0.014,0.004,0.019c0.073,0.087,0.139,0.171,0.196,0.25
			c0.019,0.032,0.028,0.064,0.028,0.098c0,0.017-0.001,0.032-0.004,0.049c-0.017,0.052-0.048,0.092-0.094,0.118
			c-0.03,0.017-0.061,0.024-0.091,0.024c-0.019,0-0.036-0.001-0.053-0.004c-0.052-0.016-0.091-0.046-0.118-0.09
			c-0.022-0.032-0.045-0.066-0.069-0.103c-0.03-0.043-0.045-0.091-0.045-0.142c0-0.02,0.001-0.038,0.004-0.054
			c0.014-0.073,0.053-0.127,0.118-0.159c0.003-0.003,0.004-0.007,0.002-0.011c-0.001-0.004-0.003-0.006-0.006-0.006h-0.192
			c-0.052,0-0.095-0.018-0.13-0.053c-0.036-0.036-0.054-0.079-0.054-0.129c0-0.051,0.018-0.094,0.054-0.129
			c0.035-0.035,0.078-0.053,0.13-0.053h0.797c0.021,0,0.033-0.013,0.033-0.037v-0.065c0-0.063,0.022-0.116,0.067-0.161
			c0.044-0.045,0.099-0.067,0.163-0.067c0.063,0,0.118,0.022,0.163,0.067s0.067,0.099,0.067,0.161V29.133z"/>
		<path fill="#F2F2F2" d="M37.542,30.71c0.035,0.052,0.053,0.108,0.053,0.171c0,0.065-0.019,0.126-0.057,0.181
			c-0.03,0.04-0.068,0.059-0.114,0.053c-0.047-0.006-0.081-0.03-0.103-0.073c-0.03-0.061-0.065-0.129-0.106-0.205
			c-0.003-0.005-0.006-0.007-0.01-0.006c-0.004,0.002-0.006,0.005-0.006,0.011v1.666c0,0.063-0.022,0.116-0.068,0.16
			c-0.044,0.043-0.099,0.065-0.161,0.065s-0.115-0.022-0.159-0.065c-0.044-0.044-0.065-0.098-0.065-0.16v-1.266
			c0-0.003-0.002-0.005-0.006-0.007c-0.004-0.001-0.006,0.001-0.006,0.007c-0.076,0.215-0.154,0.398-0.233,0.551
			c-0.024,0.044-0.06,0.065-0.105,0.065c-0.003,0-0.006,0-0.009,0c-0.052-0.003-0.09-0.026-0.114-0.073
			c-0.038-0.071-0.057-0.14-0.057-0.208c0-0.074,0.019-0.146,0.057-0.217c0.185-0.338,0.328-0.726,0.429-1.164
			c0-0.011-0.003-0.021-0.008-0.029c-0.006-0.008-0.014-0.012-0.024-0.012h-0.196c-0.063,0-0.116-0.022-0.161-0.067
			s-0.067-0.099-0.067-0.161c0-0.063,0.022-0.117,0.067-0.161c0.045-0.046,0.099-0.068,0.161-0.068h0.232
			c0.027,0,0.041-0.013,0.041-0.041V29.06c0-0.063,0.021-0.116,0.065-0.159c0.044-0.044,0.097-0.065,0.159-0.065
			s0.117,0.021,0.161,0.065c0.046,0.043,0.068,0.097,0.068,0.159v0.596c0,0.028,0.013,0.041,0.04,0.041h0.155
			c0.063,0,0.117,0.022,0.161,0.068c0.046,0.044,0.067,0.098,0.067,0.161c0,0.063-0.021,0.116-0.067,0.161
			c-0.044,0.045-0.099,0.067-0.161,0.067h-0.163c-0.021,0-0.032,0.012-0.032,0.034c0,0.023,0.006,0.043,0.021,0.06
			C37.295,30.349,37.403,30.503,37.542,30.71z M39.556,31.376c0,0.054-0.019,0.101-0.058,0.139
			c-0.038,0.038-0.085,0.058-0.143,0.058h-0.253c-0.027,0-0.041,0.013-0.041,0.04v0.14c0,0.026,0.014,0.04,0.041,0.04h0.563
			c0.058,0,0.105,0.021,0.146,0.06c0.039,0.04,0.059,0.088,0.059,0.145c0,0.058-0.02,0.106-0.059,0.146
			c-0.04,0.04-0.088,0.06-0.146,0.06h-0.563c-0.027,0-0.041,0.014-0.041,0.041v0.285c0,0.063-0.021,0.116-0.065,0.16
			c-0.044,0.043-0.096,0.064-0.157,0.064s-0.113-0.021-0.157-0.064c-0.044-0.044-0.065-0.098-0.065-0.16v-0.285
			c0-0.027-0.014-0.041-0.041-0.041h-0.571c-0.058,0-0.105-0.02-0.146-0.06c-0.039-0.039-0.059-0.088-0.059-0.146
			c0-0.057,0.02-0.104,0.059-0.145c0.04-0.039,0.088-0.06,0.146-0.06h0.571c0.027,0,0.041-0.014,0.041-0.04v-0.14
			c0-0.027-0.014-0.04-0.041-0.04h-0.18c-0.07,0-0.132-0.025-0.184-0.076s-0.078-0.112-0.078-0.186c0-0.003-0.002-0.006-0.008-0.009
			c-0.006-0.002-0.01-0.002-0.012,0c-0.074,0.085-0.153,0.164-0.237,0.237c-0.044,0.035-0.093,0.053-0.147,0.053
			c-0.008,0-0.018,0-0.028,0c-0.065-0.008-0.121-0.036-0.167-0.086c-0.044-0.04-0.065-0.089-0.065-0.146
			c0-0.063,0.024-0.114,0.073-0.155c0.139-0.117,0.262-0.246,0.368-0.388c0.002-0.006,0.002-0.012,0-0.019
			c-0.003-0.007-0.007-0.011-0.013-0.011h-0.09c-0.058,0-0.105-0.02-0.146-0.059c-0.039-0.04-0.059-0.088-0.059-0.146
			s0.02-0.105,0.059-0.145c0.04-0.04,0.088-0.06,0.146-0.06h0.314c0.027,0,0.046-0.013,0.058-0.037
			c0.019-0.04,0.036-0.083,0.053-0.126c0.003-0.009,0.001-0.017-0.004-0.025c-0.006-0.008-0.013-0.012-0.021-0.012h-0.135
			c-0.052,0-0.097-0.019-0.133-0.055c-0.037-0.037-0.056-0.081-0.056-0.133s0.019-0.097,0.056-0.136
			c0.036-0.038,0.081-0.057,0.133-0.057h0.232c0.027,0,0.044-0.014,0.049-0.039c0.006-0.025,0.012-0.061,0.017-0.104
			c0.003-0.011,0-0.02-0.008-0.028c-0.009-0.008-0.018-0.013-0.028-0.013h-0.36c-0.057,0-0.105-0.019-0.145-0.059
			c-0.039-0.039-0.059-0.087-0.059-0.143c0-0.057,0.02-0.104,0.059-0.144c0.039-0.039,0.088-0.059,0.145-0.059h0.4
			c0.024,0,0.037-0.013,0.037-0.037v-0.086c0-0.06,0.021-0.111,0.063-0.155c0.042-0.043,0.094-0.065,0.154-0.065
			c0.062,0,0.114,0.022,0.158,0.065c0.043,0.044,0.065,0.096,0.065,0.155v0.086c0,0.024,0.012,0.037,0.036,0.037h0.899
			c0.057,0,0.105,0.02,0.145,0.059c0.04,0.04,0.06,0.087,0.06,0.144c0,0.056-0.02,0.104-0.06,0.143
			c-0.039,0.04-0.088,0.059-0.145,0.059h-0.924c-0.026,0-0.042,0.015-0.045,0.041c-0.003,0.036-0.007,0.071-0.012,0.107
			c-0.003,0.008-0.001,0.016,0.006,0.023c0.007,0.009,0.016,0.013,0.026,0.013h0.87c0.052,0,0.096,0.019,0.133,0.057
			c0.037,0.039,0.056,0.084,0.056,0.136s-0.019,0.096-0.056,0.133c-0.037,0.036-0.081,0.055-0.133,0.055h-0.27
			c-0.008,0-0.016,0.004-0.022,0.012c-0.007,0.009-0.009,0.019-0.006,0.029c0.011,0.024,0.027,0.063,0.049,0.118
			c0.011,0.027,0.03,0.041,0.057,0.041h0.36c0.057,0,0.105,0.02,0.145,0.06c0.039,0.039,0.06,0.087,0.06,0.145
			s-0.021,0.105-0.06,0.146c-0.039,0.039-0.088,0.059-0.145,0.059H39.74c-0.009,0-0.015,0.004-0.019,0.011s-0.005,0.014-0.002,0.022
			c0.084,0.122,0.173,0.228,0.266,0.314c0.049,0.046,0.073,0.104,0.073,0.172c0,0.057-0.02,0.107-0.058,0.15
			c-0.046,0.049-0.101,0.078-0.163,0.086c-0.009,0-0.017,0-0.024,0c-0.052,0-0.099-0.019-0.139-0.057
			c-0.036-0.039-0.07-0.078-0.103-0.119c-0.003,0-0.006,0.001-0.011,0.002C39.558,31.372,39.556,31.374,39.556,31.376z
			 M38.232,31.16c-0.006,0.008-0.007,0.016-0.004,0.022c0.002,0.007,0.008,0.01,0.016,0.01h0.339c0.022,0,0.033-0.009,0.033-0.028
			v-0.036c0-0.061,0.021-0.112,0.065-0.156c0.044-0.043,0.096-0.064,0.157-0.064s0.113,0.021,0.157,0.064
			c0.044,0.044,0.065,0.096,0.065,0.156v0.036c0,0.02,0.011,0.028,0.033,0.028h0.311c0.008,0,0.014-0.003,0.018-0.01
			c0.005-0.007,0.004-0.015-0.002-0.022c-0.07-0.104-0.135-0.215-0.192-0.335c-0.01-0.024-0.029-0.037-0.057-0.037h-0.658
			c-0.026,0-0.047,0.013-0.061,0.037C38.394,30.936,38.319,31.048,38.232,31.16z M38.996,30.22
			c-0.008-0.027-0.025-0.041-0.053-0.041h-0.188c-0.027,0-0.043,0.014-0.049,0.041c-0.011,0.038-0.024,0.077-0.04,0.118
			c-0.003,0.011-0.002,0.021,0.003,0.028c0.006,0.009,0.014,0.013,0.025,0.013h0.311c0.011,0,0.019-0.004,0.024-0.013
			c0.005-0.008,0.007-0.018,0.004-0.028C39.022,30.309,39.01,30.269,38.996,30.22z"/>
	</g>
</g>
</svg>
