<?xml version="1.0" encoding="utf-8"?>
<!-- Generator: Adobe Illustrator 16.0.0, SVG Export Plug-In . SVG Version: 6.00 Build 0)  -->
<!DOCTYPE svg PUBLIC "-//W3C//DTD SVG 1.1//EN" "http://www.w3.org/Graphics/SVG/1.1/DTD/svg11.dtd">
<svg version="1.1" id="圖層_1" xmlns="http://www.w3.org/2000/svg" xmlns:xlink="http://www.w3.org/1999/xlink" x="0px" y="0px"
	 width="134.097px" height="138.681px" viewBox="0 0 134.097 138.681" enable-background="new 0 0 134.097 138.681"
	 xml:space="preserve">
<g>
	<g>
		<g>
			<path fill="#8CC456" d="M94.872,10.017C88.802,6.31,80.804,4.508,70.418,4.508h-9.401h-1.379c-0.621,0-1.266,0.012-1.924,0.032
				c-6.222,0.361-7.822,3.658-8.229,5.484l-0.138,1.205l0,0l-0.558,4.939l-0.398,3.519l-1.136,10.028L41.86,77.354
				c-0.415,3.68-0.128,6.125,0.862,7.334c0.992,1.214,3.324,1.818,7.003,1.818H63.14c7.603,0,13.693-1.379,18.269-4.137
				c5.561-3.342,8.752-8.65,9.576-15.922c0.35-3.091-0.016-5.955-1.097-8.588c-1.081-2.632-2.838-4.657-5.266-6.079
				c2.352-1.587,4.135-3.489,5.347-5.704c1.21-2.213,1.979-4.742,2.301-7.584c0.804-7.103-1.335-12.201-6.416-15.294
				c-3.046-1.86-7.287-2.978-12.716-3.36c-0.021-0.001-0.037-0.005-0.06-0.007c-0.112-0.008-0.265-0.018-0.441-0.028
				c-0.012-0.001-0.023-0.001-0.035-0.002c-0.827-0.047-2.196-0.107-2.94-0.138c-0.158-0.014-0.317-0.022-0.479-0.022
				c-0.008,0-0.015,0.001-0.023,0.002c-0.01-0.001-0.018-0.001-0.018-0.001l0.002,0.001c-3.048,0.02-5.391,2.266-5.24,5.036
				c0.143,2.618,2.463,4.768,5.29,5.014l-0.002,0.023h2.636c3.261,0,5.818,0.815,7.684,2.445c1.862,1.629,2.614,4.034,2.255,7.208
				c-0.358,3.177-1.654,5.559-3.879,7.146c-2.23,1.588-4.972,2.381-8.231,2.381h-3.03v0.001c-0.002-0.001-0.003-0.001-0.004-0.001
				h-0.898c-2.148,0.225-4.005,2.021-4.252,4.202c-0.246,2.175,1.195,3.965,3.281,4.197h0.938h4.017
				c3.176,0,5.713,0.836,7.613,2.508c1.899,1.673,2.675,4.054,2.326,7.146c-0.352,3.093-1.667,5.475-3.944,7.145
				c-2.279,1.674-5.007,2.508-8.182,2.508H52.853l1.668-14.72l0.519-4.586l0.951-8.399l2.171-19.181l1.137-10.028l0.596-5.263h9.402
				c8.612,0,15.051,1.374,19.688,4.205c6.609,4.022,9.563,10.891,8.549,19.862c-0.403,3.552-1.402,6.807-2.973,9.675
				c-0.112,0.207-0.229,0.413-0.351,0.617l-1.492,2.521l1.268,2.339c0.307,0.563,0.59,1.16,0.84,1.773
				c1.389,3.38,1.868,7.092,1.421,11.029c-1.034,9.141-5.235,15.985-12.49,20.348c-5.553,3.346-12.49,4.974-21.213,4.974H49.129
				c-3.636,0-8.134-0.397-10.67-3.501c-2.438-2.978-2.229-7.654-1.86-10.914l5.394-47.638l0.062-0.916
				c0.062-0.35,0.089-0.71,0.071-1.084c-0.002-0.009,0-0.016-0.002-0.023c-0.145-2.681-2.437-4.854-5.118-4.854
				c-1.724,0-3.186,0.903-3.974,2.259c-0.31,0.533-0.513,1.136-0.586,1.785c-0.013,0.051-0.022,0.092-0.027,0.117
				c-0.094,0.636-0.175,1.254-0.242,1.84l-0.1,0.877l-5.394,47.638c-0.558,4.936-0.777,12.137,3.756,17.671
				c5.439,6.66,14.57,6.66,17.569,6.66h13.414c10.691,0,19.45-2.147,26.771-6.561c7.209-4.332,16.176-12.824,17.971-28.677
				c0.63-5.557-0.053-10.816-2.031-15.632c-0.036-0.09-0.075-0.18-0.113-0.27c1.79-3.706,2.943-7.752,3.431-12.054
				C108.871,25.931,104.402,15.817,94.872,10.017z"/>
		</g>
		<g>
			<g>
				<path fill="#8CC456" d="M29.309,11.198c0.313,0.637,0.586,1.227,1.086,1.744c0.702,0.723,1.577,1.3,2.433,1.824
					c1.052,0.643,2.11,1.279,3.164,1.919c0.78,0.475,1.559,0.947,2.337,1.424c3.107,1.897,5.658,0.41,5.67-3.305
					c0.004-1.512,0.01-3.026,0.014-4.539c0.002-1.085,0.061-2.189-0.051-3.271c-0.107-1.058-0.391-2.097-0.936-3.015
					c-0.309-0.521-0.643-1.027-1.045-1.48c-0.553-0.619-1.228-1.107-1.952-1.504c-1.48-0.81-3.161-1.161-4.841-0.923
					c-0.935,0.131-1.898,0.46-2.722,0.922c-1.479,0.828-2.723,2.17-3.36,3.74c-0.611,1.505-0.82,3.295-0.409,4.878
					C28.841,10.162,29.059,10.689,29.309,11.198z M36.382,4.791c1.69,0,3.061,1.371,3.061,3.062c0,1.69-1.37,3.06-3.061,3.06
					s-3.06-1.37-3.06-3.06C33.322,6.162,34.692,4.791,36.382,4.791z"/>
			</g>
		</g>
	</g>
</g>
<g>
	<g>
		<path fill="#8CC456" d="M15.095,124.687c0.638,0.856,0.957,1.903,0.957,3.142c0,1.713-0.614,3.056-1.842,4.026
			c-1.228,0.972-2.918,1.457-5.069,1.457H1.771c-0.553,0-0.985-0.152-1.3-0.457C0.157,132.55,0,132.122,0,131.569v-16.652
			c0-0.552,0.157-0.979,0.471-1.284c0.314-0.305,0.747-0.458,1.3-0.458h7.083c2.095,0,3.736,0.463,4.927,1.386
			c1.19,0.924,1.785,2.213,1.785,3.87c0,1.066-0.281,1.99-0.842,2.771c-0.562,0.781-1.338,1.352-2.328,1.714
			C13.557,123.239,14.457,123.829,15.095,124.687z M3.599,121.657h4.656c2.532,0,3.799-0.941,3.799-2.826
			c0-0.952-0.314-1.657-0.942-2.114c-0.629-0.456-1.581-0.686-2.856-0.686H3.599V121.657z M11.653,129.741
			c0.609-0.476,0.915-1.218,0.915-2.228c0-1.009-0.31-1.761-0.928-2.257c-0.619-0.495-1.585-0.742-2.899-0.742H3.599v5.941H8.74
			C10.073,130.456,11.044,130.218,11.653,129.741z"/>
		<path fill="#8CC456" d="M21.807,132.654c-1.076-0.59-1.91-1.437-2.5-2.542c-0.59-1.104-0.885-2.389-0.885-3.855
			s0.295-2.746,0.885-3.842c0.59-1.095,1.423-1.938,2.5-2.527c1.075-0.59,2.328-0.886,3.755-0.886c1.429,0,2.68,0.296,3.756,0.886
			c1.075,0.59,1.904,1.433,2.485,2.527c0.581,1.096,0.871,2.375,0.871,3.842s-0.29,2.752-0.871,3.855
			c-0.581,1.105-1.41,1.952-2.485,2.542c-1.076,0.591-2.328,0.886-3.756,0.886C24.135,133.54,22.882,133.245,21.807,132.654z
			 M28.19,129.627c0.609-0.762,0.914-1.885,0.914-3.37c0-1.467-0.305-2.585-0.914-3.356c-0.609-0.771-1.485-1.156-2.628-1.156
			c-1.142,0-2.023,0.386-2.642,1.156c-0.619,0.771-0.928,1.89-0.928,3.356c0,1.485,0.304,2.608,0.914,3.37
			c0.609,0.763,1.485,1.143,2.628,1.143C26.695,130.77,27.581,130.39,28.19,129.627z"/>
		<path fill="#8CC456" d="M47.956,119.517c0.323,0.305,0.485,0.714,0.485,1.228v11.082c0,0.495-0.167,0.895-0.5,1.2
			c-0.333,0.305-0.767,0.457-1.3,0.457c-0.514,0-0.924-0.144-1.228-0.429c-0.305-0.285-0.458-0.676-0.458-1.171v-0.715
			c-0.438,0.762-1.027,1.348-1.77,1.757c-0.743,0.409-1.581,0.614-2.514,0.614c-3.428,0-5.142-1.923-5.142-5.77v-7.026
			c0-0.514,0.162-0.923,0.485-1.228c0.323-0.306,0.753-0.457,1.285-0.457c0.553,0,0.99,0.151,1.314,0.457
			c0.323,0.305,0.485,0.714,0.485,1.228v7.055c0,0.99,0.2,1.724,0.6,2.2c0.4,0.476,1.028,0.713,1.885,0.713
			c0.99,0,1.786-0.328,2.386-0.985s0.899-1.527,0.899-2.613v-6.369c0-0.514,0.162-0.923,0.485-1.228
			c0.324-0.306,0.752-0.457,1.285-0.457C47.193,119.06,47.631,119.211,47.956,119.517z"/>
		<path fill="#8CC456" d="M64.007,120.431c0.818,0.952,1.228,2.39,1.228,4.313v7.026c0,0.533-0.157,0.951-0.471,1.257
			c-0.314,0.305-0.748,0.457-1.3,0.457c-0.553,0-0.99-0.152-1.313-0.457c-0.324-0.306-0.485-0.724-0.485-1.257v-6.826
			c0-1.085-0.205-1.875-0.614-2.371c-0.41-0.494-1.053-0.743-1.929-0.743c-1.028,0-1.852,0.324-2.47,0.972
			c-0.619,0.647-0.929,1.515-0.929,2.6v6.369c0,0.533-0.162,0.951-0.485,1.257c-0.324,0.305-0.762,0.457-1.314,0.457
			c-0.552,0-0.985-0.152-1.299-0.457c-0.314-0.306-0.472-0.724-0.472-1.257v-11.054c0-0.495,0.161-0.895,0.486-1.199
			c0.322-0.306,0.761-0.457,1.313-0.457c0.496,0,0.9,0.147,1.215,0.442c0.313,0.295,0.471,0.681,0.471,1.156v0.771
			c0.477-0.78,1.114-1.381,1.914-1.799c0.8-0.42,1.704-0.629,2.713-0.629C61.941,119.002,63.188,119.479,64.007,120.431z"/>
		<path fill="#8CC456" d="M84.272,124.687c0.638,0.856,0.956,1.903,0.956,3.142c0,1.713-0.613,3.056-1.842,4.026
			c-1.229,0.972-2.918,1.457-5.069,1.457h-7.369c-0.553,0-0.986-0.152-1.3-0.457c-0.314-0.305-0.471-0.732-0.471-1.285v-16.652
			c0-0.552,0.156-0.979,0.471-1.284c0.313-0.305,0.747-0.458,1.3-0.458h7.083c2.095,0,3.737,0.463,4.928,1.386
			c1.188,0.924,1.784,2.213,1.784,3.87c0,1.066-0.281,1.99-0.843,2.771c-0.562,0.781-1.338,1.352-2.327,1.714
			C82.734,123.239,83.633,123.829,84.272,124.687z M72.776,121.657h4.655c2.532,0,3.798-0.941,3.798-2.826
			c0-0.952-0.313-1.657-0.941-2.114c-0.629-0.456-1.581-0.686-2.856-0.686h-4.655V121.657z M80.831,129.741
			c0.608-0.476,0.913-1.218,0.913-2.228c0-1.009-0.31-1.761-0.928-2.257c-0.619-0.495-1.586-0.742-2.899-0.742h-5.141v5.941h5.141
			C79.249,130.456,80.22,130.218,80.831,129.741z"/>
		<path fill="#8CC456" d="M98.752,120.444c0.943,0.962,1.414,2.424,1.414,4.384v6.97c0,0.514-0.153,0.919-0.457,1.214
			c-0.305,0.296-0.724,0.442-1.257,0.442c-0.495,0-0.899-0.152-1.214-0.456c-0.314-0.306-0.472-0.705-0.472-1.2v-0.629
			c-0.324,0.743-0.833,1.324-1.527,1.743c-0.695,0.419-1.5,0.628-2.414,0.628c-0.934,0-1.78-0.19-2.542-0.571
			s-1.361-0.904-1.799-1.571c-0.438-0.666-0.657-1.408-0.657-2.228c0-1.028,0.262-1.837,0.785-2.428
			c0.523-0.59,1.376-1.019,2.557-1.286c1.18-0.266,2.809-0.398,4.884-0.398h0.714V124.4c0-0.933-0.199-1.614-0.6-2.042
			c-0.399-0.429-1.047-0.643-1.941-0.643c-0.554,0-1.114,0.081-1.686,0.242c-0.572,0.162-1.247,0.396-2.028,0.7
			c-0.495,0.248-0.857,0.371-1.085,0.371c-0.343,0-0.624-0.123-0.843-0.371c-0.219-0.247-0.328-0.571-0.328-0.972
			c0-0.323,0.081-0.604,0.243-0.843c0.16-0.237,0.432-0.461,0.813-0.671c0.666-0.361,1.461-0.647,2.385-0.856
			s1.832-0.314,2.729-0.314C96.368,119.002,97.81,119.483,98.752,120.444z M95.868,130.013c0.6-0.638,0.899-1.462,0.899-2.471
			v-0.601h-0.514c-1.275,0-2.266,0.058-2.971,0.172c-0.704,0.114-1.209,0.314-1.514,0.601c-0.305,0.285-0.457,0.676-0.457,1.17
			c0,0.61,0.214,1.11,0.643,1.5c0.429,0.392,0.957,0.586,1.585,0.586C94.492,130.97,95.267,130.651,95.868,130.013z"/>
		<path fill="#8CC456" d="M115.647,120.431c0.819,0.952,1.228,2.39,1.228,4.313v7.026c0,0.533-0.156,0.951-0.471,1.257
			c-0.314,0.305-0.748,0.457-1.3,0.457c-0.553,0-0.99-0.152-1.313-0.457c-0.324-0.306-0.485-0.724-0.485-1.257v-6.826
			c0-1.085-0.206-1.875-0.614-2.371c-0.41-0.494-1.053-0.743-1.928-0.743c-1.028,0-1.853,0.324-2.471,0.972
			c-0.62,0.647-0.929,1.515-0.929,2.6v6.369c0,0.533-0.162,0.951-0.485,1.257c-0.324,0.305-0.763,0.457-1.314,0.457
			s-0.984-0.152-1.299-0.457c-0.314-0.306-0.472-0.724-0.472-1.257v-11.054c0-0.495,0.162-0.895,0.485-1.199
			c0.324-0.306,0.762-0.457,1.314-0.457c0.495,0,0.899,0.147,1.214,0.442c0.313,0.295,0.471,0.681,0.471,1.156v0.771
			c0.477-0.78,1.114-1.381,1.914-1.799c0.8-0.42,1.704-0.629,2.713-0.629C113.581,119.002,114.828,119.479,115.647,120.431z"/>
		<path fill="#8CC456" d="M133.612,119.517c0.323,0.305,0.485,0.714,0.485,1.228v11.282c0,2.189-0.609,3.846-1.827,4.971
			c-1.219,1.122-3.019,1.684-5.398,1.684c-2.076,0-3.809-0.39-5.198-1.171c-0.705-0.418-1.057-0.923-1.057-1.513
			c0-0.42,0.1-0.753,0.3-1.001c0.199-0.247,0.461-0.371,0.785-0.371c0.172,0,0.381,0.044,0.628,0.129
			c0.247,0.086,0.505,0.186,0.771,0.3c0.686,0.285,1.3,0.504,1.842,0.657c0.543,0.152,1.167,0.229,1.871,0.229
			c2.494,0,3.742-1.219,3.742-3.656v-1.827c-0.42,0.78-1.028,1.384-1.828,1.813c-0.8,0.428-1.714,0.643-2.742,0.643
			c-1.219,0-2.299-0.29-3.241-0.872c-0.943-0.58-1.681-1.395-2.214-2.441c-0.533-1.048-0.8-2.257-0.8-3.627
			c0-1.372,0.261-2.585,0.785-3.643c0.523-1.056,1.262-1.875,2.214-2.456c0.952-0.58,2.037-0.871,3.256-0.871
			c1.028,0,1.942,0.215,2.742,0.643c0.8,0.429,1.408,1.033,1.828,1.813v-0.742c0-0.495,0.161-0.895,0.485-1.199
			c0.323-0.306,0.752-0.457,1.285-0.457S133.289,119.211,133.612,119.517z M129.599,129.027c0.638-0.742,0.957-1.761,0.957-3.056
			c0-1.314-0.319-2.343-0.957-3.086c-0.639-0.742-1.528-1.113-2.67-1.113c-1.125,0-2.01,0.371-2.657,1.113
			c-0.646,0.743-0.971,1.771-0.971,3.086c0,1.295,0.324,2.313,0.971,3.056c0.647,0.743,1.532,1.114,2.657,1.114
			C128.071,130.142,128.96,129.771,129.599,129.027z"/>
	</g>
</g>
<g>
	<g>
		<path fill="#8CC456" d="M116.163,106.198c0.328,0,0.608,0.116,0.841,0.35c0.232,0.23,0.348,0.512,0.348,0.84v0.587
			c0,0.355-0.049,0.625-0.149,0.808c-0.1,0.182-0.283,0.327-0.546,0.437c-0.329,0.109-0.82,0.168-1.477,0.178h-0.014
			c-0.183,0-0.355-0.059-0.52-0.178c-0.155-0.119-0.273-0.273-0.355-0.465c-0.063-0.136-0.056-0.269,0.027-0.396
			c0.083-0.127,0.195-0.191,0.342-0.191c0.146,0,0.273,0,0.383,0c0.19,0,0.328,0,0.41,0c0.1,0,0.168-0.013,0.205-0.041
			c0.036-0.027,0.054-0.081,0.054-0.164v-0.465c0-0.091-0.046-0.136-0.136-0.136h-2.898c-0.091,0-0.136,0.045-0.136,0.136v1.244
			c0,0.219-0.077,0.407-0.232,0.567c-0.155,0.159-0.347,0.239-0.574,0.239s-0.419-0.08-0.573-0.239
			c-0.155-0.16-0.232-0.349-0.232-0.567v-1.244c0-0.091-0.047-0.136-0.138-0.136h-2.609c-0.092,0-0.137,0.045-0.137,0.136v1.026
			c0,0.218-0.081,0.407-0.24,0.566s-0.351,0.239-0.573,0.239s-0.413-0.08-0.566-0.239c-0.156-0.159-0.233-0.349-0.233-0.566v-1.135
			c0-0.328,0.116-0.609,0.35-0.84c0.231-0.233,0.512-0.35,0.84-0.35h3.17c0.091,0,0.138-0.046,0.138-0.137v-0.137
			c0-0.091-0.047-0.136-0.138-0.136h-2.391c-0.328,0-0.609-0.117-0.841-0.35c-0.232-0.232-0.349-0.513-0.349-0.84v-1.065
			c0-0.328,0.116-0.608,0.349-0.842c0.231-0.231,0.513-0.349,0.841-0.349h2.514c0.092,0,0.151-0.045,0.179-0.136
			c0.081-0.183,0.137-0.311,0.163-0.384c0.01-0.026,0.005-0.054-0.013-0.081c-0.019-0.027-0.046-0.041-0.082-0.041
			c-0.292,0.027-0.728,0.063-1.306,0.108c-0.578,0.046-1.036,0.08-1.374,0.103c-0.337,0.024-0.728,0.051-1.168,0.083
			c-0.442,0.031-0.832,0.057-1.169,0.075c-0.137,0.009-0.26-0.032-0.368-0.123c-0.119-0.1-0.179-0.228-0.179-0.383
			c0-0.118,0.041-0.223,0.124-0.314c0.091-0.1,0.204-0.154,0.341-0.164c0.582-0.027,1.181-0.059,1.791-0.095
			c0.082-0.011,0.123-0.061,0.123-0.15v-0.206c0-0.091-0.047-0.137-0.138-0.137h-1.461c-0.119,0-0.22-0.041-0.302-0.123
			c-0.082-0.081-0.122-0.182-0.122-0.3c0-0.119,0.04-0.22,0.122-0.302c0.082-0.081,0.183-0.122,0.302-0.122h1.461
			c0.091,0,0.138-0.046,0.138-0.138v-0.137c0-0.09-0.047-0.136-0.138-0.136h-1.789c-0.118,0-0.22-0.039-0.302-0.116
			c-0.081-0.077-0.122-0.173-0.122-0.287s0.041-0.211,0.122-0.294c0.082-0.082,0.184-0.123,0.302-0.123h1.789
			c0.091,0,0.138-0.045,0.138-0.137v-0.15c0-0.091-0.047-0.137-0.138-0.137h-1.283c-0.11,0-0.206-0.039-0.288-0.116
			s-0.123-0.172-0.123-0.287c0-0.113,0.041-0.209,0.123-0.287c0.082-0.077,0.178-0.115,0.288-0.115h1.352
			c0.047,0,0.069-0.027,0.069-0.082c0-0.174,0.064-0.323,0.191-0.451c0.127-0.127,0.281-0.191,0.464-0.191h0.232
			c0.183,0,0.338,0.064,0.464,0.191c0.128,0.128,0.192,0.277,0.192,0.451c0,0.055,0.028,0.082,0.082,0.082h1.395
			c0.109,0,0.202,0.038,0.279,0.115c0.078,0.078,0.116,0.174,0.116,0.287c0,0.115-0.038,0.21-0.116,0.287
			c-0.077,0.077-0.17,0.116-0.279,0.116h-1.34c-0.092,0-0.137,0.046-0.137,0.137v0.15c0,0.092,0.045,0.137,0.137,0.137h1.749
			c0.109,0,0.205,0.041,0.286,0.123c0.084,0.083,0.124,0.18,0.124,0.294s-0.04,0.21-0.124,0.287
			c-0.081,0.077-0.177,0.116-0.286,0.116h-1.749c-0.092,0-0.137,0.046-0.137,0.136v0.137c0,0.092,0.045,0.138,0.137,0.138h1.504
			c0.117,0,0.218,0.041,0.301,0.122c0.081,0.082,0.123,0.183,0.123,0.302c0,0.118-0.042,0.219-0.123,0.3
			c-0.083,0.082-0.184,0.123-0.301,0.123h-1.504c-0.092,0-0.137,0.046-0.137,0.137v0.108c0,0.037,0.014,0.069,0.04,0.098
			c0.028,0.026,0.06,0.04,0.097,0.04l1.586-0.096c0.018,0,0.031,0,0.041,0c0.172,0,0.322,0.064,0.45,0.191
			c0.137,0.128,0.205,0.283,0.205,0.465c0,0.063,0.028,0.104,0.082,0.123l0.287,0.068c0.146,0.027,0.249,0.111,0.308,0.253
			c0.06,0.141,0.048,0.271-0.035,0.39c-0.008,0.019-0.008,0.034,0,0.047c0.01,0.015,0.02,0.021,0.028,0.021h2.774
			c0.327,0,0.607,0.117,0.841,0.349c0.231,0.233,0.348,0.514,0.348,0.842v1.065c0,0.327-0.116,0.607-0.348,0.84
			c-0.233,0.232-0.514,0.35-0.841,0.35h-2.707c-0.091,0-0.136,0.045-0.136,0.136v0.137c0,0.091,0.045,0.137,0.136,0.137H116.163z
			 M108.825,103.219c-0.092,0-0.138,0.046-0.138,0.138v0.163c0,0.092,0.046,0.137,0.138,0.137h6.081
			c0.091,0,0.137-0.045,0.137-0.137v-0.163c0-0.092-0.046-0.138-0.137-0.138H108.825z M108.825,104.449
			c-0.092,0-0.138,0.045-0.138,0.137v0.178c0,0.091,0.046,0.136,0.138,0.136h6.081c0.091,0,0.137-0.045,0.137-0.136v-0.178
			c0-0.092-0.046-0.137-0.137-0.137H108.825z M116.819,97.465c0,0.083,0.037,0.124,0.109,0.124h0.587
			c0.174,0,0.32,0.059,0.438,0.176c0.117,0.12,0.178,0.264,0.178,0.433c0,0.168-0.061,0.312-0.178,0.431
			c-0.118,0.117-0.265,0.176-0.438,0.176h-0.56c-0.091,0-0.137,0.048-0.137,0.137v1.846c0,0.337-0.044,0.59-0.129,0.758
			c-0.087,0.17-0.24,0.305-0.458,0.404c-0.291,0.108-0.707,0.173-1.245,0.191c-0.009,0-0.019,0-0.026,0
			c-0.173,0-0.337-0.055-0.492-0.165c-0.163-0.108-0.281-0.259-0.355-0.45c-0.063-0.127-0.057-0.256,0.021-0.383
			c0.078-0.128,0.194-0.191,0.349-0.191c0.174,0,0.364,0,0.574,0c0.082,0,0.138-0.013,0.171-0.041
			c0.031-0.027,0.048-0.082,0.048-0.165V98.94c0-0.089-0.046-0.137-0.137-0.137h-1.518c-0.026,0-0.045,0.012-0.055,0.035
			c-0.009,0.023-0.004,0.043,0.015,0.062c0.245,0.291,0.464,0.569,0.654,0.833c0.064,0.11,0.097,0.219,0.097,0.329
			c0,0.055-0.004,0.109-0.014,0.163c-0.055,0.173-0.159,0.306-0.314,0.396c-0.1,0.056-0.201,0.082-0.302,0.082
			c-0.063,0-0.121-0.004-0.176-0.014c-0.174-0.055-0.306-0.154-0.397-0.301c-0.072-0.108-0.15-0.223-0.232-0.342
			c-0.1-0.146-0.149-0.305-0.149-0.478c0-0.063,0.004-0.124,0.014-0.178c0.045-0.246,0.178-0.424,0.396-0.533
			c0.008-0.008,0.011-0.021,0.006-0.034s-0.011-0.021-0.019-0.021H112.5c-0.172,0-0.317-0.059-0.437-0.176
			c-0.118-0.119-0.178-0.263-0.178-0.431c0-0.169,0.06-0.313,0.178-0.433c0.119-0.117,0.265-0.176,0.437-0.176h2.666
			c0.073,0,0.109-0.041,0.109-0.124v-0.218c0-0.21,0.075-0.391,0.226-0.539c0.149-0.151,0.332-0.227,0.547-0.227
			c0.214,0,0.395,0.075,0.547,0.227c0.149,0.148,0.225,0.329,0.225,0.539V97.465z"/>
		<path fill="#8CC456" d="M125.597,102.739c0.117,0.174,0.176,0.366,0.176,0.575c0,0.22-0.063,0.419-0.189,0.602
			c-0.101,0.137-0.229,0.196-0.384,0.178s-0.269-0.1-0.342-0.246c-0.1-0.2-0.219-0.429-0.354-0.684
			c-0.01-0.018-0.021-0.025-0.034-0.021c-0.014,0.004-0.021,0.017-0.021,0.035v5.575c0,0.21-0.075,0.388-0.226,0.533
			c-0.149,0.146-0.33,0.22-0.539,0.22s-0.387-0.074-0.533-0.22s-0.219-0.323-0.219-0.533v-4.236c0-0.01-0.007-0.016-0.02-0.021
			c-0.015-0.004-0.021,0.003-0.021,0.021c-0.255,0.72-0.514,1.335-0.779,1.845c-0.08,0.146-0.2,0.219-0.354,0.219
			c-0.009,0-0.019,0-0.027,0c-0.174-0.01-0.3-0.091-0.383-0.246c-0.127-0.237-0.191-0.469-0.191-0.696
			c0-0.247,0.064-0.488,0.191-0.725c0.619-1.13,1.098-2.429,1.435-3.896c0-0.037-0.009-0.068-0.027-0.096
			c-0.019-0.028-0.045-0.041-0.082-0.041h-0.656c-0.209,0-0.389-0.075-0.539-0.226c-0.15-0.149-0.226-0.33-0.226-0.539
			c0-0.21,0.075-0.391,0.226-0.54c0.15-0.151,0.33-0.227,0.539-0.227h0.779c0.091,0,0.137-0.044,0.137-0.137v-1.995
			c0-0.209,0.072-0.387,0.219-0.532s0.324-0.219,0.533-0.219s0.39,0.073,0.539,0.219c0.15,0.146,0.226,0.323,0.226,0.532v1.995
			c0,0.093,0.046,0.137,0.138,0.137h0.519c0.209,0,0.39,0.075,0.54,0.227c0.151,0.149,0.226,0.33,0.226,0.54
			c0,0.209-0.074,0.39-0.226,0.539c-0.15,0.15-0.331,0.226-0.54,0.226h-0.547c-0.072,0-0.109,0.039-0.109,0.117
			c0,0.076,0.023,0.143,0.068,0.197C124.772,101.533,125.132,102.049,125.597,102.739z M132.334,104.969
			c0,0.182-0.063,0.337-0.192,0.465c-0.128,0.127-0.286,0.191-0.479,0.191h-0.847c-0.091,0-0.137,0.045-0.137,0.136v0.465
			c0,0.092,0.046,0.137,0.137,0.137h1.887c0.19,0,0.353,0.066,0.485,0.198c0.132,0.133,0.197,0.293,0.197,0.485
			c0,0.191-0.065,0.354-0.197,0.485c-0.133,0.132-0.295,0.197-0.485,0.197h-1.887c-0.091,0-0.137,0.046-0.137,0.138v0.956
			c0,0.209-0.072,0.388-0.219,0.533c-0.146,0.146-0.321,0.218-0.525,0.218c-0.206,0-0.382-0.072-0.527-0.218
			s-0.219-0.324-0.219-0.533v-0.956c0-0.092-0.045-0.138-0.136-0.138h-1.913c-0.191,0-0.354-0.065-0.486-0.197
			c-0.132-0.132-0.196-0.294-0.196-0.485c0-0.192,0.064-0.353,0.196-0.485c0.133-0.132,0.295-0.198,0.486-0.198h1.913
			c0.091,0,0.136-0.045,0.136-0.137v-0.465c0-0.091-0.045-0.136-0.136-0.136h-0.602c-0.237,0-0.442-0.085-0.615-0.254
			c-0.173-0.168-0.26-0.376-0.26-0.622c0-0.008-0.008-0.017-0.026-0.026c-0.02-0.009-0.032-0.009-0.042,0
			c-0.246,0.282-0.511,0.547-0.792,0.793c-0.146,0.118-0.31,0.178-0.493,0.178c-0.026,0-0.059,0-0.095,0
			c-0.219-0.028-0.405-0.124-0.561-0.288c-0.146-0.136-0.218-0.3-0.218-0.491c0-0.21,0.082-0.383,0.246-0.52
			c0.464-0.392,0.875-0.825,1.23-1.299c0.008-0.018,0.008-0.038,0-0.061c-0.011-0.022-0.023-0.035-0.042-0.035h-0.301
			c-0.192,0-0.354-0.065-0.485-0.198c-0.132-0.132-0.198-0.294-0.198-0.484c0-0.191,0.066-0.354,0.198-0.486
			c0.132-0.132,0.293-0.197,0.485-0.197h1.052c0.092,0,0.155-0.041,0.192-0.123c0.063-0.137,0.123-0.277,0.178-0.424
			c0.009-0.027,0.004-0.055-0.014-0.082c-0.019-0.027-0.041-0.041-0.068-0.041h-0.451c-0.174,0-0.321-0.062-0.444-0.185
			s-0.185-0.271-0.185-0.444c0-0.172,0.062-0.322,0.185-0.451c0.123-0.127,0.271-0.19,0.444-0.19h0.778
			c0.091,0,0.146-0.044,0.164-0.13c0.019-0.087,0.036-0.203,0.055-0.35c0.01-0.036,0-0.067-0.027-0.096
			c-0.027-0.027-0.059-0.04-0.095-0.04h-1.203c-0.191,0-0.354-0.066-0.485-0.198c-0.132-0.133-0.197-0.291-0.197-0.479
			c0-0.186,0.065-0.346,0.197-0.479c0.132-0.132,0.294-0.197,0.485-0.197h1.339c0.082,0,0.123-0.042,0.123-0.124v-0.287
			c0-0.2,0.07-0.372,0.212-0.52c0.142-0.145,0.313-0.218,0.519-0.218s0.381,0.073,0.526,0.218c0.146,0.147,0.22,0.319,0.22,0.52
			v0.287c0,0.082,0.04,0.124,0.123,0.124h3.007c0.19,0,0.353,0.065,0.484,0.197c0.132,0.133,0.197,0.293,0.197,0.479
			c0,0.188-0.065,0.346-0.197,0.479c-0.132,0.132-0.294,0.198-0.484,0.198h-3.09c-0.09,0-0.141,0.046-0.149,0.136
			c-0.01,0.119-0.023,0.238-0.042,0.356c-0.008,0.027-0.002,0.054,0.021,0.082c0.022,0.027,0.053,0.041,0.09,0.041h2.911
			c0.173,0,0.32,0.063,0.442,0.19c0.124,0.129,0.186,0.279,0.186,0.451c0,0.174-0.062,0.321-0.186,0.444
			c-0.122,0.123-0.27,0.185-0.442,0.185h-0.903c-0.026,0-0.052,0.014-0.075,0.041c-0.021,0.027-0.028,0.06-0.02,0.096
			c0.036,0.083,0.091,0.214,0.163,0.396c0.037,0.092,0.101,0.137,0.192,0.137h1.202c0.191,0,0.354,0.065,0.486,0.197
			c0.131,0.133,0.197,0.295,0.197,0.486c0,0.19-0.066,0.353-0.197,0.484c-0.133,0.133-0.295,0.198-0.486,0.198h-0.465
			c-0.026,0-0.047,0.013-0.062,0.035c-0.013,0.022-0.016,0.048-0.007,0.074c0.283,0.41,0.579,0.762,0.889,1.053
			c0.164,0.155,0.247,0.346,0.247,0.574c0,0.19-0.065,0.359-0.192,0.505c-0.155,0.164-0.337,0.261-0.547,0.287
			c-0.027,0-0.055,0-0.081,0c-0.174,0-0.328-0.063-0.465-0.19c-0.119-0.128-0.233-0.26-0.342-0.396
			c-0.009,0-0.021,0.001-0.034,0.007C132.34,104.953,132.334,104.96,132.334,104.969z M127.907,104.244
			c-0.02,0.027-0.023,0.052-0.014,0.074c0.008,0.023,0.026,0.034,0.055,0.034h1.133c0.073,0,0.109-0.03,0.109-0.096v-0.123
			c0-0.2,0.073-0.372,0.219-0.519c0.146-0.146,0.321-0.219,0.527-0.219c0.204,0,0.38,0.073,0.525,0.219
			c0.146,0.146,0.219,0.318,0.219,0.519v0.123c0,0.065,0.037,0.096,0.109,0.096h1.039c0.027,0,0.047-0.011,0.062-0.034
			c0.014-0.022,0.012-0.047-0.007-0.074c-0.237-0.346-0.452-0.72-0.643-1.121c-0.036-0.081-0.1-0.123-0.191-0.123h-2.2
			c-0.091,0-0.16,0.042-0.204,0.123C128.445,103.498,128.197,103.871,127.907,104.244z M130.461,101.101
			c-0.027-0.091-0.087-0.137-0.178-0.137h-0.628c-0.092,0-0.146,0.046-0.164,0.137c-0.037,0.128-0.083,0.26-0.136,0.396
			c-0.01,0.036-0.006,0.068,0.013,0.096c0.018,0.027,0.045,0.041,0.082,0.041h1.039c0.036,0,0.063-0.014,0.081-0.041
			s0.022-0.06,0.015-0.096C130.548,101.397,130.507,101.265,130.461,101.101z"/>
	</g>
</g>
</svg>
