<?xml version="1.0" encoding="utf-8"?>
<!-- Generator: Adobe Illustrator 16.0.0, SVG Export Plug-In . SVG Version: 6.00 Build 0)  -->
<!DOCTYPE svg PUBLIC "-//W3C//DTD SVG 1.1//EN" "http://www.w3.org/Graphics/SVG/1.1/DTD/svg11.dtd">
<svg version="1.1" id="圖層_1" xmlns="http://www.w3.org/2000/svg" xmlns:xlink="http://www.w3.org/1999/xlink" x="0px" y="0px"
	 width="58.36px" height="26.32px" viewBox="0 0 58.36 26.32" enable-background="new 0 0 58.36 26.32" xml:space="preserve">
<g>
	<g>
		<g>
			<path fill="#FFFFFF" d="M17.726,2.593c-1.571-0.96-3.642-1.426-6.33-1.426H8.962H8.606c-0.161,0-0.328,0.003-0.498,0.008
				c-1.61,0.094-2.024,0.947-2.13,1.42L5.942,2.906l0,0L5.797,4.185L5.695,5.096L5.401,7.691L4.004,20.022
				c-0.107,0.952-0.033,1.585,0.223,1.898c0.257,0.313,0.86,0.471,1.813,0.471h3.473c1.968,0,3.545-0.357,4.729-1.071
				c1.439-0.864,2.266-2.238,2.479-4.121c0.091-0.8-0.004-1.541-0.283-2.223c-0.28-0.682-0.734-1.206-1.363-1.574
				c0.609-0.41,1.07-0.902,1.384-1.476s0.513-1.228,0.596-1.964c0.208-1.838-0.346-3.158-1.661-3.958
				c-0.788-0.481-1.886-0.771-3.291-0.87c-0.005-0.001-0.01-0.002-0.016-0.002c-0.028-0.002-0.068-0.005-0.114-0.007
				c-0.003-0.001-0.006-0.001-0.009-0.001c-0.214-0.012-0.568-0.027-0.761-0.035c-0.041-0.004-0.083-0.006-0.124-0.006
				c-0.002,0-0.004,0-0.007,0c-0.002,0-0.004,0-0.004,0l0,0C10.277,5.09,9.67,5.671,9.709,6.388c0.037,0.678,0.638,1.234,1.37,1.298
				l-0.001,0.006h0.682c0.845,0,1.507,0.211,1.989,0.633s0.677,1.044,0.584,1.866s-0.428,1.438-1.004,1.85
				c-0.577,0.411-1.287,0.616-2.131,0.616h-0.784v0.001c-0.001-0.001-0.001-0.001-0.001-0.001H10.18
				c-0.556,0.059-1.036,0.523-1.101,1.088c-0.063,0.563,0.31,1.026,0.85,1.086h0.243h1.04c0.821,0,1.479,0.217,1.971,0.649
				c0.491,0.434,0.692,1.05,0.602,1.85c-0.091,0.801-0.432,1.417-1.021,1.85c-0.591,0.433-1.296,0.649-2.118,0.649H6.849
				l0.432-3.811l0.135-1.188l0.246-2.174l0.563-4.965l0.294-2.596l0.154-1.362h2.434c2.229,0,3.896,0.355,5.097,1.089
				c1.71,1.041,2.476,2.818,2.212,5.141c-0.104,0.92-0.362,1.763-0.769,2.505c-0.029,0.054-0.06,0.106-0.091,0.159l-0.387,0.653
				l0.328,0.605c0.079,0.146,0.152,0.3,0.218,0.459c0.359,0.875,0.483,1.836,0.367,2.854c-0.268,2.366-1.354,4.138-3.233,5.267
				c-1.437,0.866-3.232,1.288-5.49,1.288H5.886c-0.941,0-2.105-0.104-2.763-0.906c-0.631-0.771-0.577-1.981-0.481-2.825L4.039,7.691
				l0.016-0.236c0.017-0.091,0.023-0.185,0.019-0.281c0-0.002,0-0.004,0-0.006C4.035,6.474,3.442,5.911,2.748,5.911
				c-0.446,0-0.825,0.234-1.028,0.585C1.639,6.634,1.586,6.79,1.567,6.958C1.564,6.972,1.561,6.982,1.56,6.988
				C1.536,7.153,1.515,7.313,1.498,7.465L1.471,7.691L0.076,20.022c-0.145,1.277-0.201,3.142,0.972,4.574
				c1.408,1.724,3.771,1.724,4.548,1.724h3.473c2.767,0,5.034-0.556,6.929-1.698c1.866-1.121,4.188-3.319,4.651-7.423
				c0.163-1.438-0.014-2.8-0.525-4.046c-0.01-0.023-0.02-0.047-0.029-0.07c0.464-0.959,0.762-2.006,0.888-3.12
				C21.349,6.712,20.193,4.094,17.726,2.593z"/>
		</g>
		<g>
			<g>
				<path fill="#FFFFFF" d="M0.755,2.898C0.836,3.063,0.907,3.216,1.037,3.35c0.182,0.188,0.408,0.337,0.63,0.472
					c0.272,0.167,0.546,0.331,0.818,0.497C2.687,4.441,2.889,4.563,3.09,4.688c0.805,0.49,1.465,0.105,1.468-0.855
					C4.559,3.44,4.56,3.048,4.561,2.657C4.562,2.376,4.577,2.09,4.548,1.811C4.52,1.536,4.447,1.268,4.306,1.03
					C4.226,0.895,4.14,0.765,4.036,0.646C3.893,0.486,3.718,0.36,3.531,0.258c-0.384-0.21-0.818-0.301-1.254-0.239
					C2.036,0.053,1.786,0.138,1.573,0.257C1.19,0.472,0.868,0.819,0.703,1.226c-0.158,0.39-0.212,0.853-0.105,1.263
					C0.634,2.63,0.691,2.767,0.755,2.898z M2.586,1.24c0.438,0,0.792,0.354,0.792,0.792S3.024,2.824,2.586,2.824
					S1.794,2.47,1.794,2.032S2.149,1.24,2.586,1.24z"/>
			</g>
		</g>
	</g>
</g>
<g>
	<g>
		<path fill="#FFFFFF" d="M27.557,21.543c0.165,0.222,0.247,0.493,0.247,0.813c0,0.443-0.158,0.791-0.477,1.042
			c-0.317,0.252-0.755,0.377-1.313,0.377h-1.907c-0.143,0-0.255-0.039-0.336-0.118c-0.082-0.079-0.122-0.189-0.122-0.333v-4.31
			c0-0.144,0.04-0.254,0.122-0.333c0.081-0.079,0.193-0.118,0.336-0.118h1.834c0.542,0,0.967,0.119,1.275,0.358
			c0.308,0.239,0.462,0.573,0.462,1.002c0,0.276-0.073,0.515-0.219,0.717c-0.145,0.202-0.346,0.351-0.603,0.444
			C27.159,21.168,27.392,21.321,27.557,21.543z M24.582,20.759h1.205c0.655,0,0.983-0.243,0.983-0.731
			c0-0.246-0.082-0.429-0.244-0.547c-0.163-0.118-0.409-0.178-0.739-0.178h-1.205V20.759z M26.667,22.852
			c0.157-0.123,0.236-0.315,0.236-0.577c0-0.261-0.08-0.455-0.24-0.584c-0.16-0.128-0.41-0.192-0.751-0.192h-1.33v1.538h1.33
			C26.257,23.036,26.508,22.975,26.667,22.852z"/>
		<path fill="#FFFFFF" d="M29.294,23.605c-0.278-0.152-0.494-0.372-0.647-0.658c-0.152-0.285-0.229-0.618-0.229-0.998
			c0-0.379,0.076-0.711,0.229-0.994c0.153-0.283,0.369-0.501,0.647-0.654c0.278-0.152,0.603-0.229,0.972-0.229
			c0.37,0,0.694,0.077,0.973,0.229c0.278,0.153,0.493,0.371,0.643,0.654c0.15,0.283,0.227,0.615,0.227,0.994
			c0,0.38-0.076,0.713-0.227,0.998c-0.149,0.286-0.364,0.506-0.643,0.658c-0.278,0.153-0.603,0.229-0.973,0.229
			C29.897,23.835,29.573,23.759,29.294,23.605z M30.947,22.821c0.157-0.196,0.236-0.487,0.236-0.872
			c0-0.379-0.079-0.669-0.236-0.868c-0.158-0.2-0.385-0.3-0.681-0.3c-0.295,0-0.523,0.1-0.684,0.3
			c-0.16,0.199-0.24,0.489-0.24,0.868c0,0.385,0.079,0.676,0.236,0.872c0.158,0.198,0.385,0.296,0.681,0.296
			C30.56,23.117,30.789,23.02,30.947,22.821z"/>
		<path fill="#FFFFFF" d="M36.063,20.205c0.083,0.078,0.125,0.185,0.125,0.317v2.869c0,0.128-0.043,0.231-0.129,0.31
			c-0.086,0.079-0.198,0.119-0.336,0.119c-0.134,0-0.239-0.037-0.318-0.111s-0.118-0.175-0.118-0.303v-0.186
			c-0.113,0.197-0.267,0.35-0.459,0.455c-0.191,0.106-0.409,0.159-0.65,0.159c-0.887,0-1.33-0.498-1.33-1.494v-1.818
			c0-0.133,0.042-0.239,0.125-0.317c0.084-0.079,0.195-0.118,0.333-0.118c0.143,0,0.256,0.039,0.34,0.118
			c0.084,0.078,0.126,0.185,0.126,0.317v1.826c0,0.257,0.052,0.446,0.155,0.569s0.266,0.185,0.487,0.185
			c0.257,0,0.463-0.085,0.618-0.255s0.232-0.396,0.232-0.677v-1.648c0-0.133,0.042-0.239,0.126-0.317
			c0.084-0.079,0.194-0.118,0.333-0.118C35.866,20.087,35.979,20.126,36.063,20.205z"/>
		<path fill="#FFFFFF" d="M40.217,20.441c0.212,0.246,0.318,0.618,0.318,1.116v1.818c0,0.139-0.041,0.247-0.122,0.325
			c-0.081,0.079-0.193,0.119-0.336,0.119c-0.144,0-0.257-0.04-0.341-0.119c-0.084-0.078-0.125-0.187-0.125-0.325v-1.767
			c0-0.281-0.054-0.485-0.159-0.613c-0.106-0.128-0.272-0.192-0.499-0.192c-0.267,0-0.479,0.084-0.64,0.251
			c-0.16,0.168-0.24,0.393-0.24,0.673v1.648c0,0.139-0.042,0.247-0.126,0.325c-0.084,0.079-0.197,0.119-0.34,0.119
			c-0.144,0-0.255-0.04-0.336-0.119c-0.082-0.078-0.122-0.187-0.122-0.325v-2.86c0-0.129,0.042-0.232,0.125-0.311
			c0.084-0.079,0.197-0.118,0.341-0.118c0.128,0,0.232,0.038,0.313,0.114c0.082,0.076,0.122,0.176,0.122,0.299v0.2
			c0.123-0.202,0.289-0.357,0.495-0.466c0.207-0.108,0.441-0.163,0.703-0.163C39.683,20.071,40.005,20.195,40.217,20.441z"/>
		<path fill="#FFFFFF" d="M45.463,21.543c0.165,0.222,0.247,0.493,0.247,0.813c0,0.443-0.158,0.791-0.477,1.042
			c-0.318,0.252-0.755,0.377-1.313,0.377h-1.907c-0.143,0-0.255-0.039-0.336-0.118c-0.082-0.079-0.122-0.189-0.122-0.333v-4.31
			c0-0.144,0.04-0.254,0.122-0.333c0.081-0.079,0.193-0.118,0.336-0.118h1.834c0.542,0,0.967,0.119,1.275,0.358
			c0.308,0.239,0.462,0.573,0.462,1.002c0,0.276-0.073,0.515-0.219,0.717s-0.346,0.351-0.603,0.444
			C45.065,21.168,45.298,21.321,45.463,21.543z M42.488,20.759h1.205c0.655,0,0.982-0.243,0.982-0.731
			c0-0.246-0.081-0.429-0.243-0.547c-0.163-0.118-0.409-0.178-0.739-0.178h-1.205V20.759z M44.573,22.852
			c0.157-0.123,0.236-0.315,0.236-0.577c0-0.261-0.08-0.455-0.24-0.584c-0.16-0.128-0.411-0.192-0.751-0.192h-1.33v1.538h1.33
			C44.163,23.036,44.415,22.975,44.573,22.852z"/>
		<path fill="#FFFFFF" d="M49.211,20.445c0.244,0.249,0.366,0.627,0.366,1.135v1.804c0,0.133-0.04,0.237-0.118,0.314
			c-0.079,0.076-0.188,0.114-0.326,0.114c-0.128,0-0.232-0.039-0.313-0.118c-0.082-0.079-0.122-0.183-0.122-0.311v-0.163
			c-0.084,0.192-0.216,0.343-0.396,0.451s-0.389,0.163-0.625,0.163c-0.241,0-0.461-0.05-0.658-0.148s-0.353-0.233-0.466-0.406
			s-0.17-0.365-0.17-0.577c0-0.266,0.068-0.476,0.203-0.628c0.136-0.152,0.356-0.264,0.662-0.333
			c0.306-0.068,0.727-0.104,1.265-0.104h0.185v-0.17c0-0.241-0.052-0.418-0.155-0.528c-0.104-0.111-0.271-0.166-0.503-0.166
			c-0.143,0-0.288,0.021-0.437,0.063c-0.147,0.042-0.322,0.103-0.524,0.181c-0.128,0.064-0.222,0.097-0.281,0.097
			c-0.089,0-0.161-0.032-0.218-0.097c-0.057-0.063-0.085-0.147-0.085-0.251c0-0.084,0.021-0.156,0.063-0.218s0.112-0.12,0.211-0.174
			c0.173-0.094,0.378-0.168,0.617-0.222c0.239-0.055,0.475-0.082,0.706-0.082C48.594,20.071,48.967,20.196,49.211,20.445z
			 M48.464,22.922c0.155-0.165,0.233-0.379,0.233-0.64v-0.155h-0.133c-0.331,0-0.587,0.015-0.77,0.044
			c-0.183,0.03-0.313,0.082-0.392,0.155c-0.079,0.074-0.118,0.176-0.118,0.304c0,0.157,0.056,0.287,0.166,0.388
			c0.111,0.102,0.248,0.151,0.41,0.151C48.109,23.169,48.309,23.087,48.464,22.922z"/>
		<path fill="#FFFFFF" d="M53.584,20.441c0.212,0.246,0.317,0.618,0.317,1.116v1.818c0,0.139-0.04,0.247-0.121,0.325
			c-0.082,0.079-0.194,0.119-0.337,0.119s-0.256-0.04-0.34-0.119c-0.084-0.078-0.126-0.187-0.126-0.325v-1.767
			c0-0.281-0.053-0.485-0.159-0.613c-0.105-0.128-0.271-0.192-0.499-0.192c-0.266,0-0.479,0.084-0.64,0.251
			c-0.16,0.168-0.24,0.393-0.24,0.673v1.648c0,0.139-0.041,0.247-0.125,0.325c-0.084,0.079-0.197,0.119-0.34,0.119
			c-0.144,0-0.256-0.04-0.337-0.119c-0.081-0.078-0.122-0.187-0.122-0.325v-2.86c0-0.129,0.042-0.232,0.126-0.311
			c0.084-0.079,0.197-0.118,0.34-0.118c0.128,0,0.233,0.038,0.314,0.114s0.122,0.176,0.122,0.299v0.2
			c0.123-0.202,0.288-0.357,0.495-0.466s0.441-0.163,0.702-0.163C53.049,20.071,53.373,20.195,53.584,20.441z"/>
		<path fill="#FFFFFF" d="M58.235,20.205c0.083,0.078,0.125,0.185,0.125,0.317v2.92c0,0.567-0.157,0.996-0.473,1.287
			c-0.315,0.29-0.781,0.436-1.397,0.436c-0.537,0-0.985-0.101-1.346-0.303c-0.182-0.108-0.273-0.239-0.273-0.392
			c0-0.108,0.026-0.195,0.078-0.259c0.052-0.064,0.119-0.097,0.203-0.097c0.044,0,0.099,0.012,0.162,0.034
			c0.064,0.021,0.131,0.048,0.2,0.077c0.178,0.074,0.336,0.131,0.477,0.17s0.302,0.06,0.484,0.06c0.646,0,0.969-0.315,0.969-0.946
			v-0.474c-0.108,0.202-0.267,0.358-0.474,0.47c-0.207,0.11-0.443,0.166-0.71,0.166c-0.315,0-0.595-0.075-0.839-0.226
			s-0.435-0.36-0.573-0.632c-0.138-0.271-0.207-0.584-0.207-0.938c0-0.355,0.068-0.67,0.204-0.943
			c0.135-0.273,0.326-0.485,0.572-0.636c0.247-0.15,0.527-0.226,0.843-0.226c0.267,0,0.503,0.056,0.71,0.167
			c0.207,0.11,0.365,0.268,0.474,0.469v-0.191c0-0.129,0.041-0.232,0.125-0.311c0.084-0.079,0.195-0.118,0.333-0.118
			S58.151,20.126,58.235,20.205z M57.196,22.667c0.165-0.192,0.248-0.456,0.248-0.791c0-0.341-0.083-0.606-0.248-0.799
			s-0.396-0.288-0.691-0.288c-0.291,0-0.52,0.096-0.688,0.288c-0.167,0.192-0.251,0.458-0.251,0.799
			c0,0.335,0.084,0.599,0.251,0.791c0.168,0.192,0.396,0.288,0.688,0.288C56.8,22.955,57.031,22.859,57.196,22.667z"/>
	</g>
</g>
<g>
	<g>
		<path fill="#FFFFFF" d="M36.314,12.989c0.388,0,0.719,0.137,0.993,0.412c0.275,0.273,0.411,0.606,0.411,0.994v0.693
			c0,0.42-0.059,0.738-0.176,0.954c-0.119,0.216-0.335,0.388-0.646,0.518c-0.389,0.129-0.971,0.198-1.746,0.21h-0.016
			c-0.216,0-0.42-0.07-0.614-0.21c-0.183-0.141-0.323-0.324-0.42-0.55c-0.075-0.162-0.065-0.317,0.032-0.469
			c0.098-0.15,0.231-0.227,0.403-0.227s0.324,0,0.454,0c0.226,0,0.388,0,0.484,0c0.118,0,0.198-0.016,0.242-0.049
			c0.042-0.031,0.063-0.097,0.063-0.193v-0.55c0-0.107-0.054-0.161-0.16-0.161h-3.426c-0.108,0-0.162,0.054-0.162,0.161v1.471
			c0,0.259-0.091,0.481-0.274,0.671c-0.184,0.188-0.409,0.283-0.679,0.283c-0.269,0-0.496-0.095-0.679-0.283
			c-0.184-0.189-0.274-0.412-0.274-0.671v-1.471c0-0.107-0.055-0.161-0.162-0.161h-3.086c-0.107,0-0.161,0.054-0.161,0.161v1.213
			c0,0.258-0.095,0.481-0.283,0.67s-0.415,0.283-0.678,0.283c-0.265,0-0.488-0.095-0.671-0.283c-0.184-0.188-0.275-0.412-0.275-0.67
			v-1.341c0-0.388,0.138-0.721,0.413-0.994c0.274-0.275,0.605-0.412,0.993-0.412h3.748c0.107,0,0.162-0.054,0.162-0.161v-0.163
			c0-0.106-0.055-0.16-0.162-0.16h-2.827c-0.388,0-0.72-0.138-0.993-0.413c-0.275-0.274-0.413-0.605-0.413-0.993V9.838
			c0-0.387,0.138-0.719,0.413-0.994c0.273-0.274,0.605-0.411,0.993-0.411h2.973c0.107,0,0.179-0.054,0.211-0.161
			c0.096-0.216,0.161-0.367,0.193-0.453c0.011-0.032,0.006-0.064-0.016-0.097c-0.022-0.032-0.054-0.049-0.098-0.049
			c-0.345,0.033-0.859,0.075-1.543,0.129c-0.684,0.055-1.225,0.095-1.623,0.121c-0.399,0.028-0.861,0.061-1.383,0.098
			c-0.522,0.038-0.982,0.067-1.381,0.089c-0.162,0.011-0.307-0.037-0.437-0.146c-0.14-0.118-0.209-0.269-0.209-0.452
			c0-0.14,0.048-0.264,0.145-0.372c0.108-0.118,0.242-0.183,0.403-0.193c0.689-0.032,1.396-0.069,2.117-0.113
			c0.097-0.011,0.146-0.071,0.146-0.177V6.413c0-0.107-0.055-0.163-0.162-0.163h-1.728c-0.141,0-0.26-0.048-0.356-0.145
			s-0.146-0.215-0.146-0.354c0-0.141,0.049-0.26,0.146-0.356c0.097-0.096,0.216-0.146,0.356-0.146h1.728
			c0.107,0,0.162-0.054,0.162-0.161V4.926c0-0.106-0.055-0.16-0.162-0.16h-2.116c-0.14,0-0.259-0.046-0.355-0.138
			s-0.146-0.204-0.146-0.34c0-0.134,0.049-0.25,0.146-0.348c0.097-0.097,0.216-0.146,0.355-0.146h2.116
			c0.107,0,0.162-0.053,0.162-0.161V3.456c0-0.108-0.055-0.161-0.162-0.161h-1.518c-0.13,0-0.243-0.047-0.34-0.138
			c-0.098-0.092-0.146-0.204-0.146-0.339c0-0.136,0.048-0.248,0.146-0.34c0.097-0.092,0.21-0.138,0.34-0.138h1.598
			c0.056,0,0.082-0.032,0.082-0.097c0-0.204,0.076-0.383,0.227-0.533s0.333-0.226,0.549-0.226h0.274c0.217,0,0.399,0.075,0.55,0.226
			s0.227,0.329,0.227,0.533c0,0.064,0.033,0.097,0.097,0.097h1.648c0.13,0,0.239,0.046,0.33,0.138
			c0.093,0.092,0.138,0.204,0.138,0.34c0,0.135-0.045,0.247-0.138,0.339c-0.091,0.091-0.2,0.138-0.33,0.138h-1.583
			c-0.108,0-0.162,0.053-0.162,0.161v0.178c0,0.108,0.054,0.161,0.162,0.161h2.066c0.13,0,0.243,0.049,0.34,0.146
			c0.099,0.098,0.146,0.214,0.146,0.348c0,0.136-0.047,0.248-0.146,0.34c-0.097,0.092-0.21,0.138-0.34,0.138h-2.066
			c-0.108,0-0.162,0.054-0.162,0.16v0.162c0,0.107,0.054,0.161,0.162,0.161H30.4c0.139,0,0.259,0.05,0.356,0.146
			c0.096,0.097,0.146,0.216,0.146,0.356c0,0.14-0.05,0.258-0.146,0.354C30.659,6.202,30.539,6.25,30.4,6.25h-1.776
			c-0.108,0-0.162,0.056-0.162,0.163v0.128c0,0.044,0.017,0.082,0.048,0.115c0.033,0.031,0.069,0.048,0.114,0.048l1.874-0.113
			c0.021,0,0.038,0,0.048,0c0.204,0,0.382,0.075,0.533,0.227c0.162,0.15,0.242,0.334,0.242,0.549c0,0.075,0.033,0.124,0.098,0.146
			l0.339,0.081c0.173,0.032,0.294,0.132,0.363,0.299c0.07,0.167,0.057,0.32-0.04,0.461c-0.011,0.021-0.011,0.04,0,0.055
			c0.011,0.018,0.022,0.025,0.032,0.025h3.28c0.387,0,0.718,0.137,0.993,0.411c0.274,0.275,0.412,0.607,0.412,0.994v1.261
			c0,0.388-0.138,0.719-0.412,0.993c-0.275,0.275-0.606,0.413-0.993,0.413h-3.199c-0.108,0-0.162,0.054-0.162,0.16v0.163
			c0,0.107,0.054,0.161,0.162,0.161H36.314z M27.637,9.466c-0.108,0-0.162,0.056-0.162,0.162v0.194c0,0.108,0.054,0.161,0.162,0.161
			h7.189c0.107,0,0.163-0.053,0.163-0.161V9.628c0-0.106-0.056-0.162-0.163-0.162H27.637z M27.637,10.921
			c-0.108,0-0.162,0.054-0.162,0.161v0.21c0,0.107,0.054,0.162,0.162,0.162h7.189c0.107,0,0.163-0.055,0.163-0.162v-0.21
			c0-0.107-0.056-0.161-0.163-0.161H27.637z M37.089,2.664c0,0.098,0.043,0.146,0.129,0.146h0.694c0.205,0,0.378,0.07,0.518,0.209
			c0.14,0.142,0.211,0.311,0.211,0.511c0,0.199-0.071,0.368-0.211,0.509c-0.14,0.14-0.313,0.209-0.518,0.209H37.25
			c-0.107,0-0.161,0.056-0.161,0.162v2.182c0,0.398-0.052,0.697-0.153,0.896c-0.103,0.199-0.283,0.358-0.542,0.477
			c-0.344,0.129-0.835,0.204-1.47,0.227c-0.012,0-0.022,0-0.032,0c-0.204,0-0.398-0.064-0.582-0.194
			c-0.193-0.129-0.333-0.307-0.42-0.533c-0.076-0.15-0.067-0.302,0.023-0.452c0.093-0.151,0.229-0.226,0.412-0.226
			c0.205,0,0.431,0,0.68,0c0.097,0,0.163-0.017,0.202-0.049c0.037-0.032,0.056-0.098,0.056-0.195V4.409
			c0-0.106-0.054-0.162-0.161-0.162h-1.794c-0.032,0-0.054,0.015-0.064,0.041C33.233,4.315,33.239,4.34,33.26,4.36
			c0.291,0.345,0.549,0.674,0.774,0.986c0.076,0.13,0.114,0.258,0.114,0.388c0,0.064-0.006,0.13-0.017,0.193
			c-0.064,0.205-0.188,0.361-0.371,0.468c-0.119,0.066-0.238,0.098-0.356,0.098c-0.074,0-0.145-0.005-0.209-0.017
			c-0.205-0.063-0.361-0.182-0.47-0.354c-0.086-0.129-0.178-0.265-0.274-0.404c-0.118-0.172-0.177-0.36-0.177-0.564
			c0-0.075,0.005-0.146,0.017-0.211c0.053-0.29,0.209-0.501,0.468-0.63c0.01-0.01,0.013-0.024,0.008-0.041
			c-0.006-0.016-0.014-0.024-0.023-0.024h-0.761c-0.204,0-0.376-0.069-0.517-0.209c-0.14-0.141-0.21-0.31-0.21-0.509
			c0-0.2,0.07-0.369,0.21-0.511c0.141-0.139,0.313-0.209,0.517-0.209h3.151c0.086,0,0.129-0.048,0.129-0.146V2.406
			c0-0.248,0.089-0.461,0.268-0.638c0.177-0.179,0.393-0.268,0.646-0.268c0.252,0,0.467,0.089,0.646,0.268
			c0.177,0.177,0.266,0.39,0.266,0.638V2.664z"/>
		<path fill="#FFFFFF" d="M47.467,8.9c0.139,0.205,0.208,0.432,0.208,0.679c0,0.259-0.074,0.497-0.225,0.712
			c-0.118,0.161-0.27,0.231-0.453,0.21c-0.183-0.022-0.317-0.118-0.403-0.291c-0.119-0.237-0.259-0.507-0.42-0.808
			c-0.012-0.021-0.024-0.03-0.04-0.024c-0.017,0.005-0.025,0.019-0.025,0.04v6.593c0,0.248-0.088,0.458-0.267,0.63
			c-0.177,0.172-0.391,0.259-0.638,0.259c-0.248,0-0.458-0.087-0.63-0.259c-0.173-0.172-0.259-0.382-0.259-0.63v-5.009
			c0-0.011-0.008-0.019-0.024-0.024c-0.016-0.006-0.023,0.002-0.023,0.024c-0.303,0.851-0.608,1.578-0.923,2.181
			c-0.095,0.173-0.236,0.259-0.419,0.259c-0.011,0-0.021,0-0.032,0c-0.205-0.011-0.355-0.107-0.453-0.291
			c-0.149-0.28-0.226-0.554-0.226-0.823c0-0.292,0.076-0.577,0.226-0.857c0.732-1.335,1.298-2.87,1.697-4.604
			c0-0.043-0.011-0.08-0.033-0.113c-0.021-0.033-0.053-0.048-0.096-0.048h-0.776c-0.247,0-0.46-0.089-0.638-0.267
			S42.33,6.046,42.33,5.799c0-0.248,0.088-0.461,0.266-0.638c0.178-0.179,0.391-0.268,0.638-0.268h0.922
			c0.107,0,0.161-0.053,0.161-0.162V2.373c0-0.247,0.086-0.457,0.259-0.63c0.172-0.172,0.382-0.258,0.63-0.258
			c0.247,0,0.461,0.086,0.638,0.258c0.179,0.173,0.267,0.383,0.267,0.63v2.358c0,0.109,0.054,0.162,0.162,0.162h0.613
			c0.248,0,0.461,0.089,0.639,0.268c0.179,0.177,0.267,0.39,0.267,0.638c0,0.247-0.088,0.461-0.267,0.639
			c-0.178,0.178-0.391,0.267-0.639,0.267h-0.646c-0.086,0-0.129,0.046-0.129,0.138c0,0.091,0.027,0.169,0.081,0.233
			C46.492,7.474,46.917,8.083,47.467,8.9z M55.432,11.535c0,0.215-0.075,0.398-0.227,0.549c-0.151,0.151-0.339,0.227-0.565,0.227
			h-1.001c-0.107,0-0.162,0.054-0.162,0.161v0.55c0,0.107,0.055,0.161,0.162,0.161h2.229c0.226,0,0.418,0.079,0.574,0.234
			c0.155,0.157,0.233,0.347,0.233,0.573s-0.078,0.418-0.233,0.574c-0.156,0.156-0.349,0.234-0.574,0.234h-2.229
			c-0.107,0-0.162,0.054-0.162,0.162v1.131c0,0.247-0.086,0.457-0.258,0.63c-0.173,0.172-0.381,0.258-0.622,0.258
			c-0.243,0-0.451-0.086-0.623-0.258c-0.172-0.173-0.259-0.383-0.259-0.63v-1.131c0-0.108-0.053-0.162-0.161-0.162h-2.262
			c-0.226,0-0.417-0.078-0.574-0.234c-0.155-0.156-0.233-0.348-0.233-0.574s0.078-0.416,0.233-0.573
			c0.157-0.155,0.349-0.234,0.574-0.234h2.262c0.108,0,0.161-0.054,0.161-0.161v-0.55c0-0.107-0.053-0.161-0.161-0.161h-0.711
			c-0.28,0-0.522-0.1-0.727-0.3c-0.205-0.198-0.308-0.443-0.308-0.734c0-0.01-0.01-0.021-0.032-0.032
			c-0.021-0.011-0.038-0.011-0.048,0c-0.291,0.334-0.604,0.646-0.938,0.938c-0.173,0.14-0.366,0.21-0.582,0.21
			c-0.032,0-0.069,0-0.112,0c-0.259-0.033-0.48-0.146-0.663-0.34c-0.173-0.161-0.258-0.355-0.258-0.582
			c0-0.247,0.098-0.452,0.291-0.613c0.549-0.464,1.034-0.976,1.454-1.536c0.01-0.021,0.01-0.044,0-0.071
			c-0.012-0.026-0.027-0.04-0.049-0.04h-0.355c-0.227,0-0.418-0.078-0.573-0.235c-0.157-0.156-0.235-0.348-0.235-0.573
			c0-0.227,0.078-0.417,0.235-0.574c0.155-0.155,0.347-0.233,0.573-0.233h1.243c0.107,0,0.184-0.049,0.228-0.146
			c0.075-0.16,0.145-0.328,0.21-0.5c0.01-0.032,0.005-0.065-0.017-0.098c-0.022-0.031-0.049-0.048-0.081-0.048h-0.533
			c-0.204,0-0.38-0.073-0.525-0.218c-0.146-0.146-0.217-0.321-0.217-0.525s0.071-0.382,0.217-0.534
			c0.146-0.149,0.321-0.225,0.525-0.225h0.921c0.107,0,0.173-0.053,0.194-0.154c0.021-0.103,0.043-0.24,0.064-0.413
			c0.011-0.042,0-0.079-0.032-0.112c-0.032-0.032-0.07-0.049-0.113-0.049h-1.422c-0.227,0-0.418-0.077-0.573-0.234
			c-0.156-0.155-0.233-0.344-0.233-0.564s0.077-0.409,0.233-0.566c0.155-0.155,0.347-0.233,0.573-0.233h1.583
			c0.098,0,0.146-0.049,0.146-0.146v-0.34c0-0.236,0.083-0.441,0.25-0.614c0.167-0.171,0.371-0.258,0.613-0.258
			s0.45,0.087,0.622,0.258c0.172,0.173,0.26,0.378,0.26,0.614v0.34c0,0.097,0.047,0.146,0.146,0.146h3.555
			c0.226,0,0.416,0.078,0.573,0.233c0.155,0.157,0.233,0.346,0.233,0.566s-0.078,0.409-0.233,0.564
			C56.77,4.493,56.58,4.57,56.354,4.57h-3.653c-0.106,0-0.166,0.055-0.177,0.161c-0.012,0.142-0.027,0.281-0.049,0.422
			c-0.011,0.031-0.003,0.063,0.024,0.096c0.026,0.032,0.062,0.05,0.105,0.05h3.441c0.204,0,0.38,0.075,0.524,0.225
			c0.146,0.152,0.219,0.33,0.219,0.534s-0.073,0.38-0.219,0.525c-0.145,0.145-0.32,0.218-0.524,0.218h-1.067
			c-0.031,0-0.062,0.017-0.089,0.048c-0.026,0.032-0.034,0.07-0.023,0.114c0.043,0.097,0.108,0.252,0.193,0.468
			c0.044,0.108,0.119,0.162,0.227,0.162h1.422c0.226,0,0.418,0.078,0.574,0.233c0.155,0.157,0.234,0.348,0.234,0.574
			c0,0.226-0.079,0.417-0.234,0.573c-0.156,0.157-0.349,0.235-0.574,0.235H56.16c-0.032,0-0.057,0.014-0.073,0.04
			c-0.016,0.027-0.019,0.057-0.008,0.088c0.334,0.485,0.684,0.9,1.051,1.245c0.193,0.183,0.29,0.409,0.29,0.679
			c0,0.226-0.075,0.425-0.226,0.598c-0.184,0.193-0.398,0.307-0.647,0.339c-0.031,0-0.064,0-0.096,0
			c-0.205,0-0.388-0.074-0.55-0.226c-0.141-0.151-0.275-0.308-0.403-0.469c-0.012,0-0.025,0.002-0.041,0.008
			C55.439,11.517,55.432,11.524,55.432,11.535z M50.198,10.679c-0.022,0.032-0.027,0.062-0.017,0.088
			c0.01,0.028,0.031,0.041,0.064,0.041h1.341c0.087,0,0.129-0.037,0.129-0.113v-0.146c0-0.237,0.087-0.44,0.259-0.614
			c0.172-0.171,0.38-0.258,0.623-0.258c0.241,0,0.449,0.087,0.622,0.258c0.172,0.174,0.258,0.377,0.258,0.614v0.146
			c0,0.076,0.043,0.113,0.129,0.113h1.229c0.032,0,0.056-0.013,0.072-0.041c0.017-0.026,0.015-0.056-0.008-0.088
			c-0.28-0.409-0.533-0.851-0.76-1.325c-0.042-0.097-0.117-0.145-0.226-0.145h-2.602c-0.107,0-0.188,0.048-0.242,0.145
			C50.833,9.796,50.542,10.237,50.198,10.679z M53.219,6.963c-0.033-0.108-0.104-0.162-0.211-0.162h-0.743
			c-0.107,0-0.172,0.054-0.193,0.162c-0.043,0.15-0.098,0.307-0.161,0.468c-0.011,0.043-0.006,0.081,0.015,0.113
			c0.022,0.032,0.055,0.049,0.099,0.049h1.228c0.043,0,0.075-0.017,0.097-0.049s0.026-0.07,0.017-0.113
			C53.321,7.313,53.272,7.156,53.219,6.963z"/>
	</g>
</g>
</svg>
