<?xml version="1.0" encoding="utf-8"?>
<!-- Generator: Adobe Illustrator 16.0.0, SVG Export Plug-In . SVG Version: 6.00 Build 0)  -->
<!DOCTYPE svg PUBLIC "-//W3C//DTD SVG 1.1//EN" "http://www.w3.org/Graphics/SVG/1.1/DTD/svg11.dtd">
<svg version="1.1" xmlns="http://www.w3.org/2000/svg" xmlns:xlink="http://www.w3.org/1999/xlink" x="0px" y="0px" width="430px"
	 height="274.012px" viewBox="0 0 430 274.012" enable-background="new 0 0 430 274.012" xml:space="preserve">
<g id="BACKGROUND">
</g>
<g id="OBJECTS">
	<linearGradient id="SVGID_1_" gradientUnits="userSpaceOnUse" x1="214.9995" y1="57.8594" x2="214.9995" y2="264.2479">
		<stop  offset="0" style="stop-color:#E8F3F7"/>
		<stop  offset="1" style="stop-color:#FFFFFF"/>
	</linearGradient>
	<path fill="url(#SVGID_1_)" d="M48.127,269.456c0,0-55.311-32.125-47.342-77.496c7.969-45.372,41.439-56.612,39.049-112.805
		C37.443,22.96,94.354-11.348,149.176,3.44s47.649,70.982,81.917,72.165c34.267,1.183,70.128-30.758,132.287-12.422
		c62.159,18.337,74.909,89.773,62.159,114.093c-12.751,24.322-17.532,92.18-17.532,92.18H48.127z"/>
	<g>
		<ellipse fill="#F0EBFC" cx="218.287" cy="263.968" rx="139.17" ry="8.293"/>
		<polygon fill="#58677D" points="103.957,163.595 112.358,262.95 169.706,262.95 169.706,163.595 		"/>
		<path fill="#58677D" d="M179.934,170.281v85.097h11.71c0,0,7.807,7.026,11.32,7.808c3.513,0.78,107.737,0,107.737,0
			s16.004-5.075,14.833-18.347c0.062-6.246-4.684-11.711-4.684-11.711s12.491-1.951,13.271-14.833
			c0-6.636-5.465-12.102-5.465-12.102s13.271-7.416,13.271-16.784c0-9.369-5.465-12.882-5.465-12.882s14.053-6.636,14.053-18.347
			c0-11.71-12.101-11.32-12.101-11.32h-79.241l6.051-32.399c0,0,4.488-12.491,0-24.982c-4.489-12.491-8.783-26.934-16.98-28.496
			s-12.491,0.391-12.882,11.71c-0.391,11.32-0.391,28.496-0.391,28.496S202.964,165.987,179.934,170.281z"/>
	</g>
	<g>
		<path fill="#EFC44E" d="M142.57,77.479c0,0-5.645-4.382-15.658,1.151c-8.75,4.835-7.829,17.27-6.447,26.71
			c1.381,9.441-12.089,10.017-8.52,19.688c3.569,9.671,18.412,17.27,35.743,10.938c17.332-6.332,16.296-16.924,11.115-22.105
			c-5.181-5.181-7.138-11.027-6.677-21.632C152.587,81.624,142.57,77.479,142.57,77.479z"/>
		<path fill="#EFD3D0" d="M125.522,90.193c0,0-0.692,8.488,2.885,14.018s13.877,5.638,17.672-3.687
			c1.672-7.042,1.606-9.236,1.606-9.236s-5.422-1.23-6.872-7.668C140.814,83.62,136.716,92.229,125.522,90.193z"/>
		<path fill="#EFD3D0" d="M125.521,93.261c0,0-0.583-1.084-1.884-1.03c-1.301,0.054-2.836,3.788,2.566,5.959L125.521,93.261z"/>
		<path fill="#EFD3D0" d="M147.302,93.261c0,0,0.583-1.084,1.884-1.03c1.301,0.054,2.836,3.788-2.566,5.959L147.302,93.261z"/>
		<path fill="#D46C44" d="M132.617,111.529c0,0-4.323-0.086-9.158,0.95c-4.836,1.036-10.985,13.779-10.985,13.779
			s1.832,3.836,8.395,4.7l1.523-2.59v13.815c0,0,15.401,8.98,30.253,0v-15.024l1.794,4.038c0,0,5.2,0.063,7.532-3.404
			c0,0-3.916-10.593-8.579-13.529c-2.192-1.38-7.656-3.082-12.578-2.736C135.893,111.873,132.617,111.529,132.617,111.529z"/>
		<path fill="#EFD3D0" d="M132.617,107.454v4.075c0,0,0.556,3.368,3.988,3.713c3.432,0.346,4.209-3.281,4.209-3.281v-5.222
			C140.814,106.739,137.014,108.961,132.617,107.454z"/>
		<path fill="#EFD3D0" d="M113.671,127.792l-4.258,11.857h8.404l3.051-8.692C120.868,130.957,115.965,130.124,113.671,127.792z"/>
		<rect x="119.66" y="131.015" fill="#272727" width="35.115" height="19.342"/>
		<path fill="#EFD3D0" d="M161.971,127.792l4.258,11.857h-8.404l-3.051-8.692C154.774,130.957,160.245,130.556,161.971,127.792z"/>
		<path fill="#42679E" d="M151.551,158.416c0,0-15.888-11.628-25.444-15.313c-9.556-3.684-14.852-5.871-18.651-3.454
			s-3.684,11.744,12.665,17.615c16.348,5.872,29.646,5.757,29.646,5.757L151.551,158.416z"/>
		<path fill="#272727" d="M167.438,158.704l-15.888-0.288l-1.785,4.605c0,0,11.283,0.806,14.737-0.576
			C167.957,161.064,167.438,158.704,167.438,158.704z"/>
		<path fill="#42679E" d="M122.112,158.416c0,0,15.888-11.628,25.444-15.313c9.556-3.684,14.852-5.871,18.651-3.454
			s3.684,11.744-12.665,17.615c-16.349,5.872-29.646,5.757-29.646,5.757L122.112,158.416z"/>
		<path fill="#272727" d="M106.224,158.704l15.888-0.288l1.785,4.605c0,0-11.283,0.806-14.737-0.576
			C105.706,161.064,106.224,158.704,106.224,158.704z"/>
	</g>
	<g>
		<path fill="#EFD3D0" d="M292.281,99.293l1.278-3.47c0,0,14.063,5.479,13.697-12.967c0,0-2.922,2.557-11.506,1.096
			c0,0-1.096-3.288-3.47-3.835c-2.375-0.548-4.566,3.653-1.645,7.854l-3.104,7.854C287.532,95.824,291.003,97.102,292.281,99.293z"
			/>
		<path fill="#D46C44" d="M274.565,133.629c0,0-0.913-23.56,5.113-30.683c6.027-7.123,7.854-7.123,7.854-7.123
			s14.436,2.922,9.866,35.432C297.398,131.255,290.455,136.004,274.565,133.629z"/>
		<path fill="#D46C44" d="M289.724,103.703c0,0-5.113-2.375-6.939,2.009c-1.827,4.383,5.296,20.273,8.219,22.282
			c2.922,2.009,16.262,4.383,16.262,4.383h6.02v-3.287l-15.886-6.758C297.398,122.332,294.838,111.556,289.724,103.703z"/>
		<path fill="#42679E" d="M274.565,133.629c0,0-1.278,9.314,3.835,12.054c5.114,2.74,30.866,0.914,30.866,0.914l-7.123,29.952h4.2
			l18.264-42.255l-27.209-3.039C297.398,131.255,289.906,136.004,274.565,133.629z"/>
		<polygon fill="#385D89" points="330.27,176.549 320.684,143.375 324.607,134.294 330.27,134.294 335.018,176.549 		"/>
		<polygon fill="#272727" points="302.144,176.549 300.865,180.932 311.275,186.412 306.344,176.549 		"/>
		<polygon fill="#272727" points="330.232,176.549 328.954,180.932 339.365,186.412 334.434,176.549 		"/>
		<path fill="#EFD3D0" d="M313.284,129.5c0,0,2.169-0.479,3.949-0.89c1.781-0.411,7.675,3.206,4.727,3.584
			c-0.891,0.114-8.676,0.183-8.676,0.183V129.5z"/>
		<path fill="#EFC44E" d="M311.641,78.473c0,0,2.248-1.652,1.644-5.114c-0.502-2.876-3.47-3.014-3.47-3.014
			s-0.296-4.594-4.566-5.022c-3.185-0.32-4.565,1.552-4.565,1.552s-3.014-3.562-7.306-2.831c-4.292,0.731-4.84,3.653-4.84,3.653
			s-5.388-0.822-7.123,3.014s0,7.032,0,7.032s-2.009,2.648-1.644,5.57s3.47,5.114,3.47,5.114s0.401,4.932,5.36,4.694l2.036-5.151
			c-2.922-4.201-0.73-8.401,1.645-7.854c2.374,0.548,3.47,3.835,3.47,3.835c8.584,1.461,11.506-1.096,11.506-1.096
			c0.021,1.089-0.011,2.088-0.084,3.016c0.001,0,0.004-0.001,0.004-0.001s3.459,0.73,4.829-2.558S311.641,78.473,311.641,78.473z"/>
		<rect x="301.687" y="132.376" fill="#272727" width="41.094" height="1.918"/>
		<polygon fill="#272727" points="320.684,132.559 324.607,111.282 346.25,111.282 342.78,132.376 		"/>
	</g>
	<g>
		<ellipse fill="#F0EBFC" cx="130.537" cy="268.459" rx="74.372" ry="5.553"/>
		<path fill="#D46C44" d="M124.837,248.272c0,0,19.583-13.98,27.943-10.775s12.294,7.306,13.818,10.775
			c1.523,3.471,2.62,14.063-23.68,18.813c-26.3,4.748-29.953,1.826-29.953,1.826S112.669,255.537,124.837,248.272z"/>
		<path fill="#EFC44E" d="M156.631,233.261l1.628-1.791c0,0-0.73-3.105-0.548-5.662s1.461-5.114,3.47-4.201
			c2.009,0.914,2.557,2.923,2.009,5.479c0,0,12.785,2.739,16.255-2.557c0,0,0.706,2.063,0.915,4.748h0c0,0,2.92-7.488-0.915-12.784
			c-3.835-5.297-13.515-7.671-21.003-2.923C150.954,218.32,151.715,228.843,156.631,233.261L156.631,233.261z"/>
		<path fill="#EFD3D0" d="M179.445,224.53c0,0,2.192,6.392,0,11.323c-2.191,4.932-8.219,7.488-17.898,3.652
			c0,0-0.73,1.827-1.096,4.201s-7.854,2.557-7.671-6.21l5.479-6.026c0,0-0.73-3.105-0.548-5.662s1.461-5.114,3.47-4.201
			c2.009,0.914,2.557,2.923,2.009,5.479C163.19,227.086,175.975,229.826,179.445,224.53z"/>
		<circle fill="#EFC44E" cx="163.647" cy="210.741" r="5.936"/>
		<path fill="#D46C44" d="M140.11,245.104c0,0,3.624,4.173,12.667,5.132c0,0-0.271-4.794-2.325-8.219
			S142.781,239.425,140.11,245.104z"/>
		<path fill="#E87E97" d="M166.598,248.272c0,0,2.346,4.292,2.346,6.347s0,2.055,0,2.055h-3.378
			C165.566,256.673,167.814,252.61,166.598,248.272z"/>
		<path fill="#EFD3D0" d="M140.885,245.826c0,0,1.896,18.656,6.143,23.176c2.191,1.644,26.163,0.799,26.163,0.799v-4.497
			l-18.903-3.973l-2.333-11.192C151.954,250.138,145.426,249.224,140.885,245.826z"/>
		<polygon fill="#272727" points="177.468,263.511 186.691,253.41 193.788,253.41 185.628,263.511 		"/>
		<polygon fill="#EFD3D0" points="168.259,256.673 168.944,261.878 187.983,266.262 187.983,269.139 161.067,269.139 
			159.712,261.699 165.566,256.673 		"/>
		<path fill="#EFD3D0" d="M173.19,265.988c0,0,2.74-3.013,5.068-3.835s3.166,0.753,3.166,0.753s4.094-3.767,5.463-3.63
			c1.37,0.138,8.219,9.952-13.698,10.524V265.988z"/>
		<path fill="#EFD3D0" d="M187.983,266.81c0,0,3.562-1.877,5.753-2.273c2.191-0.397,6.575,3.506,5.753,4.603h-11.506V266.81z"/>
		<path fill="#42679E" d="M112.965,268.911H65.662l-13.88-47.492l4.383-1.09l18.081,31.049l35.614-1.142
			c0,0,8.716-4.133,13.947-1.313C123.807,248.922,113.875,254.709,112.965,268.911z"/>
		<polygon fill="#385D89" points="91.049,215.215 71.013,245.826 74.246,251.377 85.211,251.026 95.432,215.215 		"/>
		<polygon fill="#272727" points="56.165,220.329 54.339,215.215 39.728,216.676 51.782,221.418 		"/>
		<polygon fill="#272727" points="95.432,215.215 96.345,209.553 83.998,204.263 91.049,215.215 		"/>
	</g>
	<g id="DESIGNED_BY_FREEPIK_1_">
	</g>
</g>
<g id="DESIGNED_BY_FREEPIK">
</g>
</svg>
