<?xml version="1.0" encoding="utf-8"?>
<!-- Generator: Adobe Illustrator 16.0.0, SVG Export Plug-In . SVG Version: 6.00 Build 0)  -->
<!DOCTYPE svg PUBLIC "-//W3C//DTD SVG 1.1//EN" "http://www.w3.org/Graphics/SVG/1.1/DTD/svg11.dtd">
<svg version="1.1" xmlns="http://www.w3.org/2000/svg" xmlns:xlink="http://www.w3.org/1999/xlink" x="0px" y="0px"
	 width="476.147px" height="294.073px" viewBox="0 0 476.147 294.073" enable-background="new 0 0 476.147 294.073"
	 xml:space="preserve">
<g id="BACKGROUND">
</g>
<g id="OBJECTS">
	<path fill="#51677F" d="M327.016,97.685c0-3.232-0.244-6.407-0.694-9.516l-10.402-3.613c-2.873-6.792-4.324-10.223-7.196-17.015
		l4.648-9.971c-3.688-4.793-8.01-9.072-12.858-12.691l-9.916,4.804c-6.833-2.771-10.286-4.171-17.119-6.943l-3.763-10.337
		c-2.802-0.363-5.652-0.571-8.553-0.571c-3.233,0-6.408,0.244-9.517,0.694l-3.612,10.403c-6.792,2.873-10.223,4.324-17.015,7.196
		l-9.971-4.649c-4.793,3.688-9.072,8.01-12.691,12.859l4.804,9.916c-2.771,6.834-4.171,10.286-6.943,17.12l-10.337,3.763
		c-0.363,2.802-0.571,5.651-0.571,8.552c0,3.233,0.244,6.408,0.694,9.517l10.403,3.613c2.873,6.792,4.324,10.223,7.196,17.015
		l-4.649,9.972c3.688,4.792,8.01,9.072,12.859,12.69l9.916-4.804c6.834,2.771,10.286,4.172,17.121,6.943l3.763,10.336
		c2.801,0.364,5.651,0.571,8.552,0.571c3.233,0,6.408-0.243,9.517-0.693l3.612-10.403c6.792-2.872,10.224-4.323,17.016-7.196
		l9.971,4.649c4.793-3.688,9.072-8.011,12.691-12.858l-4.804-9.916c2.771-6.834,4.171-10.286,6.942-17.12l10.337-3.763
		C326.808,103.436,327.016,100.586,327.016,97.685z"/>
	<path fill="#F16C3F" stroke="#51677F" stroke-width="1.5" stroke-miterlimit="10" d="M463.3,84.512l12.084-9.257
		c-0.361-9.704-2.684-18.903-6.59-27.216l-15.009-2.683c-5.115-5.361-8.749-9.169-13.865-14.53l-1.977-15.113
		c-8.144-4.307-17.233-7.053-26.878-7.862l-9.812,11.638c-7.2,1.75-12.315,2.993-19.516,4.742l-14.067-5.84
		c-7.979,5.03-14.872,11.615-20.259,19.335l5.174,14.322c-2.085,7.111-3.565,12.162-5.65,19.272l-12.084,9.256
		c0.361,9.704,2.684,18.904,6.59,27.215l15.009,2.684c5.116,5.36,8.75,9.169,13.865,14.529l1.977,15.113
		c8.144,4.307,17.233,7.054,26.878,7.861l9.812-11.637c7.201-1.75,12.315-2.993,19.516-4.743l14.067,5.841
		c7.979-5.03,14.872-11.615,20.259-19.336l-5.174-14.322C459.734,96.673,461.215,91.623,463.3,84.512z"/>
	<path fill="#FFC641" stroke="#51677F" stroke-width="1.5" stroke-miterlimit="10" d="M367.232,188.946l-16.276-2.831
		c-2-2.615-3.203-4.189-5.202-6.806l1.354-14.473c-5.787-4.062-12.315-7.139-19.353-8.961l-10.264,9.101
		c-3.292-0.067-5.272-0.108-8.564-0.177l-9.679-9.319c-7.204,1.643-13.917,4.569-19.877,8.545l0.729,13.934
		c-2.105,2.532-3.372,4.055-5.478,6.587l-15.388,2.027c-2.992,5.813-5.068,12.17-6.027,18.893l13.729,9.822
		c0.667,3.225,1.067,5.164,1.734,8.389l-10.026,16.646c2.52,5.165,5.753,9.917,9.58,14.121l19.689-5.591
		c2.938,1.49,4.704,2.386,7.641,3.875l7.652,20.616c3.079,0.486,6.232,0.745,9.447,0.745c2.037,0,4.051-0.104,6.036-0.302
		l8.546-20.407c2.995-1.368,4.798-2.19,7.793-3.558l20.145,6.625c3.872-3.881,7.207-8.296,9.906-13.114l-9.788-17.874
		c0.798-3.194,1.278-5.116,2.077-8.312l14.972-9.805C371.621,200.839,369.859,194.653,367.232,188.946z"/>
	<circle fill="#FFFFFF" stroke="#51677F" stroke-width="1.5" stroke-miterlimit="10" cx="405.118" cy="77.917" r="46.25"/>
	<path fill="none" stroke="#51677F" stroke-width="1.5" stroke-linecap="round" stroke-linejoin="round" stroke-miterlimit="10" d="
		M403.911,38.334c21.861,0,39.583,17.722,39.583,39.583"/>
	<circle fill="#FFFFFF" stroke="#51677F" stroke-width="1.5" stroke-miterlimit="10" cx="261.162" cy="97.685" r="44.632"/>
	<g>
		<defs>
			<circle id="SVGID_1_" cx="405.118" cy="77.198" r="46.25"/>
		</defs>
		<clipPath id="SVGID_2_">
			<use xlink:href="#SVGID_1_"  overflow="visible"/>
		</clipPath>
		<g clip-path="url(#SVGID_2_)">
			<path fill="#FFFFFF" stroke="#51677F" stroke-width="1.5" stroke-miterlimit="10" d="M433.108,124.753h-56.375l0,0
				c0-12.771,10.354-23.125,23.125-23.125h10.125C422.755,101.628,433.108,111.982,433.108,124.753L433.108,124.753z"/>
			<path fill="#FFFFFF" stroke="#51677F" stroke-width="1.5" stroke-miterlimit="10" d="M404.921,105.108L404.921,105.108
				c-1.849,0-3.347-1.498-3.347-3.347V90.483h6.692v11.278C408.267,103.61,406.769,105.108,404.921,105.108z"/>
			<path fill="#FFFFFF" stroke="#51677F" stroke-width="1.5" stroke-miterlimit="10" d="M404.921,97.795L404.921,97.795
				c-9.113,0-16.5-7.388-16.5-16.5v-23.5h33v23.5C421.421,90.408,414.033,97.795,404.921,97.795z"/>
			<g>
				<path fill="#FFFFFF" stroke="#51677F" stroke-width="1.5" stroke-miterlimit="10" d="M388.421,80.25h-0.859
					c-2.049,0-3.709-1.66-3.709-3.708l0,0c0-2.048,1.66-3.708,3.709-3.708h0.859V80.25z"/>
				<path fill="#FFFFFF" stroke="#51677F" stroke-width="1.5" stroke-miterlimit="10" d="M421.421,72.833h0.859
					c2.048,0,3.708,1.66,3.708,3.708l0,0c0,2.048-1.66,3.708-3.708,3.708h-0.859V72.833z"/>
			</g>
			<g>
				<path fill="#FFC641" stroke="#51677F" stroke-width="1.5" stroke-miterlimit="10" d="M408.929,57.674
					c0,0-8.699,14.276-25.094,12.491v-2.597c0-6.387,3.91-12.24,9.938-14.352C398.039,51.722,403.329,52.074,408.929,57.674z"/>
				<path fill="#FFC641" stroke="#51677F" stroke-width="1.5" stroke-miterlimit="10" d="M388.507,56.462c0,0,13,21.333,37.5,18.667
					v-3.881c0-9.544-5.844-18.292-14.852-21.447C404.78,47.567,396.875,48.094,388.507,56.462z"/>
			</g>
			<g>
				
					<line fill="none" stroke="#51677F" stroke-width="1.5" stroke-linecap="round" stroke-linejoin="round" stroke-miterlimit="10" x1="387.743" y1="124.753" x2="387.743" y2="114.184"/>
				
					<line fill="none" stroke="#51677F" stroke-width="1.5" stroke-linecap="round" stroke-linejoin="round" stroke-miterlimit="10" x1="422.098" y1="124.753" x2="422.098" y2="114.184"/>
			</g>
			<path fill="none" stroke="#51677F" stroke-width="1.5" stroke-miterlimit="10" d="M413.299,101.628
				c0,4.627-3.751,8.378-8.378,8.378s-8.378-3.751-8.378-8.378"/>
			<path fill="#FFFFFF" stroke="#51677F" stroke-width="1.5" stroke-miterlimit="10" d="M404.921,90.483
				c2.582,0,4.675-1.533,4.675-3.425h-9.35C400.246,88.95,402.339,90.483,404.921,90.483z"/>
			
				<line fill="none" stroke="#51677F" stroke-width="1.5" stroke-linecap="round" stroke-linejoin="round" stroke-miterlimit="10" x1="404.921" y1="77.795" x2="404.921" y2="83.587"/>
			<g>
				
					<line fill="none" stroke="#51677F" stroke-width="1.5" stroke-linecap="round" stroke-linejoin="round" stroke-miterlimit="10" x1="410.073" y1="76.542" x2="414.772" y2="75.378"/>
				
					<line fill="none" stroke="#51677F" stroke-width="1.5" stroke-linecap="round" stroke-linejoin="round" stroke-miterlimit="10" x1="399.769" y1="76.542" x2="395.068" y2="75.378"/>
			</g>
		</g>
	</g>
	<path fill="#30C0C3" stroke="#51677F" stroke-width="1.5" stroke-miterlimit="10" d="M233.856,200.855
		c0-3.662-0.276-7.259-0.786-10.779l-11.784-4.093c-3.254-7.693-4.897-11.58-8.151-19.273l5.266-11.294
		c-4.178-5.43-9.073-10.277-14.565-14.376l-11.232,5.441c-7.741-3.14-11.652-4.726-19.393-7.864l-4.262-11.709
		c-3.173-0.412-6.402-0.647-9.688-0.647c-3.662,0-7.259,0.276-10.779,0.786l-4.093,11.784c-7.693,3.254-11.58,4.897-19.273,8.151
		l-11.294-5.267c-5.429,4.178-10.277,9.074-14.376,14.565l5.442,11.232c-3.14,7.741-4.726,11.651-7.865,19.393l-11.709,4.262
		c-0.412,3.174-0.647,6.402-0.647,9.688c0,3.662,0.276,7.259,0.786,10.78l11.784,4.092c3.254,7.693,4.898,11.58,8.152,19.273
		l-5.267,11.295c4.178,5.43,9.074,10.276,14.565,14.376l11.232-5.441c7.741,3.139,11.652,4.725,19.393,7.864l4.262,11.709
		c3.173,0.412,6.402,0.646,9.688,0.646c3.662,0,7.259-0.275,10.78-0.785l4.092-11.784c7.693-3.254,11.58-4.897,19.273-8.151
		l11.295,5.266c5.429-4.178,10.276-9.073,14.375-14.565l-5.441-11.231c3.139-7.741,4.725-11.652,7.864-19.393l11.709-4.263
		C233.622,207.37,233.856,204.141,233.856,200.855z"/>
	<circle fill="#FFFFFF" stroke="#51677F" stroke-width="1.5" stroke-miterlimit="10" cx="159.262" cy="200.855" r="50.556"/>
	<circle fill="#FFFFFF" stroke="#51677F" stroke-width="1.5" stroke-miterlimit="10" cx="159.262" cy="200.855" r="50.556"/>
	<circle fill="#FFFFFF" stroke="#51677F" stroke-width="1.5" stroke-miterlimit="10" cx="312.774" cy="211.839" r="36.785"/>
	<circle fill="#FFFFFF" stroke="#51677F" stroke-width="1.5" stroke-miterlimit="10" cx="312.774" cy="211.839" r="36.785"/>
	<path fill="#F16C3F" stroke="#51677F" stroke-width="1.5" stroke-miterlimit="10" d="M132.549,58.708l-19.591-0.891
		c-2.748-2.78-4.4-4.454-7.147-7.234l-0.575-17.246c-7.424-3.915-15.573-6.559-24.134-7.649l-10.72,12.256
		c-3.887,0.414-6.226,0.663-10.112,1.077l-12.795-9.523c-8.236,3.016-15.702,7.469-22.124,13.044l2.948,16.299
		c-2.1,3.297-3.363,5.28-5.462,8.578L5.021,72.115c-2.652,7.293-4.143,15.091-4.264,23.151l17.641,9.507
		c1.269,3.696,2.032,5.921,3.301,9.618l-9.31,21.105c3.742,5.703,8.262,10.813,13.399,15.19l22.348-9.536
		c3.682,1.313,5.896,2.104,9.578,3.416l12.104,23.129c3.698,0.111,7.451-0.057,11.236-0.539c2.399-0.306,4.754-0.73,7.063-1.262
		l7.001-25.313c3.322-2.06,5.321-3.298,8.643-5.358l24.715,4.78c3.978-5.151,7.242-10.851,9.698-16.93l-14.208-19.579
		c0.461-3.882,0.739-6.217,1.2-10.099l16.159-13.792C139.502,72.055,136.499,65.035,132.549,58.708z"/>
	<circle fill="#FFFFFF" stroke="#51677F" stroke-width="1.5" stroke-miterlimit="10" cx="71.041" cy="93.836" r="43.667"/>
	<g>
		<g>
			<path fill="none" stroke="#51677F" stroke-width="1.5" stroke-linecap="round" stroke-linejoin="round" d="M419.388,147.543
				c0,0,0.146,0.894,0.278,2.479"/>
			
				<path fill="none" stroke="#51677F" stroke-width="1.5" stroke-linecap="round" stroke-linejoin="round" stroke-dasharray="5.1204,3.0722" d="
				M419.844,153.086c0.424,12.642-2.164,43.578-35.479,57.481"/>
			<path fill="none" stroke="#51677F" stroke-width="1.5" stroke-linecap="round" stroke-linejoin="round" d="M382.936,211.147
				c-0.766,0.3-1.546,0.592-2.343,0.874"/>
			<g>
				<polygon fill="#51677F" points="383.071,204.485 384.416,205.154 381.115,211.772 387.958,214.581 387.387,215.969 
					379.054,212.546 				"/>
			</g>
		</g>
	</g>
	<g>
		<defs>
			<circle id="SVGID_3_" cx="71.041" cy="93.836" r="42.947"/>
		</defs>
		<clipPath id="SVGID_4_">
			<use xlink:href="#SVGID_3_"  overflow="visible"/>
		</clipPath>
		<g clip-path="url(#SVGID_4_)">
			<path fill="#FFFFFF" stroke="#51677F" stroke-width="1.5" stroke-miterlimit="10" d="M97.06,137.788H45.022l0,0
				c0-11.789,9.557-21.346,21.346-21.346h9.346C87.503,116.442,97.06,125.999,97.06,137.788L97.06,137.788z"/>
			<path fill="#FFFFFF" stroke="#51677F" stroke-width="1.5" stroke-miterlimit="10" d="M71.041,119.653L71.041,119.653
				c-1.706,0-3.089-1.383-3.089-3.089v-10.411h6.178v10.411C74.13,118.27,72.747,119.653,71.041,119.653z"/>
			<path fill="#FFFFFF" stroke="#51677F" stroke-width="1.5" stroke-miterlimit="10" d="M71.041,112.903L71.041,112.903
				c-8.412,0-15.23-6.818-15.23-15.23V86.686c0-5.912,4.793-10.706,10.706-10.706h9.049c5.913,0,10.706,4.793,10.706,10.706v10.986
				C86.272,106.084,79.453,112.903,71.041,112.903z"/>
			<g>
				<path fill="#FFFFFF" stroke="#51677F" stroke-width="1.5" stroke-miterlimit="10" d="M55.811,96.708h-0.793
					c-1.89,0-3.423-1.532-3.423-3.423l0,0c0-1.891,1.533-3.423,3.423-3.423h0.793V96.708z"/>
				<path fill="#FFFFFF" stroke="#51677F" stroke-width="1.5" stroke-miterlimit="10" d="M86.272,89.862h0.793
					c1.891,0,3.423,1.532,3.423,3.423l0,0c0,1.891-1.533,3.423-3.423,3.423h-0.793V89.862z"/>
			</g>
			<g>
				
					<line fill="none" stroke="#51677F" stroke-width="1.5" stroke-linecap="round" stroke-linejoin="round" stroke-miterlimit="10" x1="55.186" y1="137.788" x2="55.186" y2="128.031"/>
				
					<line fill="none" stroke="#51677F" stroke-width="1.5" stroke-linecap="round" stroke-linejoin="round" stroke-miterlimit="10" x1="86.897" y1="137.788" x2="86.897" y2="128.031"/>
			</g>
			<path fill="none" stroke="#51677F" stroke-width="1.5" stroke-miterlimit="10" d="M78.774,116.442
				c0,4.271-3.462,7.733-7.733,7.733c-4.271,0-7.733-3.463-7.733-7.733"/>
			
				<path fill="none" stroke="#51677F" stroke-width="1.5" stroke-linecap="round" stroke-linejoin="round" stroke-miterlimit="10" d="
				M81.649,117.494c0,5.858-4.75,10.607-10.608,10.607s-10.607-4.749-10.607-10.607"/>
			
				<path fill="none" stroke="#51677F" stroke-width="1.5" stroke-linecap="round" stroke-linejoin="round" stroke-miterlimit="10" d="
				M66.726,104.043c0,1.746,1.932,3.161,4.315,3.161c2.383,0,4.315-1.415,4.315-3.161"/>
			
				<line fill="none" stroke="#51677F" stroke-width="1.5" stroke-linecap="round" stroke-linejoin="round" stroke-miterlimit="10" x1="71.041" y1="94.442" x2="71.041" y2="99.788"/>
			<g>
				
					<line fill="none" stroke="#51677F" stroke-width="1.5" stroke-linecap="round" stroke-linejoin="round" stroke-miterlimit="10" x1="75.74" y1="92.67" x2="80.125" y2="91.806"/>
				
					<line fill="none" stroke="#51677F" stroke-width="1.5" stroke-linecap="round" stroke-linejoin="round" stroke-miterlimit="10" x1="66.239" y1="92.212" x2="61.958" y2="90.931"/>
			</g>
			<circle fill="#51677F" cx="71.041" cy="133.124" r="1.434"/>
			
				<path fill="#FFC641" stroke="#51677F" stroke-width="1.5" stroke-linecap="round" stroke-linejoin="round" stroke-miterlimit="10" d="
				M91.46,78.712c0-2.568-1.934-4.649-4.319-4.649c-1.348,0-2.536,0.678-3.328,1.72c0.116-0.42,0.197-0.856,0.197-1.316
				c0-2.568-1.934-4.65-4.318-4.65c-0.765,0-1.467,0.238-2.086,0.617c0.217-0.555,0.338-1.165,0.338-1.806
				c0-2.568-1.934-4.65-4.319-4.65c-2.122,0-3.877,1.649-4.241,3.82c-0.424-0.151-0.876-0.234-1.348-0.234
				c-1.56,0-2.915,0.899-3.674,2.233c-0.76-0.719-1.746-1.169-2.837-1.169c-2.385,0-4.319,2.082-4.319,4.649
				c0,0.65,0.125,1.268,0.349,1.829c-0.636-0.396-1.364-0.64-2.151-0.64c-2.385,0-4.319,2.082-4.319,4.649
				c0,0.576,0.11,1.122,0.288,1.631c-0.472,0.745-0.75,1.645-0.75,2.615c0,2.568,1.934,4.65,4.319,4.65
				c0.607,0,1.183-3.534,1.707-3.778h27.279c0.686,0.494,1.51,4.182,2.397,4.182c2.385,0,4.319-2.082,4.319-4.65
				c0-0.666-0.135-1.296-0.369-1.869C91.005,81.063,91.46,79.947,91.46,78.712z"/>
		</g>
	</g>
	<g>
		<defs>
			<circle id="SVGID_5_" cx="159.262" cy="200.855" r="49.915"/>
		</defs>
		<clipPath id="SVGID_6_">
			<use xlink:href="#SVGID_5_"  overflow="visible"/>
		</clipPath>
		<g clip-path="url(#SVGID_6_)">
			<path fill="#FFFFFF" stroke="#51677F" stroke-width="1.5" stroke-miterlimit="10" d="M190.425,251.566h-62.327l0,0
				c0-14.12,11.447-25.566,25.566-25.566h11.194C178.979,226,190.425,237.446,190.425,251.566L190.425,251.566z"/>
			
				<rect x="136.895" y="188.004" fill="#FFC641" stroke="#51677F" stroke-width="1.5" stroke-miterlimit="10" width="44.735" height="31.994"/>
			<path fill="#FFFFFF" stroke="#51677F" stroke-width="1.5" stroke-miterlimit="10" d="M159.262,229.846L159.262,229.846
				c-2.043,0-3.7-1.657-3.7-3.7v-12.47h7.399v12.47C162.961,228.189,161.305,229.846,159.262,229.846z"/>
			<path fill="#FFFFFF" stroke="#51677F" stroke-width="1.5" stroke-miterlimit="10" d="M159.262,221.761L159.262,221.761
				c-10.075,0-18.242-8.167-18.242-18.242v-25.981h36.484v25.981C177.504,213.594,169.336,221.761,159.262,221.761z"/>
			<g>
				<path fill="#FFFFFF" stroke="#51677F" stroke-width="1.5" stroke-miterlimit="10" d="M141.02,202.364h-0.95
					c-2.264,0-4.1-1.836-4.1-4.1l0,0c0-2.265,1.835-4.101,4.1-4.101h0.95V202.364z"/>
				<path fill="#FFFFFF" stroke="#51677F" stroke-width="1.5" stroke-miterlimit="10" d="M177.504,194.164h0.95
					c2.264,0,4.1,1.836,4.1,4.101l0,0c0,2.264-1.835,4.1-4.1,4.1h-0.95V194.164z"/>
			</g>
			<g>
				
					<line fill="none" stroke="#51677F" stroke-width="1.5" stroke-linecap="round" stroke-linejoin="round" stroke-miterlimit="10" x1="140.271" y1="251.566" x2="140.271" y2="239.88"/>
				
					<line fill="none" stroke="#51677F" stroke-width="1.5" stroke-linecap="round" stroke-linejoin="round" stroke-miterlimit="10" x1="178.252" y1="251.566" x2="178.252" y2="239.88"/>
			</g>
			<path fill="none" stroke="#51677F" stroke-width="1.5" stroke-miterlimit="10" d="M168.524,226c0,5.115-4.147,9.263-9.263,9.263
				c-5.115,0-9.263-4.147-9.263-9.263"/>
			<path fill="#FFFFFF" stroke="#51677F" stroke-width="1.5" stroke-miterlimit="10" d="M159.262,213.676
				c2.854,0,5.168-1.695,5.168-3.786h-10.337C154.093,211.981,156.407,213.676,159.262,213.676z"/>
			
				<line fill="none" stroke="#51677F" stroke-width="1.5" stroke-linecap="round" stroke-linejoin="round" stroke-miterlimit="10" x1="159.262" y1="199.65" x2="159.262" y2="206.053"/>
			<g>
				
					<line fill="none" stroke="#51677F" stroke-width="1.5" stroke-linecap="round" stroke-linejoin="round" stroke-miterlimit="10" x1="153.603" y1="196.705" x2="148.351" y2="197.739"/>
				
					<line fill="none" stroke="#51677F" stroke-width="1.5" stroke-linecap="round" stroke-linejoin="round" stroke-miterlimit="10" x1="164.982" y1="197.252" x2="170.11" y2="198.788"/>
			</g>
			<path fill="#FFC641" stroke="#51677F" stroke-width="1.5" stroke-miterlimit="10" d="M181.629,190.839
				c0-5.846-44.735-5.846-44.735,0v-1.465c0-11.644,9.439-21.083,21.083-21.083h2.57c11.644,0,21.083,9.439,21.083,21.083V190.839z"
				/>
			<path fill="none" stroke="#51677F" stroke-width="1.5" stroke-miterlimit="10" d="M159.422,234.636c0,0,2.405,5.238,4.251,5.237
				c7.303-0.004,8.426-12.657,5.172-13.149"/>
			<path fill="none" stroke="#51677F" stroke-width="1.5" stroke-miterlimit="10" d="M159.422,234.636c0,0,2.405,5.238,4.251,5.237
				c7.303-0.004,8.426-12.657,5.172-13.149"/>
			<path fill="none" stroke="#51677F" stroke-width="1.5" stroke-miterlimit="10" d="M159.101,234.636c0,0-2.405,5.238-4.251,5.237
				c-7.303-0.004-8.426-12.657-5.172-13.149"/>
			<circle fill="#51677F" cx="159.262" cy="245.98" r="1.717"/>
		</g>
	</g>
	<g>
		<defs>
			<circle id="SVGID_7_" cx="261.162" cy="97.131" r="44.632"/>
		</defs>
		<clipPath id="SVGID_8_">
			<use xlink:href="#SVGID_7_"  overflow="visible"/>
		</clipPath>
		<g clip-path="url(#SVGID_8_)">
			<circle fill="#FFC641" stroke="#51677F" stroke-width="1.5" stroke-miterlimit="10" cx="261.134" cy="74.906" r="8.743"/>
			<path fill="#FFFFFF" stroke="#51677F" stroke-width="1.5" stroke-miterlimit="10" d="M288.683,143.097H235.08l0,0
				c0-12.144,9.844-21.988,21.988-21.988h9.627C278.838,121.109,288.683,130.954,288.683,143.097L288.683,143.097z"/>
			<path fill="#FFFFFF" stroke="#51677F" stroke-width="1.5" stroke-miterlimit="10" d="M261.881,124.417L261.881,124.417
				c-1.757,0-3.182-1.425-3.182-3.182v-10.725h6.363v10.725C265.063,122.993,263.639,124.417,261.881,124.417z"/>
			<path fill="#FFFFFF" stroke="#51677F" stroke-width="1.5" stroke-miterlimit="10" d="M261.881,117.464L261.881,117.464
				c-8.664,0-15.688-7.024-15.688-15.688V86.472c0-3.889,3.152-7.041,7.042-7.041h17.294c3.889,0,7.041,3.152,7.041,7.041v15.304
				C277.569,110.44,270.546,117.464,261.881,117.464z"/>
			<g>
				<path fill="#FFFFFF" stroke="#51677F" stroke-width="1.5" stroke-miterlimit="10" d="M246.192,100.782h-0.817
					c-1.947,0-3.526-1.578-3.526-3.525l0,0c0-1.948,1.579-3.526,3.526-3.526h0.817V100.782z"/>
				<path fill="#FFFFFF" stroke="#51677F" stroke-width="1.5" stroke-miterlimit="10" d="M277.569,93.73h0.817
					c1.947,0,3.526,1.578,3.526,3.526l0,0c0,1.947-1.579,3.525-3.526,3.525h-0.817V93.73z"/>
			</g>
			<g>
				
					<line fill="none" stroke="#51677F" stroke-width="1.5" stroke-linecap="round" stroke-linejoin="round" stroke-miterlimit="10" x1="245.549" y1="143.097" x2="245.549" y2="133.047"/>
				
					<line fill="none" stroke="#51677F" stroke-width="1.5" stroke-linecap="round" stroke-linejoin="round" stroke-miterlimit="10" x1="278.214" y1="143.097" x2="278.214" y2="133.047"/>
			</g>
			<path fill="none" stroke="#51677F" stroke-width="1.5" stroke-miterlimit="10" d="M269.848,121.109
				c0,4.399-3.567,7.966-7.967,7.966s-7.966-3.566-7.966-7.966"/>
			<path fill="#FFFFFF" stroke="#51677F" stroke-width="1.5" stroke-miterlimit="10" d="M261.881,110.511
				c2.455,0,4.445-1.458,4.445-3.256h-8.89C257.437,109.053,259.426,110.511,261.881,110.511z"/>
			
				<line fill="none" stroke="#51677F" stroke-width="1.5" stroke-linecap="round" stroke-linejoin="round" stroke-miterlimit="10" x1="261.881" y1="98.448" x2="261.881" y2="103.955"/>
			
				<line fill="none" stroke="#51677F" stroke-width="1.5" stroke-linecap="round" stroke-linejoin="round" stroke-miterlimit="10" x1="257.056" y1="96.46" x2="252.456" y2="96.259"/>
			
				<line fill="none" stroke="#51677F" stroke-width="1.5" stroke-linecap="round" stroke-linejoin="round" stroke-miterlimit="10" x1="257.056" y1="96.46" x2="252.456" y2="96.259"/>
			
				<line fill="none" stroke="#51677F" stroke-width="1.5" stroke-linecap="round" stroke-linejoin="round" stroke-miterlimit="10" x1="266.707" y1="96.46" x2="271.306" y2="96.259"/>
			<path fill="#FFC641" stroke="#51677F" stroke-width="1.5" stroke-miterlimit="10" d="M279.741,93.73
				c0-4.333-35.721-4.333-35.721,0v-1.17c0-9.297,7.537-16.834,16.835-16.834h2.052c9.297,0,16.834,7.537,16.834,16.834V93.73z"/>
			<circle fill="#51677F" cx="261.881" cy="138.293" r="1.477"/>
			<path fill="none" stroke="#51677F" stroke-width="1.5" stroke-miterlimit="10" d="M255.545,126.446
				c-1.092,0.569-2.438,0.146-3.007-0.945s-0.146-2.438,0.945-3.007"/>
			<path fill="none" stroke="#51677F" stroke-width="1.5" stroke-miterlimit="10" d="M258.974,128.871
				c-0.671,1.032-2.051,1.325-3.083,0.654s-1.325-2.052-0.654-3.084"/>
			<path fill="none" stroke="#51677F" stroke-width="1.5" stroke-miterlimit="10" d="M255.545,126.446
				c-1.092,0.569-2.438,0.146-3.007-0.945s-0.146-2.438,0.945-3.007"/>
			<path fill="none" stroke="#51677F" stroke-width="1.5" stroke-miterlimit="10" d="M258.974,128.871
				c-0.671,1.032-2.051,1.325-3.083,0.654s-1.325-2.052-0.654-3.084"/>
			<path fill="none" stroke="#51677F" stroke-width="1.5" stroke-miterlimit="10" d="M268.217,126.446
				c1.092,0.569,2.438,0.146,3.007-0.945c0.569-1.092,0.146-2.438-0.945-3.007"/>
			<path fill="none" stroke="#51677F" stroke-width="1.5" stroke-miterlimit="10" d="M264.788,128.871
				c0.671,1.032,2.052,1.325,3.084,0.654s1.324-2.052,0.653-3.084"/>
			<path fill="none" stroke="#51677F" stroke-width="1.5" stroke-miterlimit="10" d="M263.947,129.354
				c0.034,1.23-0.937,2.255-2.167,2.288c-1.23,0.034-2.256-0.937-2.289-2.167"/>
		</g>
	</g>
	<g>
		<defs>
			<circle id="SVGID_9_" cx="312.774" cy="211.152" r="36.785"/>
		</defs>
		<clipPath id="SVGID_10_">
			<use xlink:href="#SVGID_9_"  overflow="visible"/>
		</clipPath>
		<g clip-path="url(#SVGID_10_)">
			<path fill="#FFFFFF" stroke="#51677F" stroke-width="1.5" stroke-miterlimit="10" d="M334.16,248.937h-42.771l0,0
				c0-16.254,7.855-23.545,17.545-23.545h7.682C326.306,225.392,334.16,231.599,334.16,248.937L334.16,248.937z"/>
			<path fill="#FFFFFF" stroke="#51677F" stroke-width="1.5" stroke-miterlimit="10" d="M312.774,228.032L312.774,228.032
				c-1.402,0-2.539-1.137-2.539-2.539v-8.557h5.078v8.557C315.313,226.895,314.177,228.032,312.774,228.032z"/>
			<path fill="#FFFFFF" stroke="#51677F" stroke-width="1.5" stroke-miterlimit="10" d="M312.774,222.484L312.774,222.484
				c-6.914,0-12.519-5.604-12.519-12.519v-8.977c0-4.89,3.964-8.853,8.853-8.853h7.332c4.889,0,8.853,3.963,8.853,8.853v8.977
				C325.293,216.879,319.688,222.484,312.774,222.484z"/>
			<g>
				<path fill="#FFFFFF" stroke="#51677F" stroke-width="1.5" stroke-miterlimit="10" d="M300.256,209.172h-0.651
					c-1.555,0-2.813-1.26-2.813-2.813l0,0c0-1.554,1.259-2.813,2.813-2.813h0.651V209.172z"/>
				<path fill="#FFFFFF" stroke="#51677F" stroke-width="1.5" stroke-miterlimit="10" d="M325.293,203.545h0.652
					c1.554,0,2.813,1.26,2.813,2.813l0,0c0,1.554-1.26,2.813-2.813,2.813h-0.652V203.545z"/>
			</g>
			<g>
				
					<line fill="none" stroke="#51677F" stroke-width="1.5" stroke-linecap="round" stroke-linejoin="round" stroke-miterlimit="10" x1="299.742" y1="248.937" x2="299.742" y2="240.917"/>
				
					<line fill="none" stroke="#51677F" stroke-width="1.5" stroke-linecap="round" stroke-linejoin="round" stroke-miterlimit="10" x1="325.807" y1="248.937" x2="325.807" y2="240.917"/>
			</g>
			
				<path fill="none" stroke="#51677F" stroke-width="1.5" stroke-linecap="round" stroke-linejoin="round" stroke-miterlimit="10" d="
				M309.228,215.337c0,1.435,1.588,2.599,3.547,2.599s3.547-1.164,3.547-2.599"/>
			
				<line fill="none" stroke="#51677F" stroke-width="1.5" stroke-linecap="round" stroke-linejoin="round" stroke-miterlimit="10" x1="312.774" y1="207.31" x2="312.774" y2="211.704"/>
			
				<line fill="none" stroke="#51677F" stroke-width="1.5" stroke-linecap="round" stroke-linejoin="round" stroke-miterlimit="10" x1="308.879" y1="205.689" x2="305.215" y2="205.942"/>
			
				<line fill="none" stroke="#51677F" stroke-width="1.5" stroke-linecap="round" stroke-linejoin="round" stroke-miterlimit="10" x1="308.879" y1="205.689" x2="305.215" y2="205.942"/>
			
				<line fill="none" stroke="#51677F" stroke-width="1.5" stroke-linecap="round" stroke-linejoin="round" stroke-miterlimit="10" x1="316.67" y1="205.689" x2="320.335" y2="205.942"/>
			<path fill="#FFC641" stroke="#51677F" stroke-width="1.5" stroke-miterlimit="10" d="M325.293,200.474
				c0-3.166-25.037-3.166-25.037,0v-1.14c0-6.375,5.075-11.544,11.334-11.544h2.369c6.26,0,11.334,5.169,11.334,11.544V200.474z"/>
			<circle fill="#51677F" cx="312.775" cy="239.104" r="1.178"/>
			<circle fill="#51677F" cx="312.593" cy="234.417" r="1.178"/>
			<path fill="#FFC641" stroke="#51677F" stroke-width="1.5" stroke-miterlimit="10" d="M303.154,193.953
				c0,0,4.077,8.291,21.767,9.044c0,0,3.021-9.691-8.157-7.787C309.986,196.365,307.29,195.509,303.154,193.953z"/>
			
				<polyline fill="none" stroke="#51677F" stroke-width="1.5" stroke-linecap="round" stroke-linejoin="round" stroke-miterlimit="10" points="
				305.245,225.781 305.245,233.891 312.593,230.516 			"/>
			<g>
				
					<polyline fill="none" stroke="#51677F" stroke-width="1.5" stroke-linecap="round" stroke-linejoin="round" stroke-miterlimit="10" points="
					305.245,225.781 305.245,233.891 312.593,230.516 				"/>
				
					<polyline fill="none" stroke="#51677F" stroke-width="1.5" stroke-linecap="round" stroke-linejoin="round" stroke-miterlimit="10" points="
					319.941,225.781 319.941,233.891 312.593,230.516 				"/>
			</g>
		</g>
	</g>
	<g>
		
			<line fill="none" stroke="#51677F" stroke-width="1.5" stroke-linecap="round" stroke-linejoin="round" stroke-miterlimit="10" x1="337.446" y1="132.621" x2="337.446" y2="140.954"/>
		
			<line fill="none" stroke="#51677F" stroke-width="1.5" stroke-linecap="round" stroke-linejoin="round" stroke-miterlimit="10" x1="341.612" y1="136.788" x2="333.279" y2="136.788"/>
	</g>
	<g>
		
			<line fill="none" stroke="#51677F" stroke-width="1.5" stroke-linecap="round" stroke-linejoin="round" stroke-miterlimit="10" x1="165.622" y1="98.882" x2="165.622" y2="107.215"/>
		
			<line fill="none" stroke="#51677F" stroke-width="1.5" stroke-linecap="round" stroke-linejoin="round" stroke-miterlimit="10" x1="169.789" y1="103.048" x2="161.455" y2="103.048"/>
	</g>
	<g>
		
			<rect x="169.035" y="77.597" fill="#51677F" stroke="#51677F" stroke-width="1.5" stroke-linecap="round" stroke-linejoin="round" stroke-miterlimit="10" width="7.35" height="2.24"/>
		
			<path fill="none" stroke="#51677F" stroke-width="1.5" stroke-linecap="round" stroke-linejoin="round" stroke-miterlimit="10" d="
			M189.045,52.067c0,6.41-3.71,11.95-9.08,14.62v7.51l-3.58,3.4h-7.35l-3.57-3.4v-7.51c-5.38-2.67-9.09-8.21-9.09-14.62
			c0-9.02,7.32-16.34,16.34-16.34S189.045,43.047,189.045,52.067z"/>
		
			<line fill="none" stroke="#51677F" stroke-width="1.5" stroke-linecap="round" stroke-linejoin="round" stroke-miterlimit="10" x1="165.461" y1="74.193" x2="179.961" y2="74.193"/>
		
			<line fill="none" stroke="#51677F" stroke-width="1.5" stroke-linecap="round" stroke-linejoin="round" stroke-miterlimit="10" x1="165.461" y1="66.685" x2="179.961" y2="66.685"/>
		
			<line fill="none" stroke="#51677F" stroke-width="1.5" stroke-linecap="round" stroke-linejoin="round" stroke-miterlimit="10" x1="165.461" y1="70.027" x2="179.961" y2="70.027"/>
		
			<polyline fill="none" stroke="#51677F" stroke-width="1.5" stroke-linecap="round" stroke-linejoin="round" stroke-miterlimit="10" points="
			164.32,48.277 172.703,56.66 181.328,48.035 		"/>
		
			<line fill="none" stroke="#51677F" stroke-width="1.5" stroke-linecap="round" stroke-linejoin="round" stroke-miterlimit="10" x1="172.703" y1="56.66" x2="172.703" y2="66.685"/>
	</g>
	<g>
		<g>
			<path fill="none" stroke="#51677F" stroke-width="1.5" stroke-linecap="round" stroke-linejoin="round" d="M51.743,161.325
				c0,0-0.429,0.801-1.068,2.256"/>
			
				<path fill="none" stroke="#51677F" stroke-width="1.5" stroke-linecap="round" stroke-linejoin="round" stroke-dasharray="5.1494,3.0896" d="
				M49.509,166.437c-4.868,12.819-13.224,46.943,23.741,69.873"/>
			<path fill="none" stroke="#51677F" stroke-width="1.5" stroke-linecap="round" stroke-linejoin="round" d="M74.577,237.117
				c0.706,0.421,1.428,0.837,2.166,1.25"/>
			<g>
				<polygon fill="#51677F" points="43.989,162.81 44.474,164.23 51.47,161.832 53.352,168.986 54.803,168.602 52.51,159.89 				"/>
			</g>
		</g>
	</g>
	<g>
		<g>
			<path fill="none" stroke="#51677F" stroke-width="1.5" stroke-linecap="round" stroke-linejoin="round" d="M210.811,20.91
				c-0.554-0.347-1.271-0.784-2.138-1.291"/>
			
				<path fill="none" stroke="#51677F" stroke-width="1.5" stroke-linecap="round" stroke-linejoin="round" stroke-dasharray="4.9885,2.9931" d="
				M206.07,18.148c-15.653-8.561-58.659-27.19-96.569,1.1"/>
			<path fill="none" stroke="#51677F" stroke-width="1.5" stroke-linecap="round" stroke-linejoin="round" d="M108.303,20.159
				c-0.653,0.506-1.304,1.026-1.954,1.561"/>
			<g>
				<polygon fill="#51677F" points="209.626,13.149 208.186,13.573 210.28,20.666 203.052,22.237 203.372,23.703 212.175,21.789 
									"/>
			</g>
		</g>
	</g>
	<g>
		<g>
			<path fill="none" stroke="#51677F" stroke-width="1.5" stroke-linecap="round" stroke-linejoin="round" d="M284.763,275.45
				c0,0-0.574,0.696-1.716,1.813"/>
			
				<path fill="none" stroke="#51677F" stroke-width="1.5" stroke-linecap="round" stroke-linejoin="round" stroke-dasharray="5.0425,3.0255" d="
				M280.817,279.3c-9.766,8.37-37.531,25.661-81.902,2.206"/>
			<path fill="none" stroke="#51677F" stroke-width="1.5" stroke-linecap="round" stroke-linejoin="round" d="M197.583,280.792
				c-0.725-0.394-1.453-0.798-2.187-1.213"/>
			<g>
				<polygon fill="#51677F" points="202.727,276.587 203.091,278.043 195.915,279.833 198.224,286.861 196.797,287.328 
					193.987,278.769 				"/>
			</g>
		</g>
	</g>
	<g>
		<g>
			<path fill="none" stroke="#51677F" stroke-width="1.5" stroke-linecap="round" stroke-linejoin="round" d="M261.162,13.542
				c0,0,0.751-0.479,2.16-1.25"/>
			
				<path fill="none" stroke="#51677F" stroke-width="1.5" stroke-linecap="round" stroke-linejoin="round" stroke-dasharray="5.0115,3.0069" d="
				M265.983,10.903c13.189-6.566,51.471-21.314,90.165,4.622"/>
			<path fill="none" stroke="#51677F" stroke-width="1.5" stroke-linecap="round" stroke-linejoin="round" d="M357.401,16.379
				c0.68,0.471,1.358,0.954,2.037,1.45"/>
			<g>
				<polygon fill="#51677F" points="351.812,19.969 351.616,18.481 358.949,17.523 357.458,10.278 358.929,9.977 360.743,18.8 				
					"/>
			</g>
		</g>
	</g>
	
		<circle fill="none" stroke="#51677F" stroke-width="1.5" stroke-linecap="round" stroke-linejoin="round" stroke-miterlimit="10" cx="382.493" cy="160.52" r="3.019"/>
	<circle fill="#51677F" cx="239.374" cy="226.494" r="3.019"/>
	
		<circle fill="none" stroke="#51677F" stroke-width="1.5" stroke-linecap="round" stroke-linejoin="round" stroke-miterlimit="10" cx="144.344" cy="31.832" r="3.019"/>
	<g>
		<g>
			
				<rect x="223.998" y="268.422" fill="none" stroke="#51677F" stroke-width="1.5" stroke-linecap="round" stroke-linejoin="round" stroke-miterlimit="10" width="7.317" height="11.348"/>
			
				<rect x="235.774" y="264.64" fill="none" stroke="#51677F" stroke-width="1.5" stroke-linecap="round" stroke-linejoin="round" stroke-miterlimit="10" width="7.317" height="15.13"/>
			
				<rect x="247.551" y="261.52" fill="none" stroke="#51677F" stroke-width="1.5" stroke-linecap="round" stroke-linejoin="round" stroke-miterlimit="10" width="7.317" height="18.25"/>
		</g>
		<g>
			<g>
				
					<line fill="none" stroke="#51677F" stroke-width="1.5" stroke-linecap="round" stroke-linejoin="round" x1="226.971" y1="259.912" x2="249.778" y2="250.412"/>
				<g>
					<polygon fill="#51677F" points="248.329,255.334 247.44,254.931 249.434,250.556 244.924,248.888 245.263,247.973 
						250.755,250.005 					"/>
				</g>
			</g>
		</g>
	</g>
	<g>
		
			<rect x="295.166" y="12.982" fill="none" stroke="#51677F" stroke-width="1.5" stroke-linecap="round" stroke-linejoin="round" stroke-miterlimit="10" width="18.372" height="25.352"/>
		
			<rect x="297.658" y="15.483" fill="none" stroke="#51677F" stroke-width="1.5" stroke-linecap="round" stroke-linejoin="round" stroke-miterlimit="10" width="13.388" height="15.33"/>
		
			<ellipse fill="none" stroke="#51677F" stroke-width="1.5" stroke-linecap="round" stroke-linejoin="round" stroke-miterlimit="10" cx="304.352" cy="34.627" rx="1.08" ry="1"/>
	</g>
	<path fill="none" stroke="#51677F" stroke-width="1.5" stroke-linecap="round" stroke-linejoin="round" stroke-miterlimit="10" d="
		M158.673,160.254c21.861,0,39.583,17.722,39.583,39.583"/>
	<path fill="none" stroke="#51677F" stroke-width="1.5" stroke-linecap="round" stroke-linejoin="round" stroke-miterlimit="10" d="
		M70.59,58.516c19.506,0,35.319,15.813,35.319,35.319"/>
	<path fill="none" stroke="#51677F" stroke-width="1.5" stroke-linecap="round" stroke-linejoin="round" stroke-miterlimit="10" d="
		M261.162,61.057c19.507,0,35.319,15.813,35.319,35.319"/>
	<path fill="none" stroke="#51677F" stroke-width="1.5" stroke-linecap="round" stroke-linejoin="round" stroke-miterlimit="10" d="
		M312.778,181.257c16.51,0,29.895,13.384,29.895,29.895"/>
</g>
<g id="DESIGNED_BY_FREEPIK">
</g>
</svg>
