<?xml version="1.0" encoding="utf-8"?>
<!-- Generator: Adobe Illustrator 16.0.0, SVG Export Plug-In . SVG Version: 6.00 Build 0)  -->
<!DOCTYPE svg PUBLIC "-//W3C//DTD SVG 1.1//EN" "http://www.w3.org/Graphics/SVG/1.1/DTD/svg11.dtd">
<svg version="1.1" id="圖層_1" xmlns="http://www.w3.org/2000/svg" xmlns:xlink="http://www.w3.org/1999/xlink" x="0px" y="0px"
	 width="925.699px" height="602.106px" viewBox="0 118.618 925.699 602.106" enable-background="new 0 118.618 925.699 602.106"
	 xml:space="preserve">
<g id="background">
</g>
<g id="shadow">
	<g opacity="0.5">
		<path fill="#EED5D5" d="M423.918,606.507c-26.102,0.08-52.204,0.733-78.26,3.748c-9.825,1.136-19.443,3.635-29.289,4.643
			c-19.67,2.015-38.986,5.77-58.724,7.504c-15.895,1.396-31.856,2.219-47.705,3.99c-14.859,1.661-31.31,1.277-46.054-1.465
			c-10.915-2.031-21.881-3.174-32.614-6.436c-12.006-3.648-25.049-6.257-37.558-6.16c-17.837,0.133-35.209,0.148-52.279,6.589
			c-5.993,2.263-13.328,5.979-17.879,10.724c-10.416,10.864-11.827,37.97-1.426,49.236c17.519,18.96,54.909,26.401,79.464,26.751
			c26.908,0.386,53.048-1.69,79.996-2.913c25.04-1.136,50.017-2.749,75.099-2.692c51.227,0.116,102.46,0,153.594-3.559
			c48.042-3.344,96.205-2.194,144.35-2.194c49.372,0,98.411,0.402,147.427,7.227c21.358,2.974,43.115,4.014,64.58,6.098
			c19.222,1.867,37.694-0.036,56.842-1.761c16.077-1.448,32.049-5.743,46.655-13.002c11.562-5.745,32.173-23.597,35.718-37.313
			c9.94-38.45-140.083-37.527-163.118-37.44c-25.768,0.098-51.738,0.979-77.488-0.044c-10.83-0.429-21.502-2.631-32.073-5.044
			c-10.528-2.401-21.137-1.79-31.814-2.8c-44.525-4.211-89.151-3.596-133.819-3.596
			C453.005,606.593,438.463,606.461,423.918,606.507z"/>
	</g>
</g>
<g>
	<g>
		<path fill="#E5D1BD" d="M307.618,378.459c-0.208-0.17-0.422-0.347-0.662-0.448c-2.229-0.952-3.961-0.112-6.359-0.415
			c-1.068-0.135-2.27-2.634-3.721-0.914c-0.536,0.636-1.628,2.378-2.757,3.742c-1.646,1.99-4.935,3.518-7.77,4.248
			c-3.811,0.983-7.866,1.935-11.75,2.334c-8.158,0.838-17.33,0.874-25.509,0.145c0.603-13.561-7.03-27.162-18.92-33.71
			c-1.243-0.684-2.579-1.31-3.996-1.324c-1.2-0.012-2.363,0.417-3.43,0.964c-11.291,5.781-5.329,16.232-0.879,24.855
			c2.779,5.381,5.939,10.666,9.483,15.583c4.961,6.884,12.14,8.255,20.407,8.008c8.76-0.262,17.63-0.686,26.17-2.812
			c4.149-1.033,7.808-2.774,11.749-4.324c3.895-1.532,4.36,0.288,8.114-0.18c2.094-0.259,4.279-0.129,6.295-0.775
			c3.617-1.161,4.863-4.883,6.271-8.025c0.351-0.783,0.59-1.312,0.537-2.114c-0.086-1.304-0.92-2.26-1.714-3.237
			C308.706,379.479,308.188,378.933,307.618,378.459z"/>
	</g>
	<g>
		<path fill="#D67086" d="M218.753,385.245c2.562,3.917,5.242,7.649,7.964,11.143c4.059,5.209,8.634,10.758,15.077,12.207
			c2.484,0.557,5.063,0.446,7.607,0.32c12.053-0.598,24.092-1.498,36.1-2.699c0.893-6.274,0.827-12.687-0.193-18.942
			c-0.287-1.756-0.723-3.634-2.07-4.795c-2.001-1.726-5.032-1.144-7.585-0.461c-4.159,1.11-8.317,2.221-12.476,3.33
			c-1.348,0.359-2.856,0.703-4.082,0.037c-0.801-0.437-1.331-1.233-1.815-2.006c-9.165-14.604-13.94-28.53-19.033-44.863
			c-2.246-7.201-4.628-14.644-9.676-20.246c-10.779-11.964-30.746-4.837-30.045,11.807
			C199.326,349.055,207.986,368.78,218.753,385.245z"/>
	</g>
</g>
<g>
	<path fill="#EACDB0" d="M495.646,245.913c0.068,1.184-0.588,2.527-1.007,3.601c-1.462,3.749-1.938,7.875-1.371,11.857
		c3.883-0.013,7.767,0.62,11.445,1.863c0.804-2.909,1.608-5.816,2.414-8.724c0.126-0.458,0.26-0.928,0.56-1.295
		c0.388-0.472,0.988-0.7,1.557-0.924c3.12-1.24,6.029-3.009,8.564-5.21c0.553-0.479,1.102-1,1.378-1.677
		c0.249-0.611,0.252-1.291,0.251-1.949c-0.008-5.259-0.017-10.519-0.024-15.777c-0.001-0.587-0.015-1.217-0.349-1.699
		c-0.345-0.496-0.951-0.725-1.521-0.926c-0.897-0.319-1.797-0.638-2.695-0.957c-0.251-0.131-0.521-0.229-0.812-0.288
		c-1.828-0.648-2.265-0.597-4.072-0.005c-0.35,0.114-4.269,0.995-4.301,0.664c0.541,5.575-1.053,11.33-4.383,15.833
		c-0.229,0.308-0.509,0.636-0.89,0.668c-0.404,0.034-0.747-0.276-1.023-0.574c-1.228-1.326-2.245-2.847-2.999-4.49
		c-1.45,0.363-2.901,0.726-4.353,1.089c-0.384,2.317,0.39,4.914,2.039,6.603c0.175,0.179,0.338,0.325,0.489,0.452
		C495.173,244.577,495.582,244.804,495.646,245.913z"/>
	<polygon fill="#353A85" points="510.263,253.841 492.138,250.873 473.652,301.461 429.981,294.022 439.492,352.23 495.046,318.958 
			"/>
</g>
<g>
	<g>
		<g>
			<g>
				<path fill="#E5D1BD" d="M366.596,642.14c-2.756,0.183-5.278-0.785-7.949-1.085c0.127-9.437,1.149-18.482,3.183-27.799
					c4.154,4.611,7.652,1.932,7.51,10.596C369.295,626.656,366.056,637.874,366.596,642.14z"/>
				<path fill="#292949" d="M358.044,636.362c-3.134-1.121-3.841,6.361-3.865,8.122c-0.014,1.059,0.111,2.137-0.157,3.159
					c-0.296,1.127-1.039,2.072-1.763,2.982c-1.518,1.909-3.035,3.816-4.552,5.723c-0.682,0.858-1.376,1.738-1.742,2.771
					c-0.906,2.56,0.59,5.597,3.015,6.821c8.412,4.25,16.096-6.041,17.918-12.834c0.279-1.039,0.482-2.101,0.687-3.159
					c0.421-2.188,2.079-6.964,1.209-9.104c-1.014-2.496-4.086-0.687-6.099-1.627C360.827,638.342,359.313,636.817,358.044,636.362z"
					/>
			</g>
			<path fill="#5D66D3" d="M417.805,486.673c-7.842,21.349-16.892,42.23-22.051,64.58c-6.375,27.608-16.654,54.531-21.929,82.202
				c-3.409,0.109-6.825-0.035-10.212-0.434c-3.883-0.459-10.045-1.507-11.448-5.747c-0.716-2.167,0.043-5.691,0.152-7.942
				c0.35-7.21,0.865-14.413,1.395-21.611c1.5-20.367,2.529-40.984,6.275-61.065c3.94-21.123,7.715-42.317,11.182-63.438
				c1.792-10.915,4-21.763,6.715-32.487c0.7-2.763,7.984-31.243,9.415-31.016c16.974,2.701,32.853,8.322,47.634,17.088
				c1.437,0.852,2.823,1.867,3.323,3.385c0.5,1.516,0.047,2.825-0.417,4.199c-4.417,13.129-10.308,25.439-15.019,38.517
				C421.184,477.455,419.521,482.003,417.805,486.673z"/>
		</g>
		<g>
			<g>
				<path fill="#E5D1BD" d="M419.284,640.608c2.577,0.995,5.272,0.822,7.912,1.328c2.686-9.046,4.399-17.988,5.23-27.487
					c-5.339,3.167-7.881-0.433-10.323,7.884C421.312,625.022,421.069,636.695,419.284,640.608z"/>
				<path fill="#292949" d="M429.894,639.212c0.006,5.115,4.033,10.624,6.261,15.226c0.261,0.541,0.529,1.104,0.541,1.706
					c0.016,0.893-0.53,1.687-1.053,2.41c-0.726,1.007-1.516,2.062-2.671,2.513c-1.135,0.444-2.41,0.222-3.6-0.039
					c-1.991-0.438-3.962-0.965-5.907-1.584c-0.484-0.152-0.978-0.317-1.373-0.64c-0.468-0.378-0.749-0.935-1.017-1.472
					c-1.374-2.767-2.542-4.73-2.468-7.811c0.077-3.184,0.479-6.48-0.103-9.636c-0.288-1.531-0.669-3.487,0.641-4.326
					c1.014-0.65,2.869,0.245,3.973,0.424c1.945,0.317,3.745,0.197,5.537,1.22c0.365,0.209,0.721,0.459,0.945,0.814
					C429.828,638.377,429.893,638.786,429.894,639.212z"/>
			</g>
			<path fill="#5D66D3" d="M416.63,476.945c1.138,22.716,3.566,45.345,1.847,68.219c-2.124,28.256-0.318,57.018-3.51,85.003
				c3.22,1.119,6.526,1.997,9.879,2.624c3.843,0.716,10.039,1.55,12.638-2.082c1.329-1.856,1.651-5.446,2.217-7.628
				c1.81-6.988,3.46-14.018,5.096-21.048c4.625-19.893,9.775-39.884,12.169-60.168c2.52-21.339,5.22-42.699,8.191-63.894
				c1.536-10.954,2.655-21.967,3.252-33.014c0.154-2.848,1.668-32.205,0.235-32.414c-17.009-2.468-33.84-1.825-50.562,2.148
				c-1.625,0.385-3.25,0.943-4.179,2.243c-0.928,1.299-0.885,2.682-0.852,4.133c0.314,13.85,2.275,27.354,2.884,41.24
				C416.146,467.139,416.381,471.976,416.63,476.945z"/>
		</g>
		<path fill="#353A85" d="M407.077,294.655c-0.276,0.093-0.552,0.191-0.824,0.295c-4.567,1.733-8.45,4.852-12.25,7.921
			c-5.707,4.609-8.518,6.63-10.722,13.458c-2.056,6.367-3.343,13.09-4.602,19.651c-6.461,33.683-7.711,67.227-12.35,101.165
			c-1.263,9.237-2.238,20.098,4.594,26.442c12.123-9.435,27.36-9.979,42.062-9.991c10.325-0.01,20.419-3.354,30.769-2.2
			c9.89,1.102,18.53-1.371,28.567-0.719c2.419,0.158,5.503,0.132,6.458-2.099c-3.474-10.411-3.414-21.61-4.201-32.558
			c-2.032-28.319-11.415-55.495-15.201-83.624c-1.287-9.561-1.974-25.43-9.377-32.668c-8.046-7.865-26.399-8.024-36.741-6.486
			C411.167,293.555,409.081,293.977,407.077,294.655z"/>
		<g>
			<g>
				<g>
					<g>
						<path fill="#EACDB0" d="M414.756,294.178c0.17,0.332,0.398,0.648,0.702,0.948c1.202,1.185,2.866,1.858,4.519,2.094
							c2.179,0.312,4.392-0.05,6.554-0.461c2.919-0.558,2.817-2.267,3.239-4.917c0.231-1.45,0.376-2.909,0.484-4.37
							c0.061-0.802-0.25-3.671,0.261-4.233c0.347-0.381,1.759-0.253,2.376-0.576c0.98-0.511,1.8-1.455,2.388-2.371
							c0.949-1.476,1.472-3.181,1.984-4.859c0.891-2.922,1.78-5.844,2.671-8.766c0.909-2.986,1.824-5.996,2.115-9.102
							c0.44-4.684-0.316-11.294-3.851-14.72c-3.225-3.124-7.929-4.218-12.244-4.769c-5.712-0.729-11.635,0.316-16.569,3.349
							c-1.992,1.224-3.881,2.813-5.058,4.995c-1.814,3.365-1.675,7.568-1.48,11.497c0.18,3.627,0.359,7.252,0.54,10.88
							c0.207,4.171,0.726,8.978,3.852,11.239c1.659,1.201,3.829,1.459,5.249,2.998c1.78,1.93,1.664,4.824,1.739,7.27
							C414.269,291.703,414.164,293.026,414.756,294.178z"/>
					</g>
					<path fill="#292949" d="M432.841,247.298c0.197,0.341,0.361,0.693,0.488,1.061c0.666,1.922,0.215,4.093,0.867,6.021
						c1.029,3.057,4.597,4.894,5.135,8.075c0.44,2.601-1.338,5.075-1.487,7.708c-0.165,2.877,1.677,5.601,1.393,8.442
						c-0.249,2.467-1.813,5.935-3.288,7.912c0.457-0.613,4.588-0.394,5.658-1.049c1.643-1.002,1.829-1.634,2.317-3.345
						c0.484-1.699,0.109-3.373,0.865-5.113c0.927-2.134,2.832-3.702,3.499-5.979c0.911-3.107-0.743-6.383-0.613-9.618
						c0.196-4.895,4.427-9.507,2.891-14.161c-0.901-2.729-3.552-4.473-5.042-6.932c-1.131-1.866-1.549-4.066-2.334-6.103
						c-0.785-2.036-2.134-4.073-4.229-4.691c-1.164-0.343-2.414-0.203-3.605-0.424c-2.061-0.382-3.772-1.806-5.758-2.477
						c-2.841-0.961-7.851,1.911-9.509,4.318c-1.646,2.389-0.816,4.42,0.868,6.533C423.758,240.996,430.528,243.298,432.841,247.298z
						"/>
				</g>
				<path fill="#292949" d="M394.59,232.837c-1.703,1.25-3.805,2.151-5.358,3.611c-3.03,2.845-3.606,7.396-3.716,11.551
					c-0.097,3.7-1.716,6.987-1.315,10.843c0.27,2.59,1.37,5.208,3.478,6.738c2.625,1.905,6.745,2.217,7.916,5.24
					c1.272,3.284-2.13,7.42-0.064,10.274c1.14,1.574,3.372,1.804,5.002,2.862c1.819,1.18,2.752,3.288,3.865,5.15
					c1.11,1.862,2.779,3.728,4.946,3.773c0.088-3.297,0.185-5.909-1.223-8.925c-0.82-1.756-3.235-4.997-1.381-6.899
					c1.171-1.581,3.933-2.095,4.003-4.061c0.034-0.923-0.61-1.708-1.119-2.479c-1.967-2.984-2.167-6.961-0.833-10.278
					c1.334-3.317,4.081-5.966,7.299-7.524c3.771-1.826,3.163-2.748,4.258-6.358c1.008-3.322,2.894-4.101,5.884-5.312
					c2.685-1.087,3.548-1.765,4.539-4.277c0.725-1.839,1.619-4.042,0.566-6.094c-0.835-1.631-2.341-2.797-3.797-3.909
					c-3.044-2.32-6.466-4.761-10.284-4.487c-2.121,0.153-4.115,1.149-6.239,1.27c-1.417,0.08-2.824-0.233-4.242-0.281
					c-2.416-0.08-4.964,0.654-6.92,2.093c-1.974,1.452-1.918,2.97-3.015,5.03C396.3,231.398,395.501,232.168,394.59,232.837z"/>
				<path fill="#292949" d="M403.139,219.282c0.372-2.297,0.133-5.29-2.062-6.065c-1.202-0.425-2.547,0.04-3.797-0.214
					c-2.662-0.542-3.568-3.764-4.964-6.096c-0.209-0.349-0.457-0.702-0.829-0.868c-0.53-0.237-1.141-0.026-1.717,0.044
					c-2.649,0.323-4.663-2.292-7.158-3.239c-3.089-1.174-6.974,0.758-7.903,3.927c-0.382,1.303-0.316,2.702-0.675,4.011
					c-1.454,5.304-9.221,7.562-9.417,13.057c-0.133,3.713,3.502,7.272,2.089,10.709c-0.903,2.197-3.732,3.697-3.409,6.051
					c0.208,1.515,1.821,2.546,3.35,2.525c1.528-0.021,2.933-0.861,4.084-1.866c1.828-1.596,3.205-3.644,4.946-5.334
					c1.741-1.69,4.063-3.061,6.471-2.761c2.332,0.292,4.443,2.107,6.761,1.719c1.854-0.311,3.229-1.965,5.051-2.43
					c1.704-0.436,3.475,0.233,5.231,0.339c1.756,0.105,3.912-0.809,3.959-2.566c0.011-0.425-0.108-0.865,0.026-1.27
					c0.375-1.135,2.311-1.069,2.678-2.205c-0.916-1.414-2.208-0.907-2.866-2.752C402.481,222.568,402.906,220.725,403.139,219.282z"
					/>
			</g>
		</g>
	</g>
</g>
<g>
	<g>
		<g>
			<g>
				<g>
					<rect x="272.977" y="324.829" fill="#8CABEF" width="361.449" height="250.947"/>
				</g>
				<g>
					<path opacity="0.2" fill="#DDDAE8" enable-background="new    " d="M367.675,332.807H281.4v76.658
						C281.401,367.127,320.028,332.807,367.675,332.807z"/>
				</g>
			</g>
		</g>
	</g>
	<g opacity="0.2">
		<path fill="#3B3387" d="M430.969,575.776h203.457V447.31C634.426,447.31,615.631,575.776,430.969,575.776z"/>
	</g>
</g>
<g>
	<path opacity="0.49" fill="#808080" enable-background="new    " d="M604.786,140.82c-0.018-0.095-0.028-0.19-0.047-0.286
		c0.057,0.048,0.106,0.1,0.165,0.147C604.865,140.729,604.824,140.772,604.786,140.82z"/>
</g>
<g>
	<g>
		<g>
			<polygon fill="#292949" points="152.187,657.52 151.64,665.196 166.445,673.965 174.667,666.836 167.538,658.614 
				152.733,649.844 			"/>
		</g>
		<g>
			<polygon fill="#292949" points="144.563,424.105 142.904,447.417 166.796,550.644 151.56,654.991 166.567,659.12 210.916,534.26 
				212.412,496.454 203.536,418.5 			"/>
		</g>
	</g>
	<g>
		<g>
			<polygon fill="#292949" points="240.935,437.864 250.42,535.628 242.75,663.382 228.568,664.592 209.675,548.931 
				180.333,434.161 			"/>
		</g>
		<g>
			<polygon fill="#292949" points="228.507,662.899 229.16,670.566 245.149,676.924 252.161,668.603 243.841,661.588 			"/>
		</g>
	</g>
	<g>
		<path fill="#D67086" d="M130.926,436.309c-1.119,8.891-2.086,20.934,1.292,21.729c0.633,0.147,1.282-0.105,1.874-0.354
			c6.257-2.617,10.918-6.734,17.079-9.251c6.458-2.638,13.636-3.651,20.626-4.157c10.458-0.81,21.068-0.885,31.543,0.019
			c8.235,0.711,16.42,2.268,24.535,3.799c6.751,1.273,12.878,3.95,19.865,4.19c7.161,0.244,14.392-1.208,20.857-4.311
			c0.237-0.115,0.49-0.246,0.606-0.481c0.129-0.255,0.061-0.563-0.008-0.841c-1.039-4.131-1.675-8.182-3.969-11.752
			c-2.563-3.985-4.17-8.881-5.865-13.29c-3.531-9.191-6.759-18.776-8.894-28.4c-3.373-13.13-7.448-26.001-10.66-39.158
			c-2.227-9.118-4.161-18.365-7.555-27.143c-2.659-6.873-7.614-17.024-14.477-20.642c-2.323-1.226-4.988-1.59-7.591-1.937
			c-7.896-1.049-15.792-2.1-23.688-3.149c-2.878-0.382-5.875-0.755-8.63,0.162c-4.129,1.374-6.789,5.284-9.139,8.946
			c-10.538,16.42-18.049,34.525-23.17,53.468c-2.673,9.891-5.227,19.813-7.451,29.809c-2.481,11.153-4.558,22.402-5.927,33.742
			C132.026,428.568,131.459,432.082,130.926,436.309z"/>
	</g>
	<g>
		<path fill="#F7F7F7" d="M193.691,346.212c-0.168,4.519-1.274,8.943-2.375,13.331c-6.704,26.72-13.408,53.441-20.111,80.162
			c21.284,2.024,42.568,4.044,63.852,6.067c0.286-10.245,0.57-20.485,0.855-30.729c0.183-6.565,0.363-13.155-0.348-19.692
			c-1.147-10.543-4.59-20.712-8.013-30.785c-6.322-18.614-12.643-37.228-18.965-55.842c-0.338-0.995-0.696-2.025-1.43-2.792
			c-0.879-0.919-2.167-1.331-3.402-1.68c-5.97-1.687-12.74-3.292-18.942-3.03c-2.104,5.401,2.526,15.656,4.076,21.045
			C191.147,330.11,193.998,337.957,193.691,346.212z"/>
	</g>
	<g>
		<g>
			<path fill="#EACDB0" d="M201.631,307.933c-4.387-0.649-8.775-1.298-13.163-1.947c0.126-3.536,0.537-7.061,1.225-10.529
				c-0.084,0.422-6.751-4.029-7.288-4.938c-1.544-2.614-1.33-6.715-1.777-9.681c-0.953-6.32-1.729-13.405,2.089-18.529
				c3.956-5.307,11.444-6.487,18.042-5.975c8.286,0.642,17.261,4.007,20.773,11.538c3.173,6.802-2.649,15.745-4.734,22.374
				c-1.028,3.268-2.463,6.97-5.712,8.058c-1.725,0.577-3.715,0.288-5.295,1.191C203.006,301.084,203.177,305.121,201.631,307.933z"
				/>
		</g>
		<g>
			<path fill="#292949" d="M235.824,256.982c0.965-4.517,1.93-9.033,2.896-13.55c0.359-1.676,0.717-3.418,0.336-5.091
				c-0.633-2.782-3.188-4.743-5.85-5.768c-2.662-1.026-5.543-1.354-8.251-2.251c-2.889-0.958-5.628-2.574-8.667-2.755
				c-5.78-0.344-10.737,4.536-16.519,4.854c-8.005,0.441-14.861-3.917-20.577,4.856c-1.051,1.611-1.496,3.546-2.447,5.219
				c-1.231,2.16-3.227,3.756-4.853,5.635c-7.151,8.264-6.541,21.993,0.221,30.327c3.279,4.04,4.431,7.507,9.35,9.204
				c-1.821-4.932,3.168-23.308,9.706-24.748c1.731-0.381,6.546,2.189,8.372,2.652c4.045,1.026,7.97,2.101,11.667,4.101
				c5.488,2.97,11.539,5.299,17.697,6.407c0.788,0.142,1.672,0.264,2.326-0.198c0.615-0.436,0.816-1.241,0.974-1.978
				C233.413,268.259,234.619,262.62,235.824,256.982z"/>
		</g>
	</g>
</g>
<g>
	<path fill="#FFFFFF" d="M604.225,375.259c-5.075,4.052-10.151,8.104-15.227,12.155c2.583,3.957,5.115,7.948,7.563,11.997
		c1.225,2.027-2.074,3.627-3.289,1.617c-2.312-3.821-4.702-7.59-7.138-11.327c-4.941,3.947-9.886,7.891-14.827,11.838
		c-1.843,1.471-4.239-1.311-2.39-2.788c5.067-4.047,10.135-8.092,15.204-12.138c-2.978-4.476-6.041-8.894-9.201-13.25
		c-1.379-1.904,1.386-4.32,2.774-2.403c3.188,4.395,6.279,8.854,9.285,13.37c4.952-3.953,9.903-7.905,14.854-11.857
		C603.677,371.001,606.074,373.784,604.225,375.259z"/>
	<path fill="#FFFFFF" d="M586.021,428.625c-1.112-6.821-2.896-13.383-5.329-19.842c-0.537-1.427-2.35-1.17-3.152-0.235
		c-4.878,5.682-8.753,11.855-11.84,18.678c-0.8,1.771,1.596,3.079,2.92,2.013c1.732-1.394,3.308-2.885,4.769-4.459
		c-8.433,27.031-16.595,60.264-47.103,66.513c-27.289,5.59-42.675-24.882-54.513-44.256c-10.154-16.621-20.932-34.624-37.906-45.059
		c-18.132-11.146-40.457-10.378-58.877-0.311c-18.581,10.153-33.452,28.786-33.042,50.608c-11.593-0.673-21.588,7.762-23.696,19.359
		c-1.776,9.77,3.18,25.593,14.542,25.123c-0.125,0.767,0.2,1.555,1.183,1.809c12.855,3.334,25.095-4.869,27.68-17.875
		c2.356-11.861-3.9-25.08-16.057-27.874c-1.249-29.682,29.3-54.715,57.358-55.41c46.369-1.147,60.932,51.517,85.448,80.971
		c7.323,8.802,16.654,16.146,28.409,17.146c10.968,0.935,21.528-3.58,29.909-10.452c20.38-16.717,24.63-44.014,32.953-67.772
		c1.155,3.945,2.083,7.938,2.752,12.041C582.81,431.676,586.402,430.96,586.021,428.625z M342.919,456.074
		c0.238,0.1,0.505,0.14,0.779,0.122c0.373,0.063,0.746,0.117,1.119,0.201c22.552,5.131,14.81,42.669-7.604,39.113
		c0.965-1.239,0.168-3.524-1.667-2.968c-13.367,4.057-15.792-16.069-12.521-24.412C326.232,459.958,334.377,455.023,342.919,456.074
		z"/>
	<path fill="#D67086" d="M324.119,482.274c-0.213-1.132-0.301-2.298-0.323-3.448c-0.266-13.356,6.618-22.248,20.355-19.022
		c7.075,1.658,11.183,10.568,11.149,17.228c-0.022,4.475-1.373,9.396-5.152,11.764c-6.147,3.85-20.677,4.295-24.788-2.976
		C324.74,484.721,324.354,483.517,324.119,482.274z"/>
</g>
<g>
	
		<rect x="412.43" y="241.408" transform="matrix(-0.5765 -0.8171 0.8171 -0.5765 579.976 795.2525)" fill="#D67086" width="167.298" height="11.834"/>
	
		<rect x="431.766" y="227.766" transform="matrix(-0.5765 -0.8171 0.8171 -0.5765 621.6114 789.5443)" fill="#D67086" width="167.298" height="11.832"/>
	
		<rect x="422.097" y="234.587" transform="matrix(-0.5765 -0.8171 0.8171 -0.5765 600.793 792.3959)" fill="#FFFFFF" width="167.298" height="11.831"/>
	
		<rect x="455.009" y="153.088" transform="matrix(0.5764 0.8171 -0.8171 0.5764 332.9996 -300.7499)" fill="#BABCBE" width="3.191" height="35.5"/>
	
		<rect x="453.146" y="150.494" transform="matrix(0.5765 0.8171 -0.8171 0.5765 330.0555 -300.318)" fill="#F7F7F7" width="3.192" height="35.497"/>
	
		<rect x="451.324" y="147.883" transform="matrix(0.5765 0.8171 -0.8171 0.5765 327.1437 -299.9324)" fill="#BABCBE" width="3.191" height="35.498"/>
	<path fill="#E8E8E8" d="M423.896,155.286l11.76,16.668l29.005-20.464l-11.759-16.667c-4.663-6.609-13.801-8.187-20.41-3.524
		l-5.071,3.579C420.811,139.539,419.232,148.677,423.896,155.286z"/>
	
		<rect x="449.484" y="145.276" transform="matrix(0.5766 0.817 -0.817 0.5766 324.2003 -299.5241)" fill="#F7F7F7" width="3.192" height="35.498"/>
	<polygon fill="#EED5D5" points="568.464,298.621 539.459,319.085 579.181,344.598 	"/>
	<polygon fill="#292949" points="576.676,333.853 569.896,338.634 579.181,344.598 	"/>
</g>
<g>
	<path opacity="0.25" fill="#3B455A" enable-background="new    " d="M204.001,535.673c0,0,152.341,6.45,154.24,5.243
		c1.899-1.206,0.78-154.008-5.145-159.854C353.096,381.063,213.256,526.167,204.001,535.673z"/>
	<path fill="#474EBB" d="M352.922,535.673H196.56c3.604-23.687,6.187-51.662,5.893-83.046c-0.232-24.838-0.125-46.299-3.744-70.085
		c52.122,0,102.092-3.233,154.213-3.233c2.215,21.839,3.695,45.66,3.926,71.213C357.127,481.473,355.527,510.001,352.922,535.673z"
		/>
	<g>
		<path fill="#FFFFFF" d="M270.184,443.296c-1.112-10.263-4.769-22.293-14.967-26.86c-11.666-5.222-24.171,0.214-34.86,5.199
			c-1.47,0.687-0.19,2.862,1.275,2.181c1.055-0.494,2.138-0.995,3.241-1.493c2.181,23.052-2.242,46.124-0.611,69.188
			c-0.331,0.498-0.246,1.199,0.126,1.627c0.042,0.511,0.07,1.019,0.118,1.53c0.154,1.602,2.68,1.619,2.524,0
			c-0.053-0.552-0.083-1.104-0.128-1.656C247.545,485.938,272.817,467.593,270.184,443.296z M252.409,475.285
			c-7.456,6.753-16.238,11.805-25.71,15.112c-1.437-23.049,2.989-46.105,0.601-69.142c8.909-3.811,18.938-6.732,27.911-2.033
			c9.51,4.982,12.77,18.638,12.691,28.541C267.814,459.007,260.363,468.078,252.409,475.285z"/>
		<path fill="#FFFFFF" d="M289.379,458.186c-3.727-1.488-8.772,0.326-11.883,2.337c-4.672,3.02-7.667,7.999-8.813,13.385
			c-2.14,10.045,0.582,22.949,12.691,23.895c11.666,0.914,20.493-9.595,21.727-20.43
			C304.137,468.293,298.653,458.471,289.379,458.186z M300.238,479.31c-1.808,8.283-8.48,16.031-17.506,16.021
			c-11.177-0.013-13.522-11.845-11.616-20.753c0.864-4.031,2.771-7.843,5.923-10.565c1.865-1.612,5.062-3.449,8.062-3.815
			c0.23,0.506,0.75,0.89,1.445,0.742c0.754-0.161,1.475-0.244,2.171-0.271c0.28,0.132,0.554,0.285,0.813,0.476
			c0.628,0.46,1.242,0.192,1.571-0.312C298.635,462.263,301.846,471.942,300.238,479.31z"/>
		<path fill="#FFFFFF" d="M323.589,486.965c-0.05-0.065-0.09-0.137-0.147-0.199c-1.453-1.502-3.414-0.544-4.225,0.998
			c-0.76,0.992-1.383,2.085-1.209,3.396c0.182,1.373,1.248,2.565,2.704,2.543c1.545-0.023,2.692-1.273,3.1-2.675
			c0.588-0.577,0.928-1.41,0.751-2.416C324.447,487.949,324.084,487.365,323.589,486.965z"/>
		<path fill="#FFFFFF" d="M329.371,429.98c-1.178-2.09-4.434-2.067-6.539-2.178c-0.696-0.037-1.243,0.608-1.262,1.263
			c-0.432,14.849-0.543,29.703-0.336,44.555c0.013,0.914,0.82,1.315,1.518,1.198c0.151,1.549,2.472,1.549,2.515-0.064
			c0.292-11.014,1.203-22,2.863-32.896c0.368-2.413,0.774-4.822,1.204-7.228C329.595,433.16,330.166,431.392,329.371,429.98z
			 M324.062,430.394c0.108,0.011,0.217,0.021,0.323,0.035c-0.08,0.153-0.141,0.321-0.16,0.512c-0.044,0.459-0.122,0.899-0.208,1.333
			C324.034,431.647,324.044,431.02,324.062,430.394z M323.863,438.833c0.18,0.137,0.397,0.209,0.621,0.22
			c-0.269,1.358-0.556,2.632-0.685,3.621C323.818,441.395,323.837,440.113,323.863,438.833z"/>
	</g>
</g>
<g>
	<g>
		<path fill="#E5D1BD" d="M234.011,427.524c-0.097-0.277-0.201-0.561-0.367-0.788c-1.551-2.13-3.634-2.312-5.702-3.931
			c-0.922-0.721-0.652-3.72-2.964-2.924c-0.853,0.296-2.844,1.312-4.658,1.956c-2.643,0.94-6.563,0.535-9.616-0.363
			c-4.103-1.204-8.417-2.576-12.262-4.365c-8.08-3.762-16.658-8.837-23.883-14.073c8.116-12.317,8.567-29.259,1.119-41.992
			c-0.778-1.331-1.677-2.659-2.992-3.461c-1.112-0.679-2.437-0.927-3.737-1.011c-13.756-0.894-14.014,12.177-14.663,22.703
			c-0.405,6.567-0.399,13.262,0.168,19.821c0.795,9.188,6.731,14.466,14.583,18.838c8.32,4.636,16.833,9.181,25.985,11.951
			c4.448,1.348,8.831,1.762,13.371,2.51c4.488,0.739,3.909,2.697,7.671,4.351c2.1,0.926,4.064,2.263,6.308,2.782
			c4.022,0.931,7.256-1.849,10.32-3.996c0.762-0.536,1.28-0.894,1.678-1.674c0.647-1.265,0.4-2.619,0.205-3.975
			C234.46,429.079,234.28,428.284,234.011,427.524z"/>
	</g>
	<g>
		<path fill="#D67086" d="M147.313,384.36c0.208,5.082,0.63,10.058,1.226,14.834c0.886,7.123,2.065,14.848,7.271,19.786
			c2.007,1.906,4.476,3.239,6.919,4.537c11.579,6.155,23.314,12.021,35.189,17.588c4.329-5.356,7.838-11.377,10.369-17.783
			c0.711-1.799,1.349-3.793,0.739-5.627c-0.905-2.725-4.059-3.87-6.821-4.654c-4.499-1.28-8.997-2.56-13.496-3.842
			c-1.459-0.414-3.058-0.934-3.83-2.239c-0.504-0.853-0.556-1.892-0.577-2.882c-0.417-18.732,2.883-34.386,7.227-52.465
			c1.914-7.969,3.837-16.241,2.247-24.282c-3.396-17.168-25.997-21.638-34.612-5.714
			C149.338,339.771,146.435,362.999,147.313,384.36z"/>
	</g>
</g>
<g>
	<g>
		<g>
			<path fill="#E5D1BD" d="M595.967,381.619c0.839-0.949,1.104-1.306,2.468-1.92c1.364-0.615,2.988-0.824,4.61-1.894
				c1.179-0.777,0.881-3.609,3.606-2.535c1.008,0.397,2.767,1.66,4.689,2.394c2.806,1.07,6.802,0.979,10.182,0.236
				c13.277-2.918,26.621-5.588,40.216-6.957c0.775-0.077,1.545-0.131,2.196-0.589c1.166-0.822,1.321-2.162,1.619-3.475
				c1.382-6.094,2.938-12.064,5.463-17.815c2.251-5.132,4.912-10.02,9.244-13.648c4.331-3.63,10.05-5.447,15.376-3.747
				c3.989,1.274,7.298,4.056,8.126,8.212c2.056,10.311-7.417,18.024-13.095,25.252c-5.372,6.838-9.966,12.638-15.589,18.909
				c-0.694,0.773-1.355,1.496-2.329,1.938c-0.975,0.441-2.102,0.466-3.157,0.453c-13.617-0.181-26.887-0.704-40.219,2.061
				c-3.664,0.76-7.007-0.017-10.456,1.155c-2.2,0.747-3.351,2.928-5.374,3.974c-2.024,1.045-4.415,2.106-6.681,2.259
				c-4.471,0.301-7.217-2.982-10.263-5.685c-2.433-2.161-4.278-2.784-7.444-1.941c-0.371,0.1-0.773,0.339-1.197,0.245
				c-1.228-0.273-1.75-1.712-1.113-2.799c0.636-1.085,1.767-1.408,2.936-1.808c1.17-0.396,2.492-0.729,3.758-0.801
				c0.544-0.03,1.152-0.008,1.546-0.393S595.611,382.019,595.967,381.619z"/>
		</g>
		<g>
			<path fill="#AAB4B5" d="M690.513,361.375c-7.669-2.903-15.71-4.675-23.186-8.189c2.712-6.51,10.554-32.991,11.902-36.163
				c5.153-12.1,6.148-17.314,13.25-23.705c15.159-13.646,33.163-4.596,32.425,14.771c-0.803,21.024-12.068,39.071-24.271,55.333
				c-0.264,0.354-0.625,0.628-1.087,0.803c-0.463,0.174-1.172-0.002-1.729-0.222C695.431,363.062,692.935,362.293,690.513,361.375z"
				/>
		</g>
	</g>
	<g>
		<g>
			<g>
				<g>
					<g>
						<path fill="#E5D1BD" d="M695.327,650.625c-2.683,0.091-5.263-0.511-7.897-0.756c-1.36-26.127,1.108-53.509,2.181-79.76
							c6.712,0.357,13.424,0.717,20.136,1.074c-4.674,14.029-8.011,28.504-9.962,43.161
							C699.474,616.669,695.709,650.613,695.327,650.625z"/>
					</g>
					<g>
						<path fill="#292949" d="M686.617,644.801c-1.657-0.295-2.633,0.444-3.739,1.452c-0.642,0.587-1.077,1.416-1.852,1.836
							c-0.772,0.419-1.532,0.5-2.451,0.594c-4.843,0.487-15.997,0.284-10.055,8.382c5.397,7.355,19.73,4.427,28.011,2.428
							c0.544-0.13,1.118-0.212,1.518-0.634c0.398-0.421,0.669-1.021,0.838-1.644c0.945-3.46,2.236-7.781-2.018-9.231
							c-1.815-0.619-3.487,0.583-5.408-0.083C689.887,647.357,688.273,645.097,686.617,644.801z"/>
					</g>
				</g>
			</g>
			<path fill="#292949" d="M674.561,585.868c13.688-0.266,27.375-0.53,41.062-0.796c11.072-52.711,20.823-105.697,29.24-158.896
				c0.653-4.126,1.288-8.416,0.101-12.418c-2.249-7.571-10.357-11.893-18.121-13.343c-12.064-2.254-34.232,0.886-40.42,13.43
				c-6.539,13.258-5.441,36.933-7.028,51.583C675.067,505.404,673.447,545.673,674.561,585.868z"/>
		</g>
		<g>
			<g>
				<g>
					<g>
						<path fill="#E5D1BD" d="M773.604,650.625c2.683,0.091,5.262-0.511,7.896-0.756c1.36-26.127-1.108-53.509-2.18-79.76
							c-6.713,0.357-13.423,0.717-20.136,1.074c4.674,14.029,8.011,28.504,9.962,43.161
							C769.456,616.669,773.222,650.613,773.604,650.625z"/>
					</g>
					<g>
						<path fill="#292949" d="M782.313,644.801c1.656-0.295,2.633,0.444,3.738,1.452c0.642,0.587,1.077,1.416,1.852,1.836
							c0.772,0.419,1.532,0.5,2.452,0.594c4.842,0.487,15.996,0.284,10.054,8.382c-5.396,7.355-19.729,4.427-28.01,2.428
							c-0.544-0.13-1.119-0.212-1.519-0.634c-0.398-0.421-0.668-1.021-0.838-1.644c-0.945-3.46-2.236-7.781,2.018-9.231
							c1.815-0.619,3.487,0.583,5.409-0.083C779.044,647.357,780.656,645.097,782.313,644.801z"/>
					</g>
				</g>
			</g>
			<path fill="#292949" d="M794.37,585.868c-13.688-0.266-27.376-0.53-41.062-0.796c-11.073-52.711-20.824-105.697-29.241-158.896
				c-0.653-4.126-1.288-8.416-0.1-12.418c2.248-7.571,10.357-11.893,18.12-13.343c12.065-2.254,34.232,0.886,40.42,13.43
				c6.539,13.258,5.441,36.933,7.028,51.583C793.863,505.404,795.483,545.673,794.37,585.868z"/>
		</g>
	</g>
	<g>
		<path fill="#474EBB" d="M759.272,296.832c10.974,10.444,19.194,23.86,24.145,37.757c8.768,24.609,8.936,50.885,9.017,76.634
			c0.027,8.569,0.053,17.14,0.081,25.71c0.026,8.431-0.72,10.245-9.883,9.134c-16.98-2.061-34.633-5.561-50.018-13.105
			c-7.322-3.592-14.164-8.126-21.84-10.953c-11.166-4.112-22.612-2.252-33.659-4.927c4.794-14.498,8.228-26.846,10.689-41.781
			c2.534-15.38,4.838-32.156,8.552-47.328c2.229-9.105,6.373-17.611,10.589-25.983c2.834-5.626,5.835-11.385,10.646-15.454
			C732.088,274.283,748.341,286.428,759.272,296.832z"/>
	</g>
	<g>
		<g>
			<g>
				<path fill="#E5D1BD" d="M719.677,260.729c2.072,4.53,5.459,8.306,8.225,12.449c2.69,4.032,3.658,7.68,4.372,12.354
					c0.515,3.376,1.722,6.014,5.789,6.593c7.669,1.089,5.477-5.247,7.218-9.857c1.99-5.27,6.238-9.433,9.205-14.137
					c8.576-13.59,6.129-40.454-11.694-46.186C723.302,215.678,713.388,246.983,719.677,260.729z"/>
			</g>
		</g>
		<g>
			<path fill="#292949" d="M750.742,247.579c2.214,0.089,4.646,0.264,6.286,1.75c1.642,1.486,1.464,4.727-0.701,5.077
				c-1.965,0.317-4.507-1.732-5.707-0.236c-0.701,0.873-0.085,2.153,0.446,3.175c2.042,3.923,2.653,8.471,1.7,12.651
				c0.808,0.748,2.068-0.029,2.778-0.809c3.523-3.871,6.277-8.39,8.08-13.267c0.707,1.182,1.745,2.186,2.97,2.875
				c-0.734-1.834-0.27-3.84,0.183-5.712c1.665-6.875,2.8-14.929-2.001-20.547c-2.569-3.005-6.477-4.735-10.404-5.462
				c-3.929-0.726-7.932-0.55-11.891-0.371c-1.695,0.076-3.782,0.441-4.188,2.009c3.714,1.49,7.558,4.392,9.417,7.909
				C748.282,237.702,750.518,247.569,750.742,247.579z"/>
		</g>
		<g>
			<path fill="#292949" d="M742.892,231.061c0.137,0.098,0.27,0.197,0.4,0.296c1.683,1.282,3.262,2.841,5.3,3.41
				c2.937,0.819,6.093-0.597,8.984,0.403c3.233,1.119,5.357,4.984,7.717,7.272c3.87,3.751,8.666,6.509,13.817,8.078
				c2.629,0.8,5.356,1.292,8.101,1.447c1.245,0.07,2.909,0.306,4.122-0.02c1.629-0.439,1.573-1.18-0.162-1.735
				c-5.439-1.744-7.146-9.386-6.735-14.452c0.325-3.998,1.704-8.178,0.18-11.889c-1.165-2.834-3.667-4.298-6.085-5.919
				c-2.668-1.788-5.559-1.306-8.587-2.167c-3.159-0.897-5.733-3.386-8.956-4.019c-3.403-0.671-6.805,0.837-10.211,1.5
				c-2.813,0.546-5.738,0.511-8.537-0.104c-2.508-0.552-4.955-1.567-7.523-1.543c-3.786,0.035-7.27,2.398-9.479,5.474
				c-3.126,4.352-5.146,11.795-4.046,17.523c-0.17-0.889,2.82-4.11,3.437-4.802c1.298-1.461,2.866-2.832,4.849-3.069
				C733.964,226.208,739.284,228.439,742.892,231.061z"/>
		</g>
	</g>
	<g>
		<path id="XMLID_76_" fill="#B1B1B2" d="M651.106,495.819l-1.036,11.387c-0.337,3.697,2.068,6.941,5.372,7.242l26.718,2.43
			c3.304,0.301,6.254-2.454,6.591-6.153l1.035-11.387L651.106,495.819z"/>
		<path fill="#D67086" d="M749.144,350.576c3.646-40.061-22.406-75.176-58.186-78.431c-35.779-3.256-67.741,26.58-71.386,66.642
			c-1.296,14.236,1.162,27.845,6.472,39.624h-0.002c14.948,35.463,16.538,64.168,16.538,64.168l32.6,2.968l32.601,2.966
			c0,0,6.744-27.948,27.849-60.13h-0.003C742.975,377.754,747.849,364.812,749.144,350.576z"/>
		<path fill="#DDDDDD" d="M641.829,442.511l-4.4,48.372c-0.184,2.022,1.096,3.79,2.857,3.951l60.321,5.488
			c1.762,0.159,3.339-1.349,3.523-3.368l4.401-48.375L641.829,442.511z"/>
		<path opacity="0.2" fill="#3B3387" enable-background="new    " d="M749.229,336.89c-19.732,34.522-56.754,87.261-106.66,105.491
			c0.009,0.118,0.012,0.197,0.012,0.197l32.601,2.968l32.601,2.966c0,0,6.743-27.948,27.849-60.13h-0.003
			c7.348-10.627,12.222-23.57,13.517-37.806C749.566,345.933,749.572,341.359,749.229,336.89z"/>
		<g>
			<path opacity="0.5" fill="#FFFFFF" enable-background="new    " d="M629.616,345.716c3.184-34.974,31.085-61.023,62.322-58.18
				c18.259,1.662,33.611,12.827,42.586,28.802c-8.04-19.873-25.182-34.318-46.155-36.227c-31.235-2.841-59.139,23.207-62.322,58.181
				c-1.321,14.532,1.835,28.316,8.213,39.671C630.325,368.237,628.571,357.208,629.616,345.716z"/>
		</g>
		<g>
			<polygon fill="#F6F7F7" points="662.584,444.399 663.184,350.834 673.192,362.012 684.274,345.956 692.453,363.22 
				704.091,354.47 687.779,446.692 691.125,446.997 708.923,346.367 693.71,357.808 684.836,339.077 672.91,356.355 
				659.893,341.817 659.237,444.096 			"/>
		</g>
		<g>
			<path fill="#EDECED" d="M659.296,434.765l-0.059,9.329l3.347,0.305l0.073-11.526C661.544,433.52,660.425,434.152,659.296,434.765
				z"/>
			<path fill="#EDECED" d="M694.495,408.719l-6.717,37.973l3.347,0.305l7.472-42.25
				C697.248,406.087,695.881,407.412,694.495,408.719z"/>
		</g>
		<g>
			
				<rect x="640.205" y="457.538" transform="matrix(-0.9959 -0.0906 0.0906 -0.9959 1302.7502 983.1945)" fill="#C4C4C4" width="66.979" height="8.971"/>
			
				<rect x="638.475" y="476.607" transform="matrix(-0.9959 -0.0906 0.0906 -0.9959 1297.5712 1021.0953)" fill="#C4C4C4" width="66.98" height="8.97"/>
		</g>
		<g>
			<path fill="#C2C2C4" d="M675.57,476.928l30.133,2.741l0.923-10.146l-18.588-1.69C683.799,471.332,679.628,474.338,675.57,476.928
				z"/>
			<path fill="#C2C2C4" d="M707.438,460.591l1.095-12.012l-1.05-0.094c-1.533,2.229-5.224,6.253-10.368,11.167L707.438,460.591z"/>
			<path fill="#C2C2C4" d="M640.285,494.833l60.32,5.489c1.763,0.159,3.34-1.349,3.524-3.368l0.76-8.352l-43.554-3.965
				c-9.283,4.166-17.486,6.204-23.879,7.171C637.669,493.417,638.801,494.7,640.285,494.833z"/>
			<path fill="#B1B1B2" d="M688.038,467.833l18.588,1.69l0.813-8.933l-10.323-0.938C694.066,462.635,691.035,465.36,688.038,467.833
				z"/>
			<path fill="#B1B1B2" d="M661.337,484.638l43.554,3.965l0.813-8.934l-30.133-2.741
				C670.627,480.082,665.854,482.613,661.337,484.638z"/>
		</g>
		<path fill="#9E9E9E" d="M689.157,506.254c-8.261,7.426-22.896,8.567-27.711,8.738l20.714,1.885
			c3.304,0.301,6.254-2.454,6.591-6.153L689.157,506.254z"/>
	</g>
	<g>
		<g>
			<path fill="#E5D1BD" d="M705.129,402.667c0.09-0.253,0.185-0.515,0.339-0.724c1.435-1.953,3.352-2.115,5.259-3.599
				c0.853-0.661,0.611-3.422,2.736-2.68c0.783,0.272,2.613,1.214,4.278,1.813c2.431,0.873,6.039,0.512,8.85-0.305
				c3.779-1.098,7.753-2.347,11.296-3.981c3.709-1.711,7.326-3.62,10.857-5.67c2.943-1.709,7.614-3.669,9.84-6.27
				c3.762-4.397-0.596-15.119-1.091-20.61c-0.517-5.724-0.016-22.587,7.711-23.064c12.659-0.781,12.858,11.248,13.423,20.933
				c0.354,6.044,0.328,12.205-0.215,18.238c-0.76,8.451-6.236,13.29-13.475,17.289c-7.669,4.239-15.515,8.397-23.943,10.92
				c-4.098,1.226-8.131,1.593-12.312,2.268c-4.131,0.668-3.604,2.47-7.069,3.982c-1.937,0.844-3.748,2.067-5.813,2.54
				c-3.704,0.844-6.671-1.722-9.484-3.709c-0.701-0.495-1.176-0.825-1.54-1.544c-0.591-1.166-0.359-2.414-0.178-3.66
				C704.71,404.099,704.878,403.366,705.129,402.667z"/>
		</g>
		<g>
			<path fill="#474EBB" d="M778.393,361.782c-7.156,1.389-14.313,2.775-21.471,4.162c0.46-0.088-8.282-32.089-8.736-34.012
				c-1.736-7.338-3.481-14.956-1.994-22.349c3.176-15.786,10.785-19.672,20.373-3.083c9.049,15.657,23.234,34.4,20.426,52.218
				c-0.061,0.388-0.133,0.794-0.378,1.1c-0.339,0.421-0.911,0.549-1.439,0.652C782.913,360.907,780.653,361.344,778.393,361.782z"/>
		</g>
	</g>
</g>
</svg>
