<?xml version="1.0" encoding="utf-8"?>
<!-- Generator: Adobe Illustrator 16.0.0, SVG Export Plug-In . SVG Version: 6.00 Build 0)  -->
<!DOCTYPE svg PUBLIC "-//W3C//DTD SVG 1.1//EN" "http://www.w3.org/Graphics/SVG/1.1/DTD/svg11.dtd">
<svg version="1.1" id="圖層_1" xmlns="http://www.w3.org/2000/svg" xmlns:xlink="http://www.w3.org/1999/xlink" x="0px" y="0px"
	 width="23px" height="16.511px" viewBox="0 0 23 16.511" enable-background="new 0 0 23 16.511" xml:space="preserve">
<path fill="#FFFFFF" d="M9.388,1.03h1.718v12.88H9.388V1.03z"/>
<path fill="#FFFFFF" d="M10.235,1.03h0.871v12.88h-0.871V1.03z"/>
<path fill="#FFFFFF" d="M0,13.11h20.494v1.603H0V13.11z"/>
<path fill="#FFFFFF" d="M10.235,13.11h10.259v1.603H10.235V13.11z"/>
<path fill="#FFFFFF" d="M0.558,11.753c0-5.351,4.338-9.689,9.689-9.689c5.351,0,9.688,4.339,9.688,9.689H0.558z"/>
<path fill="#FFFFFF" d="M10.247,2.064c-0.004,0-0.008,0-0.012,0v9.689h9.701C19.938,6.403,15.598,2.064,10.247,2.064z"/>
<path fill="#FFFFFF" d="M8.244,0h4.006v1.489H8.244V0z"/>
<path fill="#FFFFFF" d="M10.235,0h2.015v1.489h-2.015V0L10.235,0z"/>
</svg>
